<svg id="Layer_1" data-name="Layer 1" xmlns="http://www.w3.org/2000/svg" viewBox="0 0 556.96 296.8"><defs><style>.cls-1{fill:#eefffa;}.cls-2{fill:#ff3384;}.cls-3{fill:#ff81b9;}.cls-4{fill:#ffb1be;}.cls-5{fill:#de9eac;}.cls-6{fill:#d9daee;}.cls-7,.cls-9{fill:#fcfcfc;}.cls-7,.cls-8{opacity:0.35;}.cls-10{fill:#b8bf7c;}.cls-11{fill:#ccdb88;}.cls-12{fill:#926b4d;}.cls-13{fill:#a2846c;}.cls-14{fill:#f3e69a;}.cls-15{fill:#c1cc80;}.cls-16{opacity:0.3;}.cls-17{fill:#d0fff9;}.cls-18{opacity:0.1;}.cls-19{fill:#ababab;}.cls-20{opacity:0.14;}.cls-21{opacity:0.79;}.cls-22{fill:#fff;}.cls-23{opacity:0.74;}.cls-24{opacity:0.16;}.cls-25{opacity:0.81;}.cls-26{opacity:0.15;}.cls-27{fill:none;stroke:#000;stroke-miterlimit:10;}.cls-28{fill:#62a286;}.cls-29{fill:#4c8478;}.cls-30{fill:#9dd1ab;}</style></defs><title>aboutPageImg</title><path class="cls-1" d="M528,245.53a131.71,131.71,0,0,1,16.91,5.38c6.43,2.52,14,8.7,11.59,15.86-1,2.82-3.32,4.69-5.63,6.21-12.15,8-26.37,10.85-40.31,13-45.91,7.22-92.36,8.77-138.72,9.86-116.43,2.71-233.62,2.42-348.42-20.09-4.77-.94-9.53-2.05-14.28-3.12C-.72,270.45,0,263.48,0,263.48A10.34,10.34,0,0,1,2.32,259c2.92-3.17,7.14-4.2,11.12-5.07a1149.8,1149.8,0,0,1,260.24-26.62c32,.39,64,2.13,95.94,3.86l96.3,5.23s30.53.84,42.16,3.78S528,245.53,528,245.53Z" transform="translate(0 -0.25)"/><path class="cls-2" d="M410.66,246.63c4.33-12.55-.54-26.33.56-39.55a43.86,43.86,0,0,1,4.47-15.94,21.84,21.84,0,0,1,5.45-7.33c2-1.65,4.45-2.72,6.59-4.22,10-7,11.61-20.75,16.82-31.74,1.63-3.43,4.26-7,8.05-7.29,3.32-.22,6.33,2.44,7.4,5.59s.57,6.61-.39,9.79c-3.24,10.63-11.53,19.28-21.37,24.42-2.29,1.19-4.84,2.38-6,4.69-1.82,3.68,1.4,8.41,5.44,9.08s8.09-1.82,10.47-5.16c1.68-2.37,2.76-5.2,4.83-7.25s5.73-3,7.8-.95A18,18,0,0,1,461,199.1a21.12,21.12,0,0,1-15.67,10c-4.21.51-8.48-.17-12.69.27s-8.69,2.39-10.34,6.29c-2.56,6.08,3,12.74,2.39,19.32-.43,4.68-3.86,8.44-5.77,12.73s-1.35,10.7,3.17,12c0,0-.81,7.61-3.77,7.12s-11.68-2.94-11.68-2.94Z" transform="translate(0 -0.25)"/><path class="cls-3" d="M422.68,193.42a1,1,0,0,0-.35-.24,1.1,1.1,0,0,0-.5-.11.83.83,0,0,0-.77.56.89.89,0,0,0,0,.43.65.65,0,0,0,.2.36.62.62,0,0,0,.5.17.7.7,0,0,0,.4-.2.78.78,0,0,0,.21-.46.58.58,0,0,0-.06-.29.67.67,0,0,0-.2-.21.38.38,0,0,0-.29,0,.39.39,0,0,0-.23.17.42.42,0,0,0,0,.29l0,.09a.35.35,0,0,0,.14.13h0l-.07-.06,0,0-.06-.08,0,0,0-.09a.09.09,0,0,1,0,0v-.15a.14.14,0,0,1,0,.07l0-.09a.22.22,0,0,1-.05.08l.06-.07-.07.07.08-.06-.08,0,.09,0-.07,0,.1,0h-.06l.1,0-.06,0,.09,0a.1.1,0,0,1-.05,0l.07.06,0,0,.06.07a.18.18,0,0,1-.05-.07l0,.09a.29.29,0,0,1,0-.09v.08a.27.27,0,0,1,0-.12l0,.09a.75.75,0,0,1,.07-.12l-.06.08a.23.23,0,0,1,.07-.07l-.08.06.1-.06-.09,0,.12,0h0l.19.05-.09,0a1.32,1.32,0,0,1,.2.12l-.08-.06.08.07a.39.39,0,0,0,.27.11.36.36,0,0,0,.26-.11.33.33,0,0,0,.11-.26.39.39,0,0,0-.11-.27Z" transform="translate(0 -0.25)"/><path class="cls-3" d="M426.54,195.33a.6.6,0,0,0,.23-.06l.11-.09a.44.44,0,0,0,.13-.25.51.51,0,0,0,0-.3.52.52,0,0,0-.22-.3.45.45,0,0,0-.46,0,1.24,1.24,0,0,0-.21.18,1.35,1.35,0,0,0-.27.48,1.26,1.26,0,0,0,0,.61.38.38,0,0,0,.17.22.34.34,0,0,0,.29,0,1.11,1.11,0,0,0,.45-.28,1.09,1.09,0,0,0,.17-.22,1.19,1.19,0,0,0,.08-.16.43.43,0,0,0-.06-.33.78.78,0,0,0-1-.27.37.37,0,0,0-.17.22.42.42,0,0,0,0,.29.38.38,0,0,0,.51.14l0,0-.09,0,.09,0h-.09a.19.19,0,0,1,.1,0l-.09,0,.09.05-.08-.06a.23.23,0,0,1,.07.07l-.06-.08a.25.25,0,0,1,0,.07v-.38a.42.42,0,0,1-.09.14l.06-.07a.93.93,0,0,1-.14.14l.07-.06a.62.62,0,0,1-.17.11l.09,0h0l.46.26a.13.13,0,0,0,0-.06l0,.1a.74.74,0,0,1,0-.21l0,.1a.79.79,0,0,1,.06-.22l0,.09a.76.76,0,0,1,.12-.19l-.06.07a1.06,1.06,0,0,1,.15-.15l-.08.06,0,0-.19,0h0l-.09,0h0l-.08,0h0l-.06-.07a.05.05,0,0,1,0,0l0-.09a.43.43,0,0,1,0,.05v-.14a.43.43,0,0,0,0,.05l0-.09,0,0,.05-.07,0,0,.08-.06h0l.09,0h.06a.4.4,0,0,0-.27.11.41.41,0,0,0-.11.26.44.44,0,0,0,.11.27.39.39,0,0,0,.27.11Z" transform="translate(0 -0.25)"/><path class="cls-3" d="M419.4,198.35a3.05,3.05,0,0,0-.45,2.74,3.33,3.33,0,0,0,1.91,2,4.84,4.84,0,0,0,3,.39,4.33,4.33,0,0,0,1.36-.83,11.35,11.35,0,0,0,1.22-1.08,3.19,3.19,0,0,0,.89-1.35c.1-.43,0-1-.52-1.06s-.67.64-.19.72c0,0,0,0,0,0a.2.2,0,0,1,0,.11.69.69,0,0,1-.11.28,2.53,2.53,0,0,1-.43.6,8.94,8.94,0,0,1-1.1,1,4.19,4.19,0,0,1-1.31.86,3.34,3.34,0,0,1-1.57,0,3.39,3.39,0,0,1-2.25-1.34,2.31,2.31,0,0,1,.17-2.6c.29-.38-.36-.76-.65-.38Z" transform="translate(0 -0.25)"/><path class="cls-3" d="M420.12,190.43c0-.07,0,.09,0,0a.07.07,0,0,1,0-.05l0-.11s0,.09,0,0l0,0,.06-.09c0-.06-.05,0,0,0l0,0,.08-.07,0,0c.05,0-.08.05,0,0l.09-.06.1-.05s.08,0,0,0h.05a.19.19,0,0,1,.1,0l.05,0c.08,0,0,0,0,0s.09,0,.11,0h.11c-.12,0-.06,0,0,0l.05,0s.16.06,0,0a.42.42,0,0,0,.29,0,.38.38,0,0,0,.26-.46.35.35,0,0,0-.17-.22,1.27,1.27,0,0,0-.67-.12,1.49,1.49,0,0,0-1.11.65,1.26,1.26,0,0,0-.22.63.4.4,0,0,0,.11.27.41.41,0,0,0,.27.11.38.38,0,0,0,.37-.38Z" transform="translate(0 -0.25)"/><path class="cls-3" d="M424.79,187.26a1.46,1.46,0,0,0-.7,1.29,1.44,1.44,0,0,0,.81,1.22.37.37,0,0,0,.51-.13.36.36,0,0,0-.14-.51l-.12-.07,0,0c-.07-.05,0,0,0,0L425,189l0,0s0,0,0,0l-.06-.1s0,0,0-.06,0,.05,0,0l0-.12s0-.09,0,0,0,0,0,0v-.12s0,0,0-.06a.93.93,0,0,1,0-.13c0-.05,0,0,0,0l0-.07.07-.11,0,0s0,0,0,0l0,0,.09-.1h0l.07,0a.38.38,0,1,0-.38-.65Z" transform="translate(0 -0.25)"/><path class="cls-3" d="M429.25,183.47l-.5.86a.36.36,0,0,0,0,.29.37.37,0,0,0,.68.09l.51-.86a.42.42,0,0,0,0-.29.36.36,0,0,0-.18-.22.37.37,0,0,0-.51.13Z" transform="translate(0 -0.25)"/><path class="cls-3" d="M428.91,191a.38.38,0,0,0,0-.75.38.38,0,0,0,0,.75Z" transform="translate(0 -0.25)"/><path class="cls-3" d="M445.22,156.82l-.53,1.09a.38.38,0,0,0,0,.29.36.36,0,0,0,.17.23.37.37,0,0,0,.51-.14l.54-1.09a.41.41,0,0,0,0-.29.34.34,0,0,0-.17-.22.37.37,0,0,0-.51.13Z" transform="translate(0 -0.25)"/><path class="cls-3" d="M447.34,158.36a5.57,5.57,0,0,0-.76,1.37.41.41,0,0,0,0,.29.42.42,0,0,0,.22.18.41.41,0,0,0,.29,0,.46.46,0,0,0,.18-.23l0-.08,0,0s0,0,0,0a.87.87,0,0,0,.07-.17c.05-.11.11-.21.17-.32a5.7,5.7,0,0,1,.39-.61.31.31,0,0,0,0-.28.36.36,0,0,0-.17-.23.42.42,0,0,0-.29,0,.43.43,0,0,0-.22.18Z" transform="translate(0 -0.25)"/><path class="cls-3" d="M451.91,160.91l-1.7,1.73a.38.38,0,0,0,0,.53.4.4,0,0,0,.53,0l1.7-1.73a.37.37,0,0,0-.53-.53Z" transform="translate(0 -0.25)"/><path class="cls-3" d="M440.91,164.38l-1,1.38a.38.38,0,0,0,0,.29.39.39,0,0,0,.17.23.38.38,0,0,0,.51-.14l1-1.38a.42.42,0,0,0,0-.29.38.38,0,0,0-.17-.22.38.38,0,0,0-.29,0,.44.44,0,0,0-.23.17Z" transform="translate(0 -0.25)"/><path class="cls-3" d="M445.68,166.79a3,3,0,0,1-.18.58l0-.09a3.36,3.36,0,0,1-.22.42.38.38,0,0,0,.65.38,3.45,3.45,0,0,0,.43-1.09.37.37,0,0,0,0-.29.44.44,0,0,0-.23-.17.38.38,0,0,0-.46.26Z" transform="translate(0 -0.25)"/><path class="cls-3" d="M439.56,170.41l-.38.89a.29.29,0,0,0-.05.13.26.26,0,0,0,0,.15.36.36,0,0,0,.17.23.42.42,0,0,0,.29,0,.38.38,0,0,0,.23-.18l.38-.88a.33.33,0,0,0,0-.14.26.26,0,0,0,0-.15.37.37,0,0,0-.17-.22.36.36,0,0,0-.29,0,.41.41,0,0,0-.22.17Z" transform="translate(0 -0.25)"/><path class="cls-3" d="M434.24,175.43l-.6,1.43a.42.42,0,0,0,0,.29.39.39,0,0,0,.23.17.38.38,0,0,0,.29,0,.47.47,0,0,0,.17-.22l.6-1.44a.39.39,0,0,0-.26-.46.41.41,0,0,0-.29,0,.46.46,0,0,0-.18.23Z" transform="translate(0 -0.25)"/><path class="cls-3" d="M439.74,176.69A7.42,7.42,0,0,0,443,174.1a.37.37,0,1,0-.65-.37,6.59,6.59,0,0,1-2.82,2.24.38.38,0,0,0-.26.46.37.37,0,0,0,.46.26Z" transform="translate(0 -0.25)"/><path class="cls-3" d="M450.58,149.71a.38.38,0,0,0,0-.75.38.38,0,0,0,0,.75Z" transform="translate(0 -0.25)"/><path class="cls-3" d="M449.44,146.64a2.43,2.43,0,0,0-1.88,2.15.37.37,0,0,0,.37.37.38.38,0,0,0,.38-.37v-.08l0-.14s0-.1,0-.15l0-.07c0-.08,0,.06,0,0s.09-.18.15-.27a.47.47,0,0,1,.09-.12h0l.06-.07.22-.21,0,0,0,0,.06,0,.13-.09.13-.07s.09,0,0,0l0,0,.31-.08a.38.38,0,0,0,.26-.46.39.39,0,0,0-.46-.27Z" transform="translate(0 -0.25)"/><path class="cls-3" d="M455.58,147.63a.34.34,0,0,0,0-.15.55.55,0,0,0-.12-.21.64.64,0,0,0-.25-.15.73.73,0,0,0-.52.06l-.05,0-.11.09a.59.59,0,0,0-.14.27.49.49,0,0,0,0,.17.59.59,0,0,0,0,.13.71.71,0,0,0,.2.33.8.8,0,0,0,.32.19l.19,0h.1a.42.42,0,0,0,.19-.06.22.22,0,0,0,.1-.09.36.36,0,0,0,.07-.33.53.53,0,0,1,0-.12V148a.09.09,0,0,1,0-.05l0,.09,0,0-.06.07h0l-.08.06,0,0-.09,0h0l-.1,0h0l-.1,0h0l-.09,0,0,0-.08-.06,0,0L455,148h0l0-.09v-.08h0v-.08l0,.1a.32.32,0,0,0,0,.14.46.46,0,0,0,.16.18.41.41,0,0,0,.19.05.32.32,0,0,0,.14,0,.2.2,0,0,0,.12-.08.4.4,0,0,0,.14-.22.57.57,0,0,0,0-.18.55.55,0,0,0-.26-.45.52.52,0,0,0-.27-.07l-.14,0a.75.75,0,0,0-.13.06.54.54,0,0,0-.26.46.39.39,0,0,0,.11.27.37.37,0,0,0,.53,0,.4.4,0,0,0,.11-.27v.08s0,0,0,0l0,.09,0,0-.06.07,0,0-.07.06,0,0-.09,0h-.09l-.09,0,0,0-.07-.06a0,0,0,0,1,0,0l-.06-.07,0,0,0-.09s0,0,0,0v-.15s0,0,0,0l0-.09,0,0,.06-.07,0,0,.63.37a.59.59,0,0,0,0-.13.39.39,0,0,0-.06-.21.65.65,0,0,0-.16-.17.66.66,0,0,0-.2-.06.38.38,0,0,0-.21,0,.41.41,0,0,0-.2.12.54.54,0,0,0-.1.16l0,.09s0,.09,0,.14a.59.59,0,0,0,0,.14.35.35,0,0,0,0,.11l.36-.47h0l-.12,0,.09,0-.1-.06.08.06a.6.6,0,0,1-.08-.08l.06.08a.3.3,0,0,1,0-.08l0,.09a.64.64,0,0,1,0-.07l0,.1a.09.09,0,0,1,0-.07l0,.1s0,0,0-.06l0,.09,0,0-.06.08a.08.08,0,0,1,0,0l-.08,0,.06,0-.09,0,.09,0-.1,0H455l-.1,0,.07,0-.09,0,0,0-.08-.06,0,0-.06-.08a.05.05,0,0,1,0,0l0-.09s0,0,0,0l0-.1h0a.23.23,0,0,0,0,.14.24.24,0,0,0,.07.12.36.36,0,0,0,.27.11.39.39,0,0,0,.27-.11.33.33,0,0,0,.1-.26Z" transform="translate(0 -0.25)"/><path class="cls-3" d="M450.71,153.09a2.83,2.83,0,0,0,1.91,3.16,4,4,0,0,0,2.25.05c.58-.14,1.59-.46,1.52-1.23-.05-.47-.8-.48-.75,0,0,.15-.24.26-.41.33a4.13,4.13,0,0,1-.85.24,3.06,3.06,0,0,1-1.64-.14,2.06,2.06,0,0,1-1.31-2.21c.1-.47-.62-.67-.72-.2Z" transform="translate(0 -0.25)"/><path class="cls-3" d="M456.27,151.69a.43.43,0,0,0-.09-.13l-.1-.08,0,0a.6.6,0,0,0-.32-.07.72.72,0,0,0-.32.08l-.13.1a.63.63,0,0,0-.11.12.44.44,0,0,0-.06.16.62.62,0,0,0,0,.27.42.42,0,0,0,.1.17.46.46,0,0,0,.17.09.76.76,0,0,0,.16,0h.07a1,1,0,0,0,.23,0l.15-.06.09-.07.09-.07a1.47,1.47,0,0,0,.1-.13.33.33,0,0,0,0-.14.23.23,0,0,0,0-.14.36.36,0,0,0-.17-.23l-.14-.06-.06,0h-.16l-.16,0a.86.86,0,0,0-.21.07.75.75,0,0,0-.17.14.25.25,0,0,0-.08.12.32.32,0,0,0,0,.14.37.37,0,0,0,0,.15.25.25,0,0,0,.08.12.36.36,0,0,0,.26.11.39.39,0,0,0,.27-.11s0,0,.05-.05l-.08.06.08,0-.09,0,.1,0h-.1l.09,0-.09,0,0,0-.13-.51h0l.06-.07-.08.07.07,0-.09,0,.09,0-.12,0,.09,0h-.11l.1,0h0l.26.26h0v.15a.07.07,0,0,1,0,0l0,.09,0-.05-.06.08,0,0-.07.06.07,0-.09,0,.09,0h0l-.1,0,.06,0-.09,0,0,0-.07-.06,0,0-.06-.07,0,0a.28.28,0,0,0,.09.1.33.33,0,0,0,.13.07.26.26,0,0,0,.15,0,.23.23,0,0,0,.14,0,.37.37,0,0,0,.17-.22v-.1a.32.32,0,0,0-.05-.19Z" transform="translate(0 -0.25)"/><path class="cls-3" d="M453.73,150.76a.61.61,0,0,0-.62-.16.69.69,0,0,0-.15.07.67.67,0,0,0-.14.09.64.64,0,0,0-.1.13l0,.08a.13.13,0,0,0,0,.08l0,.1a.32.32,0,0,0,0,.14.35.35,0,0,0,.16.18l.13.06.15,0,.2,0a.63.63,0,0,0,.33-.2.28.28,0,0,0,.08-.12.4.4,0,0,0,0-.15V151a.34.34,0,0,0-.1-.16.35.35,0,0,0-.13-.11.69.69,0,0,0-.15-.07l-.17,0a.91.91,0,0,0-.17,0l-.12,0-.11.06a.41.41,0,0,0-.12.11.61.61,0,0,0-.13.22.26.26,0,0,0,0,.15.33.33,0,0,0,0,.14.39.39,0,0,0,.23.17.38.38,0,0,0,.29,0l.07-.05a.42.42,0,0,0,.1-.17h0l0,.09,0,0-.06.08.05,0-.07.06.07,0-.09,0,.08,0h-.12l.08,0-.09,0,0,0-.07-.06,0,0v-.53l-.05,0,.08-.06-.07,0,.09,0-.08,0h.12l-.08,0,.09,0h0l.17.42a.06.06,0,0,1,0,0l0,.09,0-.05-.06.07.05,0-.08.06.07,0-.09,0,.08,0h-.06l-.09,0,.05,0-.07,0,0,0a.4.4,0,0,0,.27.11.36.36,0,0,0,.26-.11.33.33,0,0,0,.11-.26.35.35,0,0,0-.11-.27Z" transform="translate(0 -0.25)"/><path class="cls-3" d="M450.33,194.25q3.57.08,7.13-.14c.48,0,.48-.78,0-.75q-3.56.21-7.13.14a.38.38,0,0,0,0,.75Z" transform="translate(0 -0.25)"/><path class="cls-3" d="M453.17,194.24a2.18,2.18,0,0,0,.72,2.29,1.74,1.74,0,0,0,2.42-.85,3.4,3.4,0,0,0,.26-1.75.38.38,0,0,0-.37-.38.39.39,0,0,0-.38.38,3,3,0,0,1-.09,1.19,1.28,1.28,0,0,1-.58.76.52.52,0,0,1-.13.06s0,0,0,0l-.07,0-.11,0h-.09a.57.57,0,0,1-.13,0h-.06s.06,0,0,0l-.11,0c-.06,0,0,0,0,0l-.06,0-.1-.06,0,0s.05,0,0,0l-.07-.06-.05-.05a1,1,0,0,1-.12-.19l-.05-.09c0,.06,0-.05,0-.07a2.68,2.68,0,0,1-.07-.27v0s0,0,0,0,0-.09,0-.14a2.26,2.26,0,0,1,0-.26v-.07c0-.06,0,.06,0,0a.8.8,0,0,1,0-.15.39.39,0,0,0-.27-.46.37.37,0,0,0-.46.26Z" transform="translate(0 -0.25)"/><path class="cls-3" d="M453,189a.71.71,0,0,0-.18-.3,1.12,1.12,0,0,0-.22-.16,1.39,1.39,0,0,0-.35-.09.8.8,0,0,0-.27,0,.77.77,0,0,0-.49.37.9.9,0,0,0-.08.36.66.66,0,0,0,.05.28,1,1,0,0,0,.19.32.89.89,0,0,0,.22.16.74.74,0,0,0,.36.09.83.83,0,0,0,.34-.1.9.9,0,0,0,.38-.48s0-.06,0-.09a.55.55,0,0,0,0-.18.82.82,0,0,0-.08-.35.73.73,0,0,0-.27-.28.57.57,0,0,0-.58,0,.47.47,0,0,0-.2.28.5.5,0,0,0,.05.36.47.47,0,0,0,.18.19.44.44,0,0,0,.43,0,.34.34,0,0,0,.17-.22.37.37,0,0,0,0-.29.39.39,0,0,0-.23-.17.42.42,0,0,0-.29,0h0l.09,0h0l.1,0h0l.1,0h0l.09,0h0l.08.06,0,0,.06.08,0,0,0,.09s0,0,0,0V189l0,.09v0l-.06.07h0l-.07.06,0,0-.09,0h-.06l-.09,0,.07,0-.08-.06.06,0-.06-.07a.56.56,0,0,1,.05.08l0-.09a.29.29,0,0,1,0,.09v-.1a.24.24,0,0,1,0,.12v-.1a.35.35,0,0,1,0,.14l0-.09a.41.41,0,0,1-.07.11l.06-.08a.3.3,0,0,1-.08.08l.08-.06-.08.05.09,0a.29.29,0,0,1-.1,0h.11l-.09,0,.09,0a.33.33,0,0,1-.1-.06l.08.06a.3.3,0,0,1-.08-.08l.05.07a.63.63,0,0,1-.07-.12l0,.09a.53.53,0,0,1,0-.12v.09a.3.3,0,0,1,0-.1l0,.09,0-.08-.06.08.07-.07-.08.06.09-.05-.09,0,.12,0h0l-.1,0,.14,0-.09,0,.1.06-.07-.06.07.08-.06-.08a.35.35,0,0,1,0,.08l0-.09v0a.38.38,0,0,0,.46.26.34.34,0,0,0,.22-.17.34.34,0,0,0,0-.29Z" transform="translate(0 -0.25)"/><path class="cls-3" d="M457.15,189.51a.46.46,0,0,0-.22-.29.51.51,0,0,0-.38-.05.57.57,0,0,0-.42.39.65.65,0,0,0,.06.41.66.66,0,0,0,.23.24.77.77,0,0,0,.55.11.93.93,0,0,0,.51-.24.79.79,0,0,0,.26-.54.72.72,0,0,0,0-.25.67.67,0,0,0-.1-.23.74.74,0,0,0-.46-.33.73.73,0,0,0-.67.2.72.72,0,0,0-.19.68.39.39,0,0,0,.18.22.35.35,0,0,0,.28,0,.38.38,0,0,0,.27-.46.09.09,0,0,1,0,0v.14a.29.29,0,0,1,0-.09l0,.09a.56.56,0,0,1,.05-.08l-.06.08.07-.08-.07.06.08,0-.09,0,.09,0h-.12l.08,0-.09,0,.08,0-.08-.06a.3.3,0,0,1,.08.08l-.06-.08a.31.31,0,0,1,.05.1l0-.09,0,.11v-.08a.32.32,0,0,1,0,.09l0-.09-.06.11.06-.08-.09.09.08-.06-.12.07.08,0-.14,0h.07a.2.2,0,0,1-.11,0l.09,0-.08,0,.07.06s0,0-.05-.05l.05.07,0-.06,0,.09a.07.07,0,0,1,0,0v.13l0,.09a.08.08,0,0,1,0,0l-.06.08,0,0-.07,0,0,0-.09,0,.06,0-.1,0h0l-.09,0h0l-.08-.05,0,0-.06-.08v0l0-.09v0a.41.41,0,0,0,.17.22.37.37,0,0,0,.29,0,.38.38,0,0,0,.26-.46Z" transform="translate(0 -0.25)"/><path class="cls-3" d="M448.71,191.8a1.38,1.38,0,0,0-1.35.37,1.34,1.34,0,0,0-.28,1.39.43.43,0,0,0,.18.22.37.37,0,0,0,.55-.42,1.09,1.09,0,0,1-.07-.24l0,.1a1,1,0,0,1,0-.25l0,.1,0-.16,0-.07s0,0,0,0l0,0a.75.75,0,0,1,.07-.12c.05-.08-.05.05,0,0s0,0,.05-.05l.06,0c0-.05-.08,0,0,0a.41.41,0,0,1,.11-.07c.09,0-.06,0,0,0l.07,0a.4.4,0,0,1,.15,0h.05a.4.4,0,0,1,.15,0,.39.39,0,0,0,.46-.26.39.39,0,0,0-.26-.47Z" transform="translate(0 -0.25)"/><path class="cls-3" d="M457.64,185.92a4.86,4.86,0,0,1,.78-.79l0,0s0,0,0,0l.11-.09.23-.15a4.67,4.67,0,0,1,.49-.27.38.38,0,0,0,.14-.51.39.39,0,0,0-.52-.14,5.13,5.13,0,0,0-1.81,1.46.41.41,0,0,0-.11.26.4.4,0,0,0,.11.27.39.39,0,0,0,.53,0Z" transform="translate(0 -0.25)"/><path class="cls-3" d="M456,182.71a2.85,2.85,0,0,0-2.48,2.14.38.38,0,0,0,.26.46.37.37,0,0,0,.46-.26,3.38,3.38,0,0,1,.11-.34c0,.08,0,0,0,0l0-.09.09-.15a.78.78,0,0,1,.1-.15s.06-.09,0,0l.05-.06a2.06,2.06,0,0,1,.25-.26l.13-.11c-.07.05,0,0,0,0l.07-.05a2,2,0,0,1,.32-.18h0l.08,0,.17-.06.17,0H456s0,0,0,0H456a.38.38,0,0,0,.37-.38.36.36,0,0,0-.37-.37Z" transform="translate(0 -0.25)"/><path class="cls-3" d="M439.88,198.25a4.37,4.37,0,0,0,1.68-.21.4.4,0,0,0,.26-.47.38.38,0,0,0-.46-.26,2.85,2.85,0,0,1-.39.11l-.17,0-.12,0c-.08,0,.07,0,0,0a4.19,4.19,0,0,1-.79,0,.37.37,0,0,0-.37.37.38.38,0,0,0,.37.38Z" transform="translate(0 -0.25)"/><path class="cls-3" d="M437.42,196.47v.08s0,0,0-.05l0,.09a.08.08,0,0,1,0,0l-.06.07,0,0-.07.06.05,0-.09,0,.06,0-.1,0a0,0,0,0,1,0,0l-.1,0h0a.26.26,0,0,0,.15,0,.23.23,0,0,0,.14,0,.35.35,0,0,0,.11-.1.27.27,0,0,0,.06-.12l0-.1a.41.41,0,0,0-.05-.19l-.06-.08a.42.42,0,0,0-.17-.1.71.71,0,0,0-.29,0L437,196l0,0a.71.71,0,0,0-.2.2.65.65,0,0,0-.08.28.23.23,0,0,0,0,.14.24.24,0,0,0,.07.12.42.42,0,0,0,.12.08.4.4,0,0,0,.15,0h.1a.34.34,0,0,0,.16-.1l.06-.08a.29.29,0,0,0,.05-.18Z" transform="translate(0 -0.25)"/><path class="cls-3" d="M434.65,203.31a3.39,3.39,0,0,0,2.61,1.53.37.37,0,0,0,.37-.37.38.38,0,0,0-.37-.38h-.11l-.15,0-.31-.08-.16-.06-.07,0h0l-.29-.15-.26-.18s0,0,0,0l-.06-.05-.13-.11-.21-.23-.05-.07c0-.05,0,.07,0,0l-.1-.14a.38.38,0,0,0-.51-.14.39.39,0,0,0-.14.52Z" transform="translate(0 -0.25)"/><path class="cls-3" d="M447,198.78a2.91,2.91,0,0,1-.16.5s0,.09,0,0,0,0,0,.05a.61.61,0,0,0-.05.12l-.14.24c0,.07-.09.14-.14.21a.1.1,0,0,1,0,.05c.06-.05,0,0,0,0l-.08.1a3.59,3.59,0,0,1-.4.38.38.38,0,0,0,0,.53.39.39,0,0,0,.53,0,3.51,3.51,0,0,0,1.22-2,.39.39,0,0,0-.26-.47.38.38,0,0,0-.46.27Z" transform="translate(0 -0.25)"/><path class="cls-3" d="M452.71,202.81a16.59,16.59,0,0,0-2.32.42.38.38,0,0,0-.26.46.37.37,0,0,0,.46.26l1.08-.24c.38-.07.68-.11,1-.15a.38.38,0,0,0,.37-.37.38.38,0,0,0-.37-.38Z" transform="translate(0 -0.25)"/><path class="cls-3" d="M416.33,208.23a3.22,3.22,0,0,1,0,.76v-.09a3.1,3.1,0,0,1-.11.51.37.37,0,0,0,.26.46.38.38,0,0,0,.46-.26,3.22,3.22,0,0,0,.13-1.38A.4.4,0,0,0,417,208a.41.41,0,0,0-.26-.11.44.44,0,0,0-.27.11.39.39,0,0,0-.11.27Z" transform="translate(0 -0.25)"/><path class="cls-3" d="M419.3,209.45l-.08.46a.33.33,0,0,0,0,.14.23.23,0,0,0,0,.14.36.36,0,0,0,.1.11.4.4,0,0,0,.13.07.42.42,0,0,0,.29,0l.07-.06a.37.37,0,0,0,.1-.17l.07-.46a.23.23,0,0,0,0-.14.33.33,0,0,0,0-.14.36.36,0,0,0-.1-.11l-.13-.07a.42.42,0,0,0-.29,0l-.07.06a.37.37,0,0,0-.1.17Z" transform="translate(0 -0.25)"/><path class="cls-3" d="M427.3,205.43l-1.21.87a.38.38,0,0,0-.17.22.42.42,0,0,0,0,.29.37.37,0,0,0,.51.13l1.21-.86a.37.37,0,0,0,.13-.51.38.38,0,0,0-.51-.14Z" transform="translate(0 -0.25)"/><path class="cls-3" d="M415.14,218.21a1.62,1.62,0,0,0,0,.9.4.4,0,0,0,.17.23.48.48,0,0,0,.29,0,.37.37,0,0,0,.26-.47,1.18,1.18,0,0,1,0-.2v.1a1.82,1.82,0,0,1,0-.33v.1a.85.85,0,0,1,0-.17.41.41,0,0,0,0-.29.39.39,0,0,0-.23-.17.34.34,0,0,0-.28,0,.41.41,0,0,0-.18.23Z" transform="translate(0 -0.25)"/><path class="cls-3" d="M417.78,219.55l.16.5a.34.34,0,0,0,.17.22.24.24,0,0,0,.14,0,.26.26,0,0,0,.15,0,.34.34,0,0,0,.22-.17.37.37,0,0,0,0-.29l-.15-.5a.39.39,0,0,0-.18-.22.34.34,0,0,0-.14,0,.38.38,0,0,0-.15,0,.41.41,0,0,0-.22.17.37.37,0,0,0,0,.29Z" transform="translate(0 -0.25)"/><path class="cls-3" d="M419.34,224.91l.05,1.07a.38.38,0,0,0,.38.37.37.37,0,0,0,.37-.37l-.05-1.07a.38.38,0,0,0-.37-.38.39.39,0,0,0-.38.38Z" transform="translate(0 -0.25)"/><path class="cls-3" d="M415.49,226.17a2.32,2.32,0,0,0,.05,1.28.41.41,0,0,0,.17.22.37.37,0,0,0,.55-.42,2.62,2.62,0,0,1-.09-.38l0,.1a2.09,2.09,0,0,1,0-.5l0,.1c0-.07,0-.13,0-.2a.39.39,0,0,0-.26-.46.38.38,0,0,0-.46.26Z" transform="translate(0 -0.25)"/><path class="cls-4" d="M123.72,254.43c-3.08-10.67,3.91-23.49,15-24.52,12.84-1.21,24.7,11.3,37.19,8.12,12.31-3.14,16.53-19.16,27.59-25.4,8.84-5,21.35-1.85,26.78,6.74,1.92,3,3.12,6.72,6,8.85,6.23,4.55,14.61-1,20.49-6s15.23-9.56,20.46-3.89c3.52,3.82,2.56,10.15,5.55,14.4,7.37,10.44,27.66-1.92,35.55,8.12,2.52,3.22,3.26,8.35,7.16,9.56,3.7,1.15,7.43-2.3,11.28-1.92,2.59.26,4.66,2.18,6.68,3.82a43.82,43.82,0,0,0,25.2,9.72s14.13,6.88-1.87,6.88S131.67,281.91,123.72,254.43Z" transform="translate(0 -0.25)"/><path class="cls-5" d="M132.82,244.74a3.93,3.93,0,0,1,4.08-3.44c.49,0,.48-.72,0-.75a4.69,4.69,0,0,0-4.83,4.19c0,.48.71.48.75,0Z" transform="translate(0 -0.25)"/><path class="cls-5" d="M137.69,250.57v1.86a.38.38,0,0,0,.37.38.39.39,0,0,0,.38-.38v-1.86a.38.38,0,0,0-.38-.37.37.37,0,0,0-.37.37Z" transform="translate(0 -0.25)"/><path class="cls-5" d="M144.4,244.05l.23,2.8a.39.39,0,0,0,.38.37.37.37,0,0,0,.37-.37l-.23-2.8a.38.38,0,1,0-.75,0Z" transform="translate(0 -0.25)"/><path class="cls-5" d="M157.24,242.68a4.38,4.38,0,0,1,1.32,6.25c-.29.37.23.91.53.53a5.13,5.13,0,0,0-1.47-7.42c-.42-.24-.8.41-.38.64Z" transform="translate(0 -0.25)"/><path class="cls-5" d="M151,257.81a2.52,2.52,0,0,0,.45,3.12A5.9,5.9,0,0,0,155,262.3a.39.39,0,0,0,.46-.27.38.38,0,0,0-.26-.46,5.68,5.68,0,0,1-3.07-1.06,1.8,1.8,0,0,1-.45-2.32.4.4,0,0,0-.14-.52.38.38,0,0,0-.51.14Z" transform="translate(0 -0.25)"/><path class="cls-5" d="M178.56,243.2a15.07,15.07,0,0,0,6.2-5.48c.26-.41-.39-.79-.65-.38a14.4,14.4,0,0,1-5.93,5.22c-.43.2-.05.85.38.64Z" transform="translate(0 -0.25)"/><path class="cls-5" d="M190.46,232.6l-1.62,2.1a.39.39,0,0,0,0,.53.37.37,0,0,0,.53,0l1.63-2.1a.39.39,0,0,0,0-.53.4.4,0,0,0-.54,0Z" transform="translate(0 -0.25)"/><path class="cls-5" d="M186.62,243.81a5.28,5.28,0,0,1-2.57,3.95.38.38,0,0,0,.38.65,6.09,6.09,0,0,0,2.94-4.6.38.38,0,0,0-.75,0Z" transform="translate(0 -0.25)"/><path class="cls-5" d="M198.44,259.33a3.42,3.42,0,0,1,2.24-1.47l-.42-.18a4.41,4.41,0,0,1,.59,3,.38.38,0,0,0,.26.46.37.37,0,0,0,.46-.26,5.19,5.19,0,0,0-.67-3.59.38.38,0,0,0-.42-.17,4.2,4.2,0,0,0-2.69,1.82c-.27.41.38.78.65.38Z" transform="translate(0 -0.25)"/><path class="cls-5" d="M204.67,247.8a4.51,4.51,0,0,0,3.06,1,.39.39,0,0,0,.38-.37.38.38,0,0,0-.38-.38,3.77,3.77,0,0,1-2.53-.83.37.37,0,0,0-.53.53Z" transform="translate(0 -0.25)"/><path class="cls-5" d="M206.45,224.41a2.92,2.92,0,0,1,2-1.8,1.46,1.46,0,0,1,1.68,1,.38.38,0,0,0,.46.26.39.39,0,0,0,.27-.46,2.2,2.2,0,0,0-2.4-1.6A3.57,3.57,0,0,0,205.8,224c-.21.43.43.81.65.38Z" transform="translate(0 -0.25)"/><path class="cls-5" d="M219,223.82a6.71,6.71,0,0,1,1.43-.92,6.86,6.86,0,0,1,.79-.32c.17-.06.44-.16.61-.05s.19.37.23.54l.24.94.5,2a.38.38,0,0,0,.73-.2l-.59-2.3c-.15-.59-.23-1.41-.88-1.66a2.58,2.58,0,0,0-1.84.36,7.45,7.45,0,0,0-1.75,1.12.37.37,0,0,0,0,.53.39.39,0,0,0,.53,0Z" transform="translate(0 -0.25)"/><path class="cls-5" d="M214.81,228.41a2.65,2.65,0,0,0,.16,4.38c.42.22.8-.42.37-.65a1.89,1.89,0,0,1-.15-3.08c.4-.26,0-.91-.38-.65Z" transform="translate(0 -0.25)"/><path class="cls-5" d="M217.52,238.13a11.5,11.5,0,0,0,5.08-1.68c.41-.25,0-.9-.37-.64a10.84,10.84,0,0,1-4.71,1.57c-.48,0-.48.79,0,.75Z" transform="translate(0 -0.25)"/><path class="cls-5" d="M232.05,255.34a2.36,2.36,0,0,1,.52-.79,1.47,1.47,0,0,1,.37-.27.66.66,0,0,1,.2-.07l.11,0c.05,0,.06,0,0,0h.18c-.06,0,0,0,.05,0l.1,0,.07,0h0l.21.12c-.06,0,0,0,0,0l.09.09a.64.64,0,0,1,.16.28s0,.14,0,.05v.1c0,.08,0,0,0,0s-.06.13,0,.07a.38.38,0,0,0,.14.51.37.37,0,0,0,.51-.13,1.4,1.4,0,0,0-.72-1.81,1.78,1.78,0,0,0-2.05.46,3.34,3.34,0,0,0-.68,1.09.37.37,0,0,0,.26.46.38.38,0,0,0,.46-.26Z" transform="translate(0 -0.25)"/><path class="cls-5" d="M240,257.23a4,4,0,0,1,2.22-1.59c.62-.08,1.5.28,1.51,1a.38.38,0,0,0,.75,0,2,2,0,0,0-2.09-1.76c-1.22,0-2.16,1-2.93,1.82-.32.35.21.89.54.53Z" transform="translate(0 -0.25)"/><path class="cls-5" d="M231.79,263.49a1.78,1.78,0,0,0,.82,1.83,4.25,4.25,0,0,0,2.46.46,11.6,11.6,0,0,0,5.21-1.41c.43-.23.05-.88-.37-.65a11,11,0,0,1-4.14,1.27,7,7,0,0,1-2.09,0c-.59-.13-1.3-.56-1.16-1.26.09-.47-.63-.68-.73-.2Z" transform="translate(0 -0.25)"/><path class="cls-5" d="M257,230c-.62-.49-1.21.23-1.56.69a2.77,2.77,0,0,0-.62,1.66A1.64,1.64,0,0,0,257,234a.38.38,0,0,0-.38-.65l-.07,0s-.12,0-.07,0h-.12c-.07,0,0,0-.06,0a.83.83,0,0,1-.38-.18,1.08,1.08,0,0,1-.39-.73,1.93,1.93,0,0,1,.34-1.09,4,4,0,0,1,.37-.47,1.2,1.2,0,0,1,.22-.23l.07,0s0,.05-.1,0a.4.4,0,0,0,.53,0,.38.38,0,0,0,0-.53Z" transform="translate(0 -0.25)"/><path class="cls-5" d="M265.3,232.21l.07-.12h0l0-.05.09-.08,0,0,0,0,.22-.13c-.08,0,.05,0,.07,0l.15,0,.14,0c-.09,0,0,0,.05,0h.31s.07,0,0,0h.06l.14,0,.13,0,.06,0h0l.1.06s.14.1.08.05a1.14,1.14,0,0,1,.19.19l0,.06a.83.83,0,0,1,.07.13c0,.06,0,0,0,0l0,.06a.94.94,0,0,1,0,.16s0,.08,0,0,0,0,0,0v.27c0,.06,0-.09,0,0a.25.25,0,0,1,0,.08,2.41,2.41,0,0,1-.08.25c0,.1,0,0,0,0l0,.07a1,1,0,0,1-.08.14.51.51,0,0,1-.09.13l-.06.07a1.14,1.14,0,0,1-.11.11l-.05,0,0,0-.13.08-.07,0s.06,0,0,0l-.16,0h-.11a.38.38,0,0,0-.37.37.38.38,0,0,0,.37.38,2.05,2.05,0,0,0,1.79-2.16,1.68,1.68,0,0,0-.77-1.32,2.08,2.08,0,0,0-1.46-.3,1.88,1.88,0,0,0-1.35.89.38.38,0,0,0,.13.51.39.39,0,0,0,.52-.13Z" transform="translate(0 -0.25)"/><path class="cls-5" d="M255.59,239.25a1.28,1.28,0,0,0,.86,2c1.27.24,2.43-1.26,3.42-1.81a7.24,7.24,0,0,1,1.17-.53.93.93,0,0,1,1.15.33,2.75,2.75,0,0,0,1.68.76,26.86,26.86,0,0,0,5.14.39.38.38,0,0,0,0-.75,25.8,25.8,0,0,1-4.21-.25,4.37,4.37,0,0,1-1.85-.47c-.38-.27-.56-.72-1.05-.85-1-.24-2.25.59-3,1.09-.49.33-.92.75-1.42,1.07a1.28,1.28,0,0,1-.88.27c-.25,0-.76-.43-.48-.74s-.21-.89-.53-.53Z" transform="translate(0 -0.25)"/><path class="cls-5" d="M237.1,244.38h.06l.15,0,.26.07.27.09.06,0s0,0,0,0l.13.06a5.5,5.5,0,0,1,.48.28l.11.08s0,0,0,0l.05,0a2.09,2.09,0,0,1,.22.2.37.37,0,1,0,.53-.53,3.89,3.89,0,0,0-2.33-1.1.38.38,0,0,0-.38.38.38.38,0,0,0,.38.37Z" transform="translate(0 -0.25)"/><path class="cls-5" d="M241.66,235.3l3.27.66a.39.39,0,0,0,.46-.26.37.37,0,0,0-.26-.46l-3.27-.66a.39.39,0,0,0-.47.26.38.38,0,0,0,.27.46Z" transform="translate(0 -0.25)"/><path class="cls-5" d="M247.27,243.06l1.15,2.11a.38.38,0,0,0,.65-.38l-1.15-2.11a.38.38,0,0,0-.65.38Z" transform="translate(0 -0.25)"/><path class="cls-5" d="M303.44,255.37a4.69,4.69,0,0,1,.21-.48,4.12,4.12,0,0,1,.27-.45,1.36,1.36,0,0,1,.7-.55h.32l.1,0s.14.06.07,0l.19.11h0l0,0,.06.07.05,0s0,0,0,0l.05.08c0-.07,0,0,0,0s0,0,0,.06,0-.05,0,0a.28.28,0,0,1,0,.09c0-.09,0,0,0,.06a.38.38,0,0,0,.26.46.37.37,0,0,0,.46-.26,1.28,1.28,0,0,0-1-1.52,1.8,1.8,0,0,0-1.89.86,6,6,0,0,0-.57,1.13.38.38,0,0,0,.73.2Z" transform="translate(0 -0.25)"/><path class="cls-5" d="M313.17,254.73a2.48,2.48,0,0,1,1.94-1.47,2.44,2.44,0,0,1,2.24,1c.28.39.93,0,.65-.38a3.15,3.15,0,0,0-5.48.45.4.4,0,0,0,.14.52.37.37,0,0,0,.51-.14Z" transform="translate(0 -0.25)"/><path class="cls-5" d="M303.52,263.06A14.3,14.3,0,0,0,308,264.7a10.43,10.43,0,0,0,4.67-.41,15.34,15.34,0,0,0,7.27-5.44c.29-.38-.24-.91-.53-.53a14.89,14.89,0,0,1-6.68,5.16,10,10,0,0,1-4.27.53,13.26,13.26,0,0,1-4.6-1.59c-.42-.22-.8.42-.37.64Z" transform="translate(0 -0.25)"/><path class="cls-5" d="M337.17,256.3a1.44,1.44,0,0,0,.62,1.59.38.38,0,0,0,.38-.65l-.08-.05.07.06a1.62,1.62,0,0,1-.18-.19l.06.08a1.49,1.49,0,0,1-.14-.24l0,.09a.9.9,0,0,1-.07-.27v.1a1.31,1.31,0,0,1,0-.28l0,.1a1,1,0,0,1,0-.14.38.38,0,0,0-.73-.2Z" transform="translate(0 -0.25)"/><path class="cls-5" d="M346.62,263.11a2,2,0,0,1,2.67.71c.23.43.88.05.65-.38a2.72,2.72,0,0,0-3.7-1c-.41.25,0,.9.38.65Z" transform="translate(0 -0.25)"/><path class="cls-5" d="M359.93,264.69a5.5,5.5,0,0,1-2.84.65.38.38,0,0,0-.37.38.37.37,0,0,0,.37.37,6.22,6.22,0,0,0,3.22-.75c.42-.23.05-.88-.38-.65Z" transform="translate(0 -0.25)"/><path class="cls-5" d="M330.55,264.28a5.9,5.9,0,0,0,5.25,1,.37.37,0,0,0-.2-.72,5.09,5.09,0,0,1-4.52-.84.4.4,0,0,0-.53,0,.38.38,0,0,0,0,.53Z" transform="translate(0 -0.25)"/><path class="cls-5" d="M327.86,257.7l1.4.25a.41.41,0,0,0,.29,0,.44.44,0,0,0,.17-.23.39.39,0,0,0-.26-.46l-1.4-.25a.42.42,0,0,0-.29,0,.37.37,0,0,0,.09.68Z" transform="translate(0 -0.25)"/><path class="cls-5" d="M280.58,239.81a3.55,3.55,0,0,0,4.91,1.27c.4-.27,0-.92-.38-.65a2.8,2.8,0,0,1-3.89-1c-.22-.43-.87-.05-.64.38Z" transform="translate(0 -0.25)"/><path class="cls-5" d="M270.74,253.13v1.17a.38.38,0,0,0,.37.37.38.38,0,0,0,.38-.37v-1.17a.38.38,0,0,0-.38-.37.38.38,0,0,0-.37.37Z" transform="translate(0 -0.25)"/><path class="cls-5" d="M277.58,252.74a3.17,3.17,0,0,1,.12.44c0,.08,0,.16.05.24,0-.09,0,0,0,0a.57.57,0,0,1,0,.13,3.38,3.38,0,0,1,0,.45,1.64,1.64,0,0,1,0,.22c0,.09,0,0,0,0l0,.14a.39.39,0,0,0,.27.46.39.39,0,0,0,.46-.26,4,4,0,0,0-.15-2.09.37.37,0,0,0-.72.2Z" transform="translate(0 -0.25)"/><path class="cls-5" d="M288.87,249a6.26,6.26,0,0,1,.24,3.35.38.38,0,0,0,.73.2,7.13,7.13,0,0,0-.25-3.75.38.38,0,0,0-.46-.27.39.39,0,0,0-.26.47Z" transform="translate(0 -0.25)"/><path class="cls-5" d="M263.52,262.06a2.45,2.45,0,0,0-.42,2.41A2.33,2.33,0,0,0,265,266a2.48,2.48,0,0,0,1.42-.2.39.39,0,0,0,.14-.52.39.39,0,0,0-.52-.13,1.64,1.64,0,0,1-1.95-2.52.37.37,0,0,0-.53-.53Z" transform="translate(0 -0.25)"/><path class="cls-5" d="M283.34,261.46a2.36,2.36,0,0,1,3,1.32.39.39,0,0,0,.47.26.38.38,0,0,0,.26-.46,3.14,3.14,0,0,0-4-1.85.38.38,0,0,0,.2.73Z" transform="translate(0 -0.25)"/><path class="cls-5" d="M218.54,253.68a6,6,0,0,1,4.81-2.21.38.38,0,0,0,0-.75,6.71,6.71,0,0,0-5.34,2.43.37.37,0,1,0,.53.53Z" transform="translate(0 -0.25)"/><path class="cls-5" d="M176.35,258.83a3.52,3.52,0,0,0,5.21,2c.39-.28,0-.93-.38-.65a2.76,2.76,0,0,1-4.1-1.59c-.11-.47-.83-.27-.73.2Z" transform="translate(0 -0.25)"/><path class="cls-5" d="M303.84,242.12a.52.52,0,0,0,.13-.06.54.54,0,0,0,.15-.15.31.31,0,0,0,.05-.12.5.5,0,0,0,0-.12v0a.61.61,0,0,0-.43-.56.32.32,0,0,0-.14,0h-.14l-.14.06-.06,0a.48.48,0,0,0-.11.09l-.1.12a1,1,0,0,0-.08.14l-.09.23a.67.67,0,0,0,0,.2.34.34,0,0,0,.1.16l.12.09.15.07a.64.64,0,0,0,.2,0,.84.84,0,0,0,.41-.11,1.09,1.09,0,0,0,.27-.21,1,1,0,0,0,.19-.38.86.86,0,0,0,0-.32s0,0,0-.06a.69.69,0,0,0-.07-.15.36.36,0,0,0-.23-.17.34.34,0,0,0-.28,0,.41.41,0,0,0-.18.23.42.42,0,0,0,0,.29.08.08,0,0,1,0,0l0-.09a.29.29,0,0,1,0,.09v-.11a.35.35,0,0,1,0,.11l0-.09a.75.75,0,0,1-.07.12l.06-.08a.57.57,0,0,1-.11.11l.08-.06-.13.07.09,0-.12,0,.1,0h0l-.08,0,.09,0-.08,0,.08.06h0l.1.37a.58.58,0,0,1,.05-.14l0,.09a.46.46,0,0,1,.09-.15l-.06.07.06-.07-.07.06.06,0-.09,0h0l-.1,0,0,0-.09,0s0,0,0,0l-.08-.06.05,0-.06-.07,0,.06,0-.09a.06.06,0,0,1,0,0v-.13l0-.09a0,0,0,0,1,0,0l.06-.08,0,0,.08-.06h0l.09,0h0a.38.38,0,0,0-.26.46.38.38,0,0,0,.17.22.38.38,0,0,0,.29,0Z" transform="translate(0 -0.25)"/><path class="cls-5" d="M308.49,242.55l.13,0h.07a1,1,0,0,1,.28.08l-.09,0a1,1,0,0,1,.24.14l-.07-.06a1.62,1.62,0,0,1,.18.19l-.06-.08.06.08a.37.37,0,1,0,.64-.38,1.44,1.44,0,0,0-1.57-.63.38.38,0,0,0-.27.46.37.37,0,0,0,.46.26Z" transform="translate(0 -0.25)"/><path class="cls-5" d="M316.17,245.38a.47.47,0,0,0-.45-.35h-.09l-.09,0a.65.65,0,0,0-.23.13.57.57,0,0,0-.14.54,1,1,0,0,0,.24.42.36.36,0,0,0,.37.09l.64-.19a.38.38,0,0,0,.26-.46.38.38,0,0,0-.17-.22.37.37,0,0,0-.29,0l-.64.19.36.1,0-.06.06.08a.64.64,0,0,1-.08-.14l0,.09a.24.24,0,0,1,0-.08v.1l0,.09s0,0,0,0l-.06.08,0,0-.07.06,0,0-.09,0,0,0h-.12l-.09,0h0l-.08-.05h0l-.06-.08v0l0-.09v0a.39.39,0,0,0,.17.23.48.48,0,0,0,.29,0,.39.39,0,0,0,.26-.47Z" transform="translate(0 -0.25)"/><path class="cls-2" d="M280,275.47c-1.68-10.43,6.79-20.35,5.05-30.78-1.91-11.53-15.9-16-23.8-24.61a27.37,27.37,0,0,1-6.68-22.87c4.82-1.35,8.21,4.48,10.39,9a53.62,53.62,0,0,0,14.94,18.67c2.14,1.69,4.67,3.29,7.38,3,4.52-.48,6.87-6.14,5.76-10.55s-4.47-7.81-7.46-11.23A92.46,92.46,0,0,1,263,144c0-2.43.27-5,1.84-6.89,3.43-4,10.62-1.1,12.75,3.75s1.07,10.41.84,15.7a49.11,49.11,0,0,0,13.76,36c3.48,3.56,7.67,6.81,9.3,11.52,1.59,4.56.75,10.34,4.36,13.55,4.66,4.15,12.73-.65,13.77-6.81s-2.45-12.09-6.09-17.16-7.76-10.31-8.23-16.53c-.59-7.8,4.7-14.75,10.23-20.29,2.46-2.47,5.67-5,9.06-4.21,5.36,1.29,5.38,9.21,2.56,13.94s-7.34,9.09-7.11,14.59a14.94,14.94,0,0,0,1.29,5c3.14,7.74,8.48,14.52,10.85,22.53s.5,18.38-7.14,21.75c-2.91,1.28-6.23,1.35-9.19,2.49-5.78,2.23-9.36,8.32-10.34,14.44s.19,12.35,1.36,18.44c0,0,1.87,9.17-.13,10.17s-14,1-14,1S280.27,277,280,275.47Z" transform="translate(0 -0.25)"/><path class="cls-3" d="M266.7,140.59a5.09,5.09,0,0,1-.3,1.24,5.25,5.25,0,0,1-.25.55c-.11.2-.23.39-.36.58a.37.37,0,0,0,.13.51.4.4,0,0,0,.52-.13,5.78,5.78,0,0,0,1-2.75.37.37,0,0,0-.37-.37.38.38,0,0,0-.38.37Z" transform="translate(0 -0.25)"/><path class="cls-3" d="M273.49,140.45a2.45,2.45,0,0,1,1.2,1.05,2.36,2.36,0,0,1,.3.75,2.44,2.44,0,0,1,.05.39c0,.13,0,.32,0,.4a.4.4,0,0,0,.26.47.39.39,0,0,0,.46-.27,3.23,3.23,0,0,0-2.05-3.51.37.37,0,1,0-.2.72Z" transform="translate(0 -0.25)"/><path class="cls-3" d="M270.64,145v1.63a.38.38,0,0,0,.75,0V145a.38.38,0,0,0-.38-.38.38.38,0,0,0-.37.38Z" transform="translate(0 -0.25)"/><path class="cls-3" d="M267.84,152.71v2.09a.38.38,0,0,0,.38.38.38.38,0,0,0,.37-.38v-2.09a.38.38,0,0,0-.37-.38.39.39,0,0,0-.38.38Z" transform="translate(0 -0.25)"/><path class="cls-3" d="M274.42,157.09l.7,1.4a.37.37,0,1,0,.64-.38l-.69-1.4a.38.38,0,0,0-.52-.13.37.37,0,0,0-.13.51Z" transform="translate(0 -0.25)"/><path class="cls-6" d="M313.63,128.35a34.49,34.49,0,0,1,6.53,2.4c5.67,2.66,11.52,6,18.89,5.9a5.48,5.48,0,0,0,2.45-.44,1.92,1.92,0,0,0,.88-1.23,28.36,28.36,0,0,0,1-13.57,10.3,10.3,0,0,0-7.8-8.79,24.24,24.24,0,0,0-9.59-.37c-10.61,1.46-18.37,7.79-17.06,13.93A15.49,15.49,0,0,0,313.63,128.35Z" transform="translate(0 -0.25)"/><path class="cls-6" d="M316.38,127.24c1.41,5-4.85,8.43-9.08,7.87-1.06-.14-1.58,1.07-1.44,1.9a18.74,18.74,0,0,1-2.76,13.06c-1,1.64,1.57,3.15,2.6,1.51a21.91,21.91,0,0,0,3.05-15.37l-1.45,1.9c6.27.83,13.89-4.83,12-11.67a1.5,1.5,0,0,0-2.89.8Z" transform="translate(0 -0.25)"/><path class="cls-6" d="M323.42,131.14c-.29-.22,0-.21-.25,0a2.13,2.13,0,0,0-.27.52c-.25.41-.54.79-.81,1.19a7.74,7.74,0,0,0-1.18,2.88,18.3,18.3,0,0,0,.33,6.51c.49,2.86.78,7.16-2.64,8.33-1.82.63-1,3.53.8,2.9,4.69-1.62,5.61-6.61,4.91-11-.39-2.39-1.2-5.24,0-7.52a18,18,0,0,0,1.8-3.13,2.85,2.85,0,0,0-1.17-3.29c-1.55-1.16-3,1.44-1.52,2.59Z" transform="translate(0 -0.25)"/><path class="cls-6" d="M331.32,131.16a5.14,5.14,0,0,0-4.14,5.67c.27,3.3,3.13,5.25,5.35,7.32a7.87,7.87,0,0,1,2.83,7.16,8.81,8.81,0,0,1-4.63,6.34c-1.69.93-.18,3.52,1.52,2.59,4.88-2.66,7.61-8.71,5.44-14-1.21-3-3.77-4.61-5.94-6.82a4.22,4.22,0,0,1-1.58-3.41,2.07,2.07,0,0,1,1.95-1.94c1.9-.27,1.09-3.16-.8-2.89Z" transform="translate(0 -0.25)"/><ellipse class="cls-7" cx="335.12" cy="115.85" rx="1.51" ry="4.76" transform="translate(116.95 395.12) rotate(-71.1)"/><g class="cls-8"><path class="cls-9" d="M322.07,115.31c-.17.58.5,1.11,1,1.5a7.15,7.15,0,0,0,2.1,1.15,4,4,0,0,0,2.38.06.5.5,0,0,0,.25-.15.36.36,0,0,0,0-.35c-.34-.69-1.56-.77-1.72-1.5-.1-.4.19-.82.06-1.21a.9.9,0,0,0-.66-.51,2.37,2.37,0,0,0-.88,0,7.36,7.36,0,0,0-1.47.45S322.21,114.83,322.07,115.31Z" transform="translate(0 -0.25)"/></g><g class="cls-8"><path class="cls-9" d="M328.87,117a.38.38,0,0,0,0-.75.38.38,0,0,0,0,.75Z" transform="translate(0 -0.25)"/></g><g class="cls-8"><path class="cls-9" d="M330.34,118.42a.38.38,0,0,0,0-.75.38.38,0,0,0,0,.75Z" transform="translate(0 -0.25)"/></g><g class="cls-8"><path class="cls-9" d="M333.39,119.41a12.43,12.43,0,0,0,3,.91,4,4,0,0,0,1.78.16c.24,0,.47-.15.71-.22a2.85,2.85,0,0,1,.65-.11,1,1,0,0,1,.64.1,1,1,0,0,1,.39.75,1.28,1.28,0,0,1-.07.84,1.14,1.14,0,0,1-.59.49,4.13,4.13,0,0,1-1.92.19l-2.1-.11c-.38,0-.76,0-1.13-.09a2,2,0,0,1-.81-.27,2.73,2.73,0,0,1-.35-.33l-.49-.56a4.27,4.27,0,0,1-.85-1.28S331.58,118.44,333.39,119.41Z" transform="translate(0 -0.25)"/></g><path class="cls-6" d="M399.75,169.26c1.31.92,2.94,1.21,4.36,1.92,5.27,2.64,6.36,10.23,11.5,13.11a23.23,23.23,0,0,0,11-19.87c-.13-7.21-5.11-15-12.33-15.26-6.78-.22-11.86,5.88-15.82,11.38-.66.92-1.33,2.15-.73,3.1,0,0,.09,1.61.11,2.89S399.75,169.26,399.75,169.26Z" transform="translate(0 -0.25)"/><path class="cls-6" d="M407.88,166.08a9,9,0,0,0-11.5,1.71c-1.6,2-2.19,4.41-3.07,6.74-.63,1.67-1.89,3.87-3.9,4s-1.93,3.11,0,3a7.07,7.07,0,0,0,5.43-3.41c1.31-1.93,1.74-4.24,2.64-6.35a6.17,6.17,0,0,1,3.88-3.76,6,6,0,0,1,5,.68c1.63,1.05,3.13-1.55,1.51-2.59Z" transform="translate(0 -0.25)"/><path class="cls-6" d="M408,171c-2.5-.94-5.11.72-6.34,2.88-1.52,2.67-.79,5.77-1,8.67a6.17,6.17,0,0,1-.87,2.86,3.18,3.18,0,0,1-2.82,1.32,6.83,6.83,0,0,0-3.69,1,3.54,3.54,0,0,0-1.52,3.56,1.5,1.5,0,1,0,2.89-.8c0,.18,0,0,.08-.06a1.87,1.87,0,0,1,.49-.4,3.19,3.19,0,0,1,1.29-.29A9.71,9.71,0,0,0,400,189a6.78,6.78,0,0,0,3.34-4.86c.5-2.4-.07-4.84.33-7.24.25-1.58,1.55-3.79,3.46-3.08A1.5,1.5,0,0,0,408,171Z" transform="translate(0 -0.25)"/><path class="cls-6" d="M415.16,178a7.63,7.63,0,0,0-7,1.92,7.38,7.38,0,0,0-2.12,7.15c.53,2.54,2.34,5.19,1.28,7.83-1,2.41-3.48,4-5.57,5.33-1.62,1-.12,3.64,1.51,2.6a20.69,20.69,0,0,0,5.75-4.9,8.32,8.32,0,0,0,1.28-7.26c-.58-2.26-2.23-4.87-1.09-7.2a4.71,4.71,0,0,1,5.15-2.58c1.87.45,2.67-2.44.8-2.89Z" transform="translate(0 -0.25)"/><g class="cls-8"><path class="cls-9" d="M420.79,159.49c.09.21.49.14.72.08a2.82,2.82,0,0,0,.89-.55,1,1,0,0,1,1-.13.75.75,0,0,1,.22.87,2.67,2.67,0,0,0-.24.91,2.7,2.7,0,0,0,.08.39,3.18,3.18,0,0,1,0,1.19,1.26,1.26,0,0,1-.15.45,1.17,1.17,0,0,1-1,.44,3.88,3.88,0,0,1-1.16-.29,2.25,2.25,0,0,1-.8-.41.59.59,0,0,1-.15-.74c.08-.11.23-.23.16-.36a.34.34,0,0,0-.16-.12c-.56-.29-1.13-.71-1.2-1.28,0-.24.12-.54.39-.52C419.4,159.42,420.39,158.57,420.79,159.49Z" transform="translate(0 -0.25)"/></g><g class="cls-8"><path class="cls-9" d="M423.34,166.89A1.43,1.43,0,0,1,423,166c0-.28.06-.65.34-.68.12,0,.25,0,.37,0s.32-.41.55-.5a.42.42,0,0,1,.41.11.84.84,0,0,1,.19.39,1.37,1.37,0,0,1,0,.75S424.43,167.83,423.34,166.89Z" transform="translate(0 -0.25)"/></g><g class="cls-8"><path class="cls-9" d="M413.79,151.15s.73-.56,1.48.43c.55.72,1.68.53,2.5.85a7.54,7.54,0,0,1,4,3.88,1.45,1.45,0,0,1,.15,1.07c-.23.59-1.08.59-1.56.2a8.87,8.87,0,0,1-1.15-1.48,7.18,7.18,0,0,0-3.05-1.76,4.14,4.14,0,0,1-2.61-2.29.94.94,0,0,1,0-.66.39.39,0,0,1,.52-.23" transform="translate(0 -0.25)"/></g><path class="cls-10" d="M202.6,39.62c.24,2.41.34,5.22-1.41,6.75-1.23,1.09-3,1.17-4.44,2-1.82,1.09-2.81,3.35-4.74,4.22a7.8,7.8,0,0,1-2.89.52l-7.63.42c3.26-5,9.46-6.88,13.7-11a5.2,5.2,0,0,0,1.37-1.94,2.34,2.34,0,0,0-.39-2.31Z" transform="translate(0 -0.25)"/><path class="cls-10" d="M228,37.82c.45,1.34,2,2,3.35,2.24s2.89.34,4,1.16a4.77,4.77,0,0,1,1.43,5.14A11.4,11.4,0,0,1,233.66,51a26.18,26.18,0,0,0-3.82,4.2c-1,1.49-1.49,3.22-2.42,4.72a19.32,19.32,0,0,1-5.73,5.36c-3.47,2.4-7.18,4.68-11.35,5.39-.29,0-.67,0-.8-.21s0-.53.21-.75l3.67-4.83a11.92,11.92,0,0,1,1.43-1.66,12.66,12.66,0,0,0,1.21-1.09c.89-1,1.05-2.51,1.85-3.61a10.5,10.5,0,0,1,1.69-1.64,24,24,0,0,0,4.27-5.7L226,47.69a2.77,2.77,0,0,0,.53-1.47,2.39,2.39,0,0,0-.34-1,13.36,13.36,0,0,0-2.65-3.51c-.35-.34-.73-.92-.37-1.24Z" transform="translate(0 -0.25)"/><path class="cls-11" d="M232.16,31.65c2.06-1.35,3.58-2.56,3.58-2.56,4-2.84,7.55-6.62,11.42-9.74,5.75-4.63,14.16-7.88,20.3-3.8,3.28,2.17,5.11,6,6,9.82,1.21,5.48.1,12.24-4.84,14.89-8.9,4.8-20.59-7.61-29.15-2.22-2.45,1.54-3.9,4.24-5.88,6.35a16.5,16.5,0,0,1-16.19,4.54c-5-1.39-9.23-5.13-14.22-5.93l.43-2.67c9.17,1.37,18.34-2.57,26.84-6.43a2.85,2.85,0,0,0,1.65-1.32,1.85,1.85,0,0,0,.09-.93Z" transform="translate(0 -0.25)"/><path class="cls-12" d="M226,32.45a13.61,13.61,0,0,1-4.75-7.65A11.34,11.34,0,0,0,220.15,21a4.26,4.26,0,0,0-6-1l-.29.25c-1.52,1.52,1.26,7.62,0,5.85-1-1.4-1.82,0-1.91.46-.36,1.73-.93,3.55.28,4.76s2.77,1.16,4.3,1.16ZM232,31c-.1,2-9.89,5.08-14.87,7.12s-16,1.1-18,.12-6-2-10-3.94-12.72-2.64-12.72-2.64a6.47,6.47,0,0,1,.09-1.68C178,20.41,182,11,189.59,5c3.16-2.49,6.89-4.48,10.9-4.74,5.56-.36,10.82,2.57,15.1,6.11a51.65,51.65,0,0,1,16.33,24.33c0,.08.05.16.08.25ZM206.8,23c1.93-1.47,2.23-4.39,1.31-6.63A10.54,10.54,0,0,0,205.72,13c-2.27-2.2-1.59,1.53-1.59,1.53a6.19,6.19,0,0,1-.14,1.61A13.73,13.73,0,0,1,201.18,21C201.38,23.44,204.87,24.5,206.8,23Zm-5.9,7.17c-2.83-.46-3.85-3.94-4.43-6.77a14.48,14.48,0,0,0-2.18-4.83c-1.72-2.65-4.69,1.25-4.69,1.25-1.74,2.62-.32,6.41,2.26,8.21S197.76,30.16,200.9,30.2Z" transform="translate(0 -0.25)"/><path class="cls-13" d="M211.92,26.53c.09-.45.89-1.86,1.91-.46,1.27,1.77-1.51-4.33,0-5.85l.29-.25a4.26,4.26,0,0,1,6,1,11.34,11.34,0,0,1,1.08,3.79A13.61,13.61,0,0,0,226,32.45H216.5c-1.53,0-3.23-.07-4.3-1.16S211.56,28.26,211.92,26.53Z" transform="translate(0 -0.25)"/><path class="cls-13" d="M205.72,13a10.54,10.54,0,0,1,2.39,3.45c.92,2.24.62,5.16-1.31,6.63s-5.42.41-5.62-2A13.73,13.73,0,0,0,204,16.09a6.19,6.19,0,0,0,.14-1.61S203.45,10.75,205.72,13Z" transform="translate(0 -0.25)"/><path class="cls-13" d="M196.47,23.43c.58,2.83,1.6,6.31,4.43,6.77-3.14,0-6.46-.33-9-2.14s-4-5.59-2.26-8.21c0,0,3-3.9,4.69-1.25A14.48,14.48,0,0,1,196.47,23.43Z" transform="translate(0 -0.25)"/><path class="cls-11" d="M179.16,33.07c8.14,0,15.47,5.65,23.59,7.13.27,0,.54.1.81.13L203.13,43a13.47,13.47,0,0,0-1.57-.14c-3.43-.09-7.37,1.29-9.95-1a7.79,7.79,0,0,1-1.6-2.13c-.29-.53-.58-1.08-.9-1.59,0,0-2-1.89-4-1.87S179.24,34.8,179.16,33.07Z" transform="translate(0 -0.25)"/><path class="cls-14" d="M203.56,40.33c-.27,0-.54-.08-.81-.13-8.12-1.48-15.45-7.17-23.59-7.13-.43,0-.88,0-1.32.06,0,0-1.26.28-1.45-1.49,0,0,8.7.67,12.72,2.64s8,2.95,10,3.94,13,1.91,18-.12S231.9,33,232,31a3.07,3.07,0,0,1,.14.67,1.85,1.85,0,0,1-.09.93,2.85,2.85,0,0,1-1.65,1.32C221.9,37.76,212.73,41.7,203.56,40.33Z" transform="translate(0 -0.25)"/><path class="cls-15" d="M220.92,42.3c-.15,1.4,1,2.62,2.09,3.45s2.47,1.52,3.16,2.75a4.76,4.76,0,0,1-.87,5.26,11.38,11.38,0,0,1-4.82,2.9,25.44,25.44,0,0,0-5.24,2.19c-1.49.95-2.71,2.29-4.19,3.26a19.43,19.43,0,0,1-7.45,2.44c-4.16.71-8.49,1.21-12.56.09-.29-.08-.63-.23-.65-.53s.27-.46.51-.59l5.37-2.83a12.36,12.36,0,0,1,2-.9,12.21,12.21,0,0,0,1.56-.48c1.24-.55,2-1.82,3.19-2.49a11.53,11.53,0,0,1,2.23-.77,24.09,24.09,0,0,0,6.28-3.36l3.41-2.29a2.67,2.67,0,0,0,1.1-1.11,2.38,2.38,0,0,0,.11-1,13.51,13.51,0,0,0-.92-4.31c-.18-.45-.28-1.13.19-1.27Z" transform="translate(0 -0.25)"/><path class="cls-15" d="M196,40.57c-.62,2.35-1.5,5-3.66,5.84-1.54.59-3.26,0-4.87.34-2.08.39-3.8,2.17-5.91,2.32a8,8,0,0,1-2.89-.52l-7.3-2.26c4.79-3.56,11.26-3.16,16.67-5.56a5.14,5.14,0,0,0,2-1.33,2.36,2.36,0,0,0,.45-2.31Z" transform="translate(0 -0.25)"/><path class="cls-13" d="M186.28,18.26a3.9,3.9,0,0,1,1.82-3.35,4.44,4.44,0,0,1,3.76-.63A11.71,11.71,0,0,0,194,15a2.47,2.47,0,0,0,2.38-3.65l-3.16.07a3.77,3.77,0,0,1-1.06-.08,7.18,7.18,0,0,1-1.15-.56,4,4,0,0,0-4.29.53,7.85,7.85,0,0,0-1.45,1.84l-2.69,4.21a3.54,3.54,0,0,0-.81,2.5A2.15,2.15,0,0,0,184,21.4,2.57,2.57,0,0,0,186.28,18.26Z" transform="translate(0 -0.25)"/><path class="cls-13" d="M206.87,4.69c.76.34,1.67.29,2.34.78a5.42,5.42,0,0,1,.95,1A7.6,7.6,0,0,0,212.81,9a20.8,20.8,0,0,0,2.61.67,4.65,4.65,0,0,1,2.64,2,3.5,3.5,0,0,1,.24,3.22,2.84,2.84,0,0,1-2.68,1.66,19.24,19.24,0,0,1-2.05-.52c-.85-.15-1.85,0-2.45-.66a4,4,0,0,1-.66-1.67c-.47-1.47-1.81-2.47-3.08-3.36a4.81,4.81,0,0,0-2.31-1.07,10.9,10.9,0,0,0-1.79.2A1.89,1.89,0,0,1,201.62,9a1.75,1.75,0,0,1-.37-.79,3.31,3.31,0,0,1,.31-2.37,2.43,2.43,0,0,1,2-1.22A7.9,7.9,0,0,1,206.87,4.69Z" transform="translate(0 -0.25)"/><path d="M264.89,22.11l-2.24.19a.38.38,0,0,0-.32.56,2,2,0,0,0,2.88.46.36.36,0,0,0,.09-.36,5.18,5.18,0,0,0-1.47-2.91,8.3,8.3,0,0,0-.64-.54,2.7,2.7,0,0,0-.73-.43c-.27-.07-.64.19-.85.34a2.66,2.66,0,0,0-.6.56,3,3,0,0,0-.66,1.75c0,.48.73.48.75,0a2.17,2.17,0,0,1,1.36-1.92l-.29,0a4.53,4.53,0,0,1,2.41,3.39l.1-.37a1.24,1.24,0,0,1-1.7-.31l-.33.57,2.24-.19a.39.39,0,0,0,.38-.38.38.38,0,0,0-.38-.37Z" transform="translate(0 -0.25)"/><path d="M270,33a7.73,7.73,0,0,1-8-4.67c-.17-.44-.9-.25-.72.2A8.46,8.46,0,0,0,270,33.73c.47-.06.47-.81,0-.75Z" transform="translate(0 -0.25)"/><g class="cls-16"><path class="cls-13" d="M232.64,35.4a2.52,2.52,0,0,0,2-1.25.39.39,0,0,0-.13-.52.4.4,0,0,0-.52.14,1.37,1.37,0,0,1-.13.2c0,.06,0,0,0,0l0,0a.73.73,0,0,1-.08.09,1.29,1.29,0,0,1-.17.16l0,0c-.05.05,0,0,0,0l-.1.07-.2.11-.11.06c-.06,0,0,0,0,0l-.06,0-.23.07-.11,0h-.06a.47.47,0,0,0-.26.11.36.36,0,0,0-.11.27c0,.18.16.4.37.37Z" transform="translate(0 -0.25)"/></g><g class="cls-16"><path class="cls-13" d="M220.78,41.51l.06,0-.09,0a.55.55,0,0,1,.17-.05h.1l-.1,0,.19.05-.09,0a.65.65,0,0,1,.16.09l-.08-.06a.34.34,0,0,1,.12.12l-.06-.08a.21.21,0,0,1,.06.1.38.38,0,0,0,.65-.38,1.1,1.1,0,0,0-1.47-.42.4.4,0,0,0-.14.52.39.39,0,0,0,.52.13Z" transform="translate(0 -0.25)"/></g><g class="cls-16"><path class="cls-13" d="M214.76,41.16a1.58,1.58,0,0,0-.92.66.37.37,0,0,0,0,.29.37.37,0,0,0,.17.22.36.36,0,0,0,.29,0,.46.46,0,0,0,.22-.17l0-.07-.06.07a1.39,1.39,0,0,1,.21-.21l-.07.06a1.35,1.35,0,0,1,.26-.15l-.09,0,.16,0a.36.36,0,0,0,.23-.17.37.37,0,0,0,0-.29.41.41,0,0,0-.18-.23.39.39,0,0,0-.28,0Z" transform="translate(0 -0.25)"/></g><path class="cls-17" d="M147.22,146.65a18.1,18.1,0,0,0-.45,6.51c.18,3.34,1.2,6.4,4,8a10,10,0,0,0,6.88.68c11-2.16,18.79-14.41,16.15-25.26-1.81-7.43-9.59-14-16.84-11.51-5.22,1.76-7.88,7-9,12.68a36.51,36.51,0,0,0-.64,5.63A7.57,7.57,0,0,1,147.22,146.65Z" transform="translate(0 -0.25)"/><g class="cls-18"><path class="cls-19" d="M157.66,161.82a21,21,0,0,0,14.16-11.06,20.32,20.32,0,0,1-11.7,7.33,10.09,10.09,0,0,1-6.88-.68c-2.81-1.59-3.83-4.65-4-8a17.86,17.86,0,0,1,.45-6.51,7.62,7.62,0,0,0,.11-3.3,36.65,36.65,0,0,1,.64-5.63,24.55,24.55,0,0,1,1.88-5.83,20,20,0,0,0-4.34,9.57,36.51,36.51,0,0,0-.64,5.63,7.57,7.57,0,0,1-.11,3.29,18.1,18.1,0,0,0-.45,6.51c.18,3.34,1.2,6.4,4,8A10,10,0,0,0,157.66,161.82Z" transform="translate(0 -0.25)"/></g><g class="cls-20"><path d="M161.49,155.36a10.53,10.53,0,0,1-3.31,1.12,7.65,7.65,0,0,1-3.58-.18,4.41,4.41,0,0,1-1.64-1,3.9,3.9,0,0,1-1-1.61,6,6,0,0,1,.07-3.53,9.3,9.3,0,0,0,.65,3.24,3.58,3.58,0,0,0,2.23,1.91,8.88,8.88,0,0,0,3.2.35A33.35,33.35,0,0,0,161.49,155.36Z" transform="translate(0 -0.25)"/></g><g class="cls-21"><path class="cls-22" d="M170.06,141.32a22.12,22.12,0,0,0-2.29-4.27,12.72,12.72,0,0,0-3.13-3.27,5.31,5.31,0,0,0-1.89-.75,17.1,17.1,0,0,0-1.9-.31,32.12,32.12,0,0,0-4.64,0l-.14-.27a6.29,6.29,0,0,1,2-1.83,6.52,6.52,0,0,1,2.72-.88,5.38,5.38,0,0,1,2.94.52,9.94,9.94,0,0,1,2.37,1.68,12.57,12.57,0,0,1,3,4.42,19.46,19.46,0,0,1,1.26,4.92Z" transform="translate(0 -0.25)"/></g><path class="cls-17" d="M121.84,133.8c1.71-4.25,2.66-9.15,4.62-13,3.06-6,7.76-10.32,11.73-8.53,1.36.61,2.55,1.88,3.9,2.53,3.17,1.54,7.12-.78,9.59-5.62A27.27,27.27,0,0,0,153.75,92c-1.25-5.25-4.2-8.25-7.11-10.69-5-4.23-10.83-7.64-16.75-4.69s-11.41,14.74-9.66,24.25c.33,1.81.9,3.44,1.11,5.34.58,5.21-1.68,11-4.36,14.48s-5.81,5.51-8.62,8.63A28.38,28.38,0,0,0,102,141.49c-1.23,5.08-1,11.1,1,14.44a8.14,8.14,0,0,0,4.65,3.5c2.06.72,4.27,1.1,6.43-.08s4.27-4.23,4.85-8.06C118.87,151.29,120.49,137.14,121.84,133.8Z" transform="translate(0 -0.25)"/><g class="cls-18"><path class="cls-19" d="M153.75,92a17.62,17.62,0,0,0-1.47-4c.13.42.27.83.38,1.28a27.34,27.34,0,0,1-2.07,17.2c-2.48,4.84-6.43,7.16-9.6,5.63-1.35-.66-2.54-1.92-3.89-2.54-4-1.79-8.67,2.49-11.73,8.53-2,3.89-2.91,8.79-4.62,13-1.35,3.34-3,17.49-3,17.49-.58,3.84-2.69,6.88-4.85,8.06s-4.36.81-6.43.08a8.09,8.09,0,0,1-4.64-3.5,10.58,10.58,0,0,0,1.09,2.71,8.14,8.14,0,0,0,4.65,3.5c2.06.72,4.27,1.1,6.43-.08s4.27-4.23,4.85-8.06c0,0,1.62-14.15,3-17.49,1.71-4.25,2.66-9.15,4.62-13,3.06-6,7.76-10.32,11.73-8.53,1.36.61,2.55,1.88,3.9,2.53,3.17,1.54,7.12-.78,9.59-5.62A27.27,27.27,0,0,0,153.75,92Z" transform="translate(0 -0.25)"/></g><g class="cls-23"><path class="cls-22" d="M122.43,99.71a30.65,30.65,0,0,1,2.24-9.4,17.25,17.25,0,0,1,2.64-4.26,10.29,10.29,0,0,1,4.32-3,10.69,10.69,0,0,1,5.37-.44c.45.1.88.15,1.33.29s.81.26,1.2.41a21.26,21.26,0,0,1,2.27,1.06,16.53,16.53,0,0,1,4.07,3,7,7,0,0,1,2.19,4.6l-.29.07a9.24,9.24,0,0,0-3.25-3,27.69,27.69,0,0,0-4-2c-.69-.3-1.4-.56-2.1-.84l-1-.41c-.3-.11-.65-.2-1-.3a10,10,0,0,0-2-.38,7.59,7.59,0,0,0-2,.2c-2.68.63-4.84,3-6.33,5.66a32.22,32.22,0,0,0-3.28,8.77Z" transform="translate(0 -0.25)"/></g><g class="cls-24"><path d="M105.68,139.18a29.28,29.28,0,0,0,.16,4.88,10.83,10.83,0,0,0,1.41,4.46,5.35,5.35,0,0,0,3.67,2.42,14.51,14.51,0,0,0,4.82-.12,10.4,10.4,0,0,1-4.93.9,6.27,6.27,0,0,1-2.5-.8,5.83,5.83,0,0,1-1.9-1.86,9.86,9.86,0,0,1-1.35-4.93A15.8,15.8,0,0,1,105.68,139.18Z" transform="translate(0 -0.25)"/></g><path class="cls-17" d="M187.36,90.31c-1.3,3-3.6,5.76-6.84,6.15-4.8.59-9.43-3.87-9.47-8.71s4.06-9.21,8.85-10c0,0,5.13-1.32,5.43,1.82s1.62,3.66,2,4.58A10.32,10.32,0,0,1,187.36,90.31Z" transform="translate(0 -0.25)"/><g class="cls-18"><path class="cls-19" d="M187.36,90.31a10.32,10.32,0,0,0,0-6.12,3.5,3.5,0,0,0-.53-.76,10.1,10.1,0,0,1-.28,5c-1.3,3-3.6,5.76-6.84,6.15a8.71,8.71,0,0,1-8.26-4.49c1.21,3.81,5.07,6.81,9.07,6.32C183.76,96.07,186.06,93.31,187.36,90.31Z" transform="translate(0 -0.25)"/></g><g class="cls-25"><path class="cls-22" d="M176.28,81.4a24.88,24.88,0,0,1,4-1.58,6.45,6.45,0,0,1,1.08-.21,2.77,2.77,0,0,1,.58,0,2.6,2.6,0,0,1,.58.14,5.17,5.17,0,0,1,1,.46,2.62,2.62,0,0,1,.7,1l0,.06v.11a5.59,5.59,0,0,0,.16,1.22,2.12,2.12,0,0,0,.51,1,1.79,1.79,0,0,0,.51.33,1.58,1.58,0,0,1,.55.57,1.5,1.5,0,0,1,0,1.44l-.07,0a1.52,1.52,0,0,0-.26-1.17c-.25-.31-.61-.28-1.14-.63a2.47,2.47,0,0,1-.81-1.32,4.46,4.46,0,0,1-.15-1.46l0,.17a2.06,2.06,0,0,0-.41-.79,5,5,0,0,0-.87-.44,3.12,3.12,0,0,0-1.94,0,27.67,27.67,0,0,0-4,1.24Z" transform="translate(0 -0.25)"/></g><g class="cls-26"><path d="M183.58,91.06a6.23,6.23,0,0,1-2.46,2.42,4.35,4.35,0,0,1-3.55.24,6.7,6.7,0,0,1-2.8-2.14,17.11,17.11,0,0,1-1-1.43c-.25-.52-.53-1-.75-1.54.37.43.7.89,1,1.33s.75.83,1.11,1.25A7.41,7.41,0,0,0,177.83,93a4.15,4.15,0,0,0,3-.07A8.41,8.41,0,0,0,183.58,91.06Z" transform="translate(0 -0.25)"/></g><path class="cls-27" d="M282.28,172.45" transform="translate(0 -0.25)"/><path class="cls-28" d="M397,268.15c-4.38-15.84-8.72-32.94-3.07-48.37,1.67-4.57,4.2-8.87,5.19-13.64,2.42-11.64-4.74-23.12-13-31.68s-18.14-16-23.46-26.63c-2.5-5-3.86-10.48-6.21-15.54-5.8-12.56-17.05-21.58-27.92-30.13a151.52,151.52,0,0,0,34.88,19.76c8.18,3.3,17.34,6.43,21.83,14,3.72,6.32,3.23,14.22,5.43,21.22,4.55,14.53,19.83,23.26,26,37.18,8.36,19-2.49,40.64-2.7,61.4,0,0-.25,6.07.75,9.07s2,5,0,7-13,2-13,3-2,0-3-2A28.71,28.71,0,0,1,397,268.15Z" transform="translate(0 -0.25)"/><path class="cls-29" d="M403.67,258.9c-.4-5.7-.69-11.38-.74-17.09,0-2.85,0-5.71.23-8.59.07-.72.11-1.44.24-2.17l.17-1.09.28-1.11c.43-1.36.81-2.68,1.15-4.06a142.7,142.7,0,0,0,3.06-16.66,66.12,66.12,0,0,0,.54-8.42,22.69,22.69,0,0,0-.37-4.14,7.69,7.69,0,0,0-.62-1.88,15.84,15.84,0,0,0-1.18-1.67c-6.64-9.26-12.92-18.71-19.11-28.25q-2.31-3.59-4.55-7.21c-.73-1.22-1.49-2.42-2.19-3.66-.35-.62-.71-1.23-1-1.87l-.5-.95c-.15-.32-.27-.67-.41-1a27,27,0,0,0-3.67-7.62,44.07,44.07,0,0,0-5.3-6.65,45,45,0,0,1,5.41,6.58,27.32,27.32,0,0,1,3.8,7.62c.14.31.25.64.41,1l.5.94c.33.62.7,1.23,1.06,1.84.72,1.22,1.49,2.42,2.23,3.62,1.53,2.4,3.08,4.77,4.66,7.14,6.31,9.42,12.75,18.81,19.49,27.92a16.31,16.31,0,0,1,1.29,1.79,8.24,8.24,0,0,1,.74,2.14,23.7,23.7,0,0,1,.47,4.33,70.3,70.3,0,0,1-.42,8.59,142.32,142.32,0,0,1-2.86,16.88c-.32,1.38-.7,2.8-1.1,4.15l-.23,1-.14,1c-.12.67-.14,1.37-.2,2.06-.18,2.79-.16,5.62-.1,8.44.14,5.65.51,11.32,1,17Z" transform="translate(0 -0.25)"/><path class="cls-30" d="M375.55,273.8a55.88,55.88,0,0,0,5.95-38.46c-1.25-5.93-3.48-11.67-4.18-17.7-2.76-23.77,18.45-46.85,11.59-69.77-2.72-9.1-9.7-16.88-10.39-26.35C377.57,108.46,388.63,98,399,90a41,41,0,0,0-42.33,49.23c1.28,6.16,3.95,11.95,5.46,18A49.59,49.59,0,0,1,359,189.73c-2.61,5.61-6.28,10.75-8.27,16.61-4.22,12.47-.24,26.07,3.73,38.62,0,0,1.19,18.85.19,22.85a13.63,13.63,0,0,1-3,6,20.34,20.34,0,0,1-5,1c-2,0-10.78.42-11.89-.79-10.84-11.75,9.73-31.08,5.18-46.41-2.11-7.11-5.58-14.54-3.33-21.61,1.24-3.9,4.09-7.09,5.81-10.81,5.81-12.65-2.59-26.85-5.14-40.53-2.37-12.65.44-25.72,4.58-37.91-1,5.71-1.95,11.78.2,17.17,1.76,4.43,5.39,7.79,8.36,11.53,12.16,15.35,12.79,37.22,7.49,56.07-1.32,4.7-3,9.41-3,14.3,0,6.07,2.68,11.79,4.28,17.65a52.55,52.55,0,0,1-1.86,33s-.72,5.36.28,6.36,3,2,6,3S374.44,275.78,375.55,273.8Z" transform="translate(0 -0.25)"/><path class="cls-29" d="M368.69,265.16c1-3.29,1.88-6.66,2.58-10a54.64,54.64,0,0,0,1.28-10.24,14.57,14.57,0,0,0-.64-5c-.23-.79-.63-1.65-.85-2.48s-.5-1.69-.69-2.54c-.82-3.4-1.41-6.83-1.91-10.28a117.24,117.24,0,0,1-1.2-20.85,51,51,0,0,1,.52-5.22c.19-.85.31-1.73.56-2.57s.54-1.71.82-2.49a56.23,56.23,0,0,0,1.6-10.22c.59-6.91.81-13.86.93-20.81s.08-13.89-.08-20.84-.38-13.89-1.12-20.8a42.45,42.45,0,0,1-.64-5.17,13.87,13.87,0,0,1,1.06-5.08,22,22,0,0,1,6.26-8.23,22,22,0,0,0-6.21,8.25,13.75,13.75,0,0,0-1,5.06c-.06,1.74.51,3.42.67,5.15.78,6.92,1,13.87,1.24,20.82s.26,13.9.2,20.85-.25,13.9-.8,20.84a56.91,56.91,0,0,1-1.57,10.35,31.51,31.51,0,0,0-1.8,10.14,115.87,115.87,0,0,0,1.31,20.71c.52,3.43,1.12,6.84,2,10.2.19.84.44,1.66.69,2.48s.58,1.57.85,2.44a15.49,15.49,0,0,1,.73,5.29,56.82,56.82,0,0,1-1.24,10.42q-1,5.13-2.55,10.16Z" transform="translate(0 -0.25)"/><path class="cls-29" d="M342.28,262.39c.58-9.46,1-18.95,1.13-28.43,0-4.73,0-9.48-.41-14.16l-.48-3.52a12.48,12.48,0,0,1-.13-1.82,15.79,15.79,0,0,1,0-1.82,44.89,44.89,0,0,1,.85-7.15,87.5,87.5,0,0,1,3.9-13.77,40.33,40.33,0,0,1,2.93-6.55,10.34,10.34,0,0,0,.74-3.33c.11-1.17.16-2.35.18-3.53a89.71,89.71,0,0,0-1-14.17,50.32,50.32,0,0,0-3.71-13.69,50.47,50.47,0,0,1,4,13.65,91.29,91.29,0,0,1,1.25,14.21c0,1.19,0,2.39-.12,3.58-.05.6-.12,1.2-.22,1.8a6.27,6.27,0,0,1-.54,1.8,40.21,40.21,0,0,0-2.77,6.49,87.63,87.63,0,0,0-3.62,13.69,45.88,45.88,0,0,0-.71,7,14.57,14.57,0,0,0,0,1.75,12.22,12.22,0,0,0,.15,1.72l.55,3.53a142.84,142.84,0,0,1,.67,14.3c.06,9.53-.22,19-.63,28.54Z" transform="translate(0 -0.25)"/><path class="cls-28" d="M165.62,276.25c-3.68-14.79-7.32-30.85-2.2-45.1,1.08-3,2.53-5.85,3.08-9A18.19,18.19,0,0,0,165,211.42c-1.55-3.31-4-6.22-4.53-9.9-.78-5.74,3.51-10.86,4.05-16.62.74-7.91-6.08-14.74-13.19-15.93-2.55-.42-5.15-.32-7.68-.88-6.8-1.5-12.36-8.26-13.1-15.89-.26-2.66,0-5.58-1.44-7.76-2.75-4.28-8.92-2.27-13.31-4.29a15.72,15.72,0,0,1,15.28-3.5,17.89,17.89,0,0,1,11.21,12,28.49,28.49,0,0,0,1.38,4.43c2.22,4.61,7.71,5.5,12.36,6.41,5.84,1.13,11.66,3.2,16.34,7.21,8.8,7.53,12.14,21.93,7.7,33.22-1.34,3.39-3.33,6.93-2.48,10.51a20.51,20.51,0,0,0,2.3,4.79c4.25,8,1.47,19.64-5.82,24.29-1.84,1.17-3.94,2-5.31,3.77s-1.75,4-2,6.26a52.18,52.18,0,0,0,3.32,24.66l.59,1.73Z" transform="translate(0 -0.25)"/><path class="cls-29" d="M163.65,248.11c.39-2.38.86-4.74,1.44-7.08a35.38,35.38,0,0,1,2.3-6.9l.47-.82c.16-.27.38-.52.57-.78l.47-.67c.15-.24.26-.5.39-.76a22.37,22.37,0,0,0,1.18-3.31,53.35,53.35,0,0,0,1.39-7,58.5,58.5,0,0,0,.52-7.12,21.65,21.65,0,0,0-.9-7,44.25,44.25,0,0,1-3.18-14,33.59,33.59,0,0,1-.08-3.62,15.85,15.85,0,0,1,.18-1.81c0-.3.14-.62.19-.9a3.94,3.94,0,0,0,.1-.84,13.08,13.08,0,0,0-.5-3.49,22.67,22.67,0,0,0-1.17-3.36,31.29,31.29,0,0,0-8.46-11.37c-.87-.82-1.88-1.47-2.82-2.2s-2-1.29-3-1.89-2.12-1.1-3.21-1.61-2.16-1-3.21-1.61a40.86,40.86,0,0,1-6.11-3.78,15.6,15.6,0,0,1-2.63-2.44,7.07,7.07,0,0,1-1-1.49,2.58,2.58,0,0,1-.27-1.74,2.61,2.61,0,0,0,.28,1.73,7.45,7.45,0,0,0,1,1.48,16.29,16.29,0,0,0,2.64,2.41,41.21,41.21,0,0,0,6.13,3.72c1.06.57,2.15,1.06,3.23,1.57s2.15,1.07,3.23,1.6,2.07,1.22,3.07,1.87,2,1.37,2.86,2.19a31.56,31.56,0,0,1,8.64,11.41,23.08,23.08,0,0,1,1.22,3.41,12.81,12.81,0,0,1,.54,3.6,3.76,3.76,0,0,1-.1.94c-.05.31-.13.57-.18.86-.08.58-.12,1.17-.15,1.76a32.57,32.57,0,0,0,.11,3.56,43.45,43.45,0,0,0,3.27,13.85,22.08,22.08,0,0,1,1,7.19,56.22,56.22,0,0,1-.46,7.22,52.26,52.26,0,0,1-1.35,7.1,23.2,23.2,0,0,1-1.19,3.46c-.14.28-.27.57-.43.84l-.56.8c-.16.23-.33.43-.48.67l-.42.75a34.8,34.8,0,0,0-2.17,6.73c-.55,2.31-1,4.66-1.36,7Z" transform="translate(0 -0.25)"/><path class="cls-30" d="M111.19,278.42c-.11-4.43,5.65-6.45,7.72-10.36,1.87-3.53.49-8.26,2.78-11.53,3.1-4.42,11-3.51,13.48-8.28.76-1.43.85-3.1,1.34-4.64,1.2-3.84,4.73-6.51,8.44-8.08s7.71-2.29,11.46-3.72a3.67,3.67,0,0,0,1.86-1.22,4,4,0,0,0,.49-1.57l3-18.93a64.9,64.9,0,0,0-25.23,15.33c-2.4,2.36-4.91,5.07-8.26,5.5a17.08,17.08,0,0,1-5.35-.58c-4-.74-8.35-.73-11.73,1.49-5.37,3.53-6.17,11-5.63,17.44s1.81,13.27-1.2,18.94c-1.42,2.65-3.78,5.24-3.22,8.19,0,0-.36,2.55.64,2.55S111.19,278.42,111.19,278.42Z" transform="translate(0 -0.25)"/><path class="cls-29" d="M106.42,273.59a25.24,25.24,0,0,0,4.74-6.87,14,14,0,0,0,1.2-4,15.86,15.86,0,0,0-.12-4.17,32.76,32.76,0,0,1,.31-8.62,21,21,0,0,1,1.21-4.17,10.31,10.31,0,0,1,2.47-3.59,9.23,9.23,0,0,1,3.89-1.92L124.2,239a83.5,83.5,0,0,0,8-3,45.26,45.26,0,0,0,7.48-4.1,23.88,23.88,0,0,0,6.11-5.92,23.67,23.67,0,0,1-6,6,46,46,0,0,1-7.45,4.23,84,84,0,0,1-8,3.14l-4.07,1.36a8.75,8.75,0,0,0-3.68,1.87c-2,1.91-2.91,4.76-3.41,7.49a32.74,32.74,0,0,0-.18,8.45,16.11,16.11,0,0,1,.19,4.35,15,15,0,0,1-1.21,4.21,25.85,25.85,0,0,1-4.83,7.23Z" transform="translate(0 -0.25)"/><path class="cls-30" d="M163.29,274.68c-6.07-10.61-5.71-25.58.86-35.78,1.23-1.93,2.7-3.75,3.31-6,1.38-5.18-2-10.3-5.12-14.33s-6.55-9.08-5.26-14.29a15.81,15.81,0,0,1,2.45-4.91c2.22-3.34,4.6-6.61,6.23-10.38s2.49-8.19,1.47-12.24c-2.27-9-12.63-13.21-13.9-22.43-.88-6.37,3-12.33,3.45-18.75A18.67,18.67,0,0,0,146,117.8c-6.3-2.71-13.49-1.43-19.57,1.88,8.09,1,14.1,8.74,19.27,16,1.28,1.79,2.61,3.73,2.81,6s-.82,4.62-1.6,6.83a34,34,0,0,0-1.42,16.88c.75,4.45,2.39,8.66,3.16,13.12s.54,9.5-2,12.95c-1.53,2.07-3.75,3.38-5.16,5.56-2.21,3.45-1.88,8.26-.75,12.35a33.53,33.53,0,0,0,8.64,14.89c2.63,2.56,5.82,4.82,7,8.56,1.21,4-.32,8.33-2.26,11.88s-4.36,6.93-5.17,11c-1.53,7.74,3.06,15.19,7.65,21.11l.6,1.1s6.08,1,6.94,1S163.29,274.68,163.29,274.68Z" transform="translate(0 -0.25)"/><path class="cls-29" d="M153.29,264.86c1.61-8.46,3.3-16.89,5.58-25.21a38,38,0,0,1,2.18-6.13c1.48-1.71.85-3.88.13-5.84a61.9,61.9,0,0,0-6.32-11.13l-1.8-2.69c-.15-.22-.29-.45-.43-.7a3.94,3.94,0,0,1-.27-.82,15.52,15.52,0,0,1-.22-1.63,51.73,51.73,0,0,1,0-6.47,60.21,60.21,0,0,1,.67-6.42,33.08,33.08,0,0,1,1.57-6.27c.22-.5.43-1,.66-1.49l.81-1.4a9.46,9.46,0,0,0,.72-1.42l.29-.74.19-.78a17,17,0,0,0,.17-6.37,70.54,70.54,0,0,0-3.41-12.4,70.86,70.86,0,0,1,3.54,12.38,17.65,17.65,0,0,1-.11,6.44l-.2.79-.29.76a8.16,8.16,0,0,1-.72,1.45l-.78,1.4c-.23.48-.42,1-.63,1.47a32.33,32.33,0,0,0-1.5,6.23,59.29,59.29,0,0,0-.61,6.39,50.74,50.74,0,0,0,.1,6.41,13.48,13.48,0,0,0,.22,1.57,3.4,3.4,0,0,0,.24.7c.12.22.27.45.41.67l1.82,2.66c1.22,1.77,2.41,3.56,3.53,5.41a40.22,40.22,0,0,1,3,5.77,11.89,11.89,0,0,1,.84,3.2,4.4,4.4,0,0,1-.16,1.72,3.43,3.43,0,0,1-.41.81l-.37.67a37.24,37.24,0,0,0-2.07,6c-2.18,8.29-3.8,16.74-5.32,25.18Z" transform="translate(0 -0.25)"/><path d="M369.17,78.3a4.51,4.51,0,0,1,1.51-2.2,1.47,1.47,0,0,1,1.24-.31,1.77,1.77,0,0,1,.95.73,4.75,4.75,0,0,1,.46,2.76l0,.72v.37a1.31,1.31,0,0,1,0,.17s0,0-.05,0a5.11,5.11,0,0,1-.76-.1l-.86-.11-3.58-.45c-.32,0-.32.46,0,.5l3.9.49.92.12c.23,0,.52.12.73,0a.58.58,0,0,0,.2-.48c0-.33,0-.66,0-1a5.37,5.37,0,0,0-.54-3.24,2,2,0,0,0-2.44-.81,4.53,4.53,0,0,0-2.15,2.73c-.1.31.38.44.48.14Z" transform="translate(0 -0.25)"/><path class="cls-10" d="M400.43,89.7c2-.84,2.89-3.17,3.2-5.26s.33-4.33,1.51-6.14c1.59-2.42,4.95-3.31,7.76-2.75s5.2,2.28,7.33,4.11,4.16,3.84,6.67,5.16c2.35,1.24,5,1.82,7.39,3,3.51,1.79,6.13,4.82,8.56,7.86,3.91,4.87,7.64,10.12,9,16.23.1.43.13,1-.26,1.22s-.82,0-1.16-.22l-7.63-4.87a17.35,17.35,0,0,1-2.64-1.93,18.17,18.17,0,0,0-1.74-1.66c-1.63-1.2-3.9-1.26-5.64-2.3a15.6,15.6,0,0,1-2.62-2.32c-2.54-2.45-5.79-4.07-9-5.65l-5.51-2.73a4.14,4.14,0,0,0-2.28-.61,3.91,3.91,0,0,0-1.49.62,22,22,0,0,0-5.2,4.37c-.49.57-1.34,1.21-1.86.71Z" transform="translate(0 -0.25)"/><path class="cls-10" d="M473.66,101c.94,1.45.29,3.42-.62,5s-2.09,3.08-2.25,4.83c-.2,2.35,1.62,4.42,3.85,5.28a15.15,15.15,0,0,0,7.23.41,35.6,35.6,0,0,1,7.33-.58c2.27.18,4.42,1,6.68,1.18,3.37.32,6.79-.59,10.08-1.59,5.29-1.6,10.65-3.53,14.85-7.09.3-.25.62-.61.47-1s-.56-.35-.91-.36l-7.83,0a17,17,0,0,0-2.85.16,18.46,18.46,0,0,1-2.08.36c-1.76.1-3.35-.85-5.1-.9a15.23,15.23,0,0,0-3,.42,32.16,32.16,0,0,1-9.19-.1l-5.23-.56a3.41,3.41,0,0,1-1.89-.58,2.82,2.82,0,0,1-.69-1.07,15.54,15.54,0,0,1-1.22-5.26c0-.6-.28-1.41-.9-1.29Z" transform="translate(0 -0.25)"/><path class="cls-11" d="M423,83.07a46.74,46.74,0,0,1-17.52,1.24,23.29,23.29,0,0,1-7.12-1.52c-3.31-1.44-5.88-4.13-8.67-6.42a43.5,43.5,0,0,0-22.62-9.55c-3.51-.39-7.4-.23-10.07,2.08s-3.39,6.2-3.9,9.74l-.56,3.81a3.69,3.69,0,0,0,0,1.78,3.52,3.52,0,0,0,1.25,1.46A57.09,57.09,0,0,0,389,98.18c4.48,0,8.95-.48,13.43-.48,13.22,0,26,4.33,38.52,8.65,0,0,26.32,4.42,35.35.13S487.11,93.37,486,89.05,423,83.07,423,83.07Z" transform="translate(0 -0.25)"/><path class="cls-15" d="M413.9,94.74c-.15,2.18-2.5,3.63-4.8,4.46s-4.89,1.41-6.5,3c-2.17,2.17-1.84,5.68,0,8.3s4.76,4.51,7.76,6.14,6.14,3.11,8.7,5.24c2.39,2,4.15,4.46,6.51,6.47,3.5,3,8.09,4.8,12.6,6.42,7.25,2.59,14.85,4.93,22.49,4.72.54,0,1.19-.12,1.31-.57s-.33-.8-.73-1.08l-8.75-6.24a24.68,24.68,0,0,0-3.31-2.1c-.88-.44-1.83-.78-2.65-1.29-2-1.3-3-3.51-4.95-4.94a22.16,22.16,0,0,0-3.77-2c-3.87-1.88-7.07-4.65-10.21-7.39l-5.41-4.71a4.49,4.49,0,0,1-1.63-2.08,3.15,3.15,0,0,1,.11-1.61,18,18,0,0,1,3-6.19c.46-.62.85-1.62.05-2Z" transform="translate(0 -0.25)"/><path class="cls-15" d="M467.53,102c-.15,1.72-1.85,2.89-3.52,3.58s-3.54,1.18-4.72,2.47c-1.59,1.74-1.41,4.49-.15,6.53a15.16,15.16,0,0,0,5.48,4.72,35.57,35.57,0,0,1,6.19,4c1.69,1.53,2.92,3.44,4.59,5,2.47,2.31,5.75,3.66,9,4.87,5.17,1.93,10.61,3.66,16.1,3.38.39,0,.86-.11,1-.47s-.23-.62-.52-.84l-6.2-4.78a16.48,16.48,0,0,0-2.35-1.6,17.6,17.6,0,0,1-1.88-1c-1.45-1-2.14-2.71-3.5-3.81a14.84,14.84,0,0,0-2.67-1.51,32.29,32.29,0,0,1-7.24-5.66l-3.82-3.62a3.5,3.5,0,0,1-1.15-1.62,2.76,2.76,0,0,1,.11-1.27,15.33,15.33,0,0,1,2.22-4.91c.34-.5.63-1.29.07-1.58Z" transform="translate(0 -0.25)"/><path class="cls-12" d="M485.52,73.73c2.74,5.2,3.72,12.06,1.12,17.23h0c-35.72,6.83-83.22-11.27-84-11.59l1.46-11.43a21.77,21.77,0,0,1,1.24-5.66c1.47-3.57,4.65-6.1,7.83-8.29a33.63,33.63,0,0,1,5.9-3.41c6-2.54,12.82-2,19.32-1.36,9.53.9,19.34,1.88,27.8,6.35a55.12,55.12,0,0,1,13,10.15A35,35,0,0,1,485.52,73.73Z" transform="translate(0 -0.25)"/><path class="cls-14" d="M485.45,92.86C476.09,105.2,402,84,402,84c.2-1.54.39-3.07.6-4.6.81.32,48.31,18.42,84,11.59h0A13.09,13.09,0,0,1,485.45,92.86Z" transform="translate(0 -0.25)"/><path class="cls-13" d="M440.13,79.34A3.81,3.81,0,0,1,436,80.72a10.56,10.56,0,0,1-4.38-2.51,7.58,7.58,0,0,1-2.72-3.82c-.35-1.53.55-3.25,2-3.1,1.06.1,2.31,1.11,3.08.45s.14-1.91-.05-3a3.57,3.57,0,0,1,2.78-4.12,6.36,6.36,0,0,1,5.27,2c1.28,1.22,2.28,3,1.94,4.66A21.58,21.58,0,0,1,442.64,74c-.17.47-.25,1-.38,1.47a6.19,6.19,0,0,1-2.75,3.73" transform="translate(0 -0.25)"/><path class="cls-13" d="M420.37,58.38c-.79-.69-2.1-.28-3.15-.16a2.71,2.71,0,0,0-1.69.65c-.83.82-.55,2.23,0,3.26a9,9,0,0,0,5.08,4.27,3.71,3.71,0,0,0,2.87,0A3.26,3.26,0,0,0,425,63.52a3,3,0,0,1,.28-1.74,2.32,2.32,0,0,1,2-.56l2.9.16a2.22,2.22,0,0,0,.93-.07,1.76,1.76,0,0,0,1-1.41,3.47,3.47,0,0,0-.81-2.93,5.93,5.93,0,0,0-2.14-1.36c-2-.86-4.34-1.41-6.3-.46C422.88,55.15,421.49,59.35,420.37,58.38Z" transform="translate(0 -0.25)"/><path class="cls-13" d="M412.4,79.33a2.07,2.07,0,0,0,2.36.13,4.78,4.78,0,0,0,1.45-2.14,9.65,9.65,0,0,0,1-5.12,2.77,2.77,0,0,0-.94-1.82,4.74,4.74,0,0,0-2-.62,2.16,2.16,0,0,1-1.69-1.08,3.54,3.54,0,0,0-.33-.93c-.33-.45-1-.39-1.53-.2a4.78,4.78,0,0,0-2.85,3.07,4.72,4.72,0,0,0,.77,4.11A15.67,15.67,0,0,0,412.4,79.33Z" transform="translate(0 -0.25)"/><path class="cls-13" d="M474.61,75.36c-.78.33-1.07,1.13-2.08,1.21a4.6,4.6,0,0,1-3.18-1.14,9.1,9.1,0,0,1-1.17-1.15,9.37,9.37,0,0,1-2.07-3.45,1.63,1.63,0,0,0-.55-1,4.4,4.4,0,0,0-1-.54,5,5,0,0,1-1.65-1.46,3.18,3.18,0,0,1-.61-1.44c-.33-2.12,1.63-2.64,4-2.39a7.28,7.28,0,0,1,3.78,1.51,9.79,9.79,0,0,1,2.32,2.62c.58,1,1.66,3.54.9,2.54C473,70.31,475.79,74.85,474.61,75.36Z" transform="translate(0 -0.25)"/><path class="cls-13" d="M454.76,77c-.17-.48,0,.25-.11.13s.45-.34.55-.39a12.37,12.37,0,0,1,1.95-.73,4.37,4.37,0,0,1,1.79-.25c-.08,0,.54.17.4.1s.42.26.24.12l.2.18.09.14,0,.06s-.06-.31,0,0v.15c0-.16,0-.15,0,0,.05-.08.13-.15,0,0,.22-.26-.19.2.05,0,0,0,.31-.11,0,0a6,6,0,0,0-1,.4,2.14,2.14,0,0,0-1.11,2,6.07,6.07,0,0,0,1,2.29,2.89,2.89,0,0,1,.39,1.49c0,.44,0,0,0,.27,0,0-.15.37-.05.18a1.35,1.35,0,0,1-.45.58c-.36.33.09,0-.15.12l-.35.21c-.44.23.1,0-.17.08a2.52,2.52,0,0,1-.39.12,4.51,4.51,0,0,1-1.83,0,9.26,9.26,0,0,1-1.94-.52,3.07,3.07,0,0,1-.66-.36c.05,0-.14-.15-.12-.12s-.18-.28-.16-.23c-.06-.14,0-.34-.07-.17a1.14,1.14,0,0,1,.37-.47,6.24,6.24,0,0,0,1.35-1.68,2.94,2.94,0,0,0,0-2.66s-.26-.39-.12-.22c-.06-.31-.14-.19-.23.36-.3.46-.32.6-.06.44s.66-.27,1-.38a12.62,12.62,0,0,1,4.68-.66l-1.29-2.26c.11-.16-.15.16-.16.17l-.12.1c.08-.07.08-.07,0,0a3.65,3.65,0,0,1-.34.18c.21-.09-.24.07-.24.06a3.88,3.88,0,0,1-1.45.13,4.67,4.67,0,0,0-2.34.28A2.56,2.56,0,0,0,452.31,78a1.53,1.53,0,0,0,1.05,1.85,14.29,14.29,0,0,0,4.78.53l-.39-2.94a10.23,10.23,0,0,0-2.53.58A2.07,2.07,0,0,0,454,80.36c.26,1,1.31,1.44,2.19,1.8a4.65,4.65,0,0,0,2.78.26,1.52,1.52,0,0,0,.36-2.74,6.06,6.06,0,0,0-3.49-.71c-1.29.14-2.74.7-2.93,2.18s1,2.27,2.19,2.76a4.85,4.85,0,0,0,3.76.35,1.53,1.53,0,0,0,.66-2.51,5.47,5.47,0,0,0-3.28-1.69,3.16,3.16,0,0,0-3.6,1.81,2.53,2.53,0,0,0,1.86,3.19,5.66,5.66,0,0,0,4.13-.5,1.52,1.52,0,0,0,.3-2.36,5.89,5.89,0,0,0-3.34-1.62c-1.44-.19-3.31.24-3.24,2.06.06,1.42,1.77,2.37,3,2.75A3.15,3.15,0,0,0,459,84.11c1-1.65-1.58-3.16-2.59-1.51,0,0,.1-.06.13-.1l-.1.06c.06,0,0,0-.05,0s.15,0-.07,0,.22.13-.2,0a4.44,4.44,0,0,1-.48-.25,4.37,4.37,0,0,0-.4-.25c-.35-.15.78,0,0,1l-.54.54s-.35,0-.11,0H455l.21,0,.43.1a2.86,2.86,0,0,1,1.13.68l.3-2.35a2.6,2.6,0,0,1-1.53.26c-.17,0-.3,0-.34-.1.09.17.23.28.24.51,0,.07-.06.24-.06.31s-.05,0-.05.07a.9.9,0,0,1,.32,0,1.64,1.64,0,0,1,.55.1,2.53,2.53,0,0,1,1.16.76l.66-2.51a1.71,1.71,0,0,1-1.43,0c-.21-.07-.42-.16-.62-.25s-.28-.2-.35-.19c.19,0,.1.77.11.55a.43.43,0,0,1-.13.56c-.17.14-.17.16,0,0-.11,0-.08,0,.05,0a2.9,2.9,0,0,1,.72-.09,3,3,0,0,1,1.4.34l.36-2.74a1.77,1.77,0,0,1-.89-.15l-.41-.18-.28-.14c-.16-.08-.18-.09,0,0l.39.66c-.64,1-.73,1.3-.29,1l-.09,0a5.13,5.13,0,0,1,.66-.13l1.37-.26c1.66-.31,1.29-3-.4-3a11.63,11.63,0,0,1-4-.43l1,1.85c.07-.38-.15.1-.17.15s.19-.06,0,0a4,4,0,0,1,.77,0,8.66,8.66,0,0,0,2-.1,4.7,4.7,0,0,0,3.21-2,1.51,1.51,0,0,0-1.3-2.25,15.25,15.25,0,0,0-5.68.83c-.95.34-2.12.69-2.54,1.69a2.13,2.13,0,0,0-.05,1.51,5.3,5.3,0,0,0,.28.65,2,2,0,0,1,.14.29s-.07-.09-.05-.12-.08.1-.13.16a1.39,1.39,0,0,1-.24.25c-.3.31-.6.6-.87.94a3.28,3.28,0,0,0-.67,2.87c.51,2,2.55,2.92,4.41,3.36a7.19,7.19,0,0,0,5.6-.56A4.64,4.64,0,0,0,462,81.55a8.31,8.31,0,0,0-1.12-2.64c0-.08-.09-.17-.15-.25-.38-.47.6.08-.31.83-.11.09-.3.15-.07.07a4.33,4.33,0,0,0,1.15-.49,3.33,3.33,0,0,0,.42-5c-1.55-1.68-4-1.5-6-.85a9.87,9.87,0,0,0-3,1.41,2.87,2.87,0,0,0-1.06,3.14,1.54,1.54,0,0,0,1.85,1,1.5,1.5,0,0,0,1-1.84Z" transform="translate(0 -0.25)"/><path d="M355.37,81.22a34.59,34.59,0,0,0,7.86,4.26,18.13,18.13,0,0,0,8.92.64c.64-.1.37-1.07-.26-1a17.25,17.25,0,0,1-8.61-.72,34.45,34.45,0,0,1-7.4-4.08c-.54-.36-1,.5-.51.86Z" transform="translate(0 -0.25)"/><path d="M360.77,76.35a1.6,1.6,0,0,1,.48-.77c.18-.17.56-.42.78-.27a.14.14,0,0,1,.07.1.6.6,0,0,1,0,.23c0,.17,0,.34-.09.51a1.55,1.55,0,0,1-.42.8l.43.18,0-.6a1.55,1.55,0,0,0,0-.48.62.62,0,0,0-.24-.39.56.56,0,0,0-.56,0,2,2,0,0,0-.41.31.94.94,0,0,0-.26.44.59.59,0,0,0,.54.74.74.74,0,0,0,.69-.7,1.31,1.31,0,0,0-.26-1,.8.8,0,0,0-1-.2,1,1,0,0,0-.47.89.79.79,0,0,0,.8.72.68.68,0,0,0,.61-.83.24.24,0,0,0-.41-.11l-.24.3a.25.25,0,0,0,.3.39,2.55,2.55,0,0,0,.94-1,.25.25,0,0,0-.22-.37,1.48,1.48,0,0,0-1.05.5.46.46,0,0,0-.12.35.47.47,0,0,0,.22.31,1.09,1.09,0,0,0,.58.2.57.57,0,0,0,.51-.35.63.63,0,0,0-.15-.61,1.22,1.22,0,0,0-.54-.31.47.47,0,0,0-.57.35,1,1,0,0,0,.3,1.11.25.25,0,1,0,.35-.35.49.49,0,0,1-.18-.25.52.52,0,0,1,0-.3.69.69,0,0,0,0-.1c.07.07-.16,0,0,0l.09,0,.15.09a.37.37,0,0,1,.07.1s0,0,0,0,0,0,0,0h-.09a.93.93,0,0,1-.2-.09s-.08-.06-.09,0,0,.12,0,.12.12-.12.14-.14a1,1,0,0,1,.17-.1,1,1,0,0,1,.37-.1l-.21-.38a2.11,2.11,0,0,1-.76.78l.3.39.24-.3-.42-.11a.19.19,0,0,1-.15.2.29.29,0,0,1-.28-.26.44.44,0,0,1,.17-.38.28.28,0,0,1,.39,0,.75.75,0,0,1,.17.54c0,.15-.05.34-.18.38h0s0,0,0,0h0a.21.21,0,0,1,0-.14.62.62,0,0,1,.13-.18,1.55,1.55,0,0,1,.24-.19l.07,0h0s-.07,0,0,0,0,0,0,0,0,0,0,0a.19.19,0,0,1,0,.07s0,0,0,0v.08c0,.28,0,.57-.06.85s.28.31.43.18a1.87,1.87,0,0,0,.49-.85,4.15,4.15,0,0,0,.11-.48,3.21,3.21,0,0,0,.07-.53.71.71,0,0,0-.79-.68,1.65,1.65,0,0,0-1,.49,2.08,2.08,0,0,0-.58,1,.25.25,0,0,0,.49.13Z" transform="translate(0 -0.25)"/></svg>