<svg id="Layer_1" data-name="Layer 1" xmlns="http://www.w3.org/2000/svg" viewBox="0 0 101.23 87.97"><title>clickHere</title><path d="M9.25,14.13c-.63-.74-1.58-.41-2.33-.08A14.55,14.55,0,0,0,4.1,15.72,10.15,10.15,0,0,0,.18,20.65a4.5,4.5,0,0,0,1.74,4.91,11.36,11.36,0,0,0,5.57,1.9,20.23,20.23,0,0,0,8.22-.7.75.75,0,0,0-.4-1.45A19.08,19.08,0,0,1,8,26c-1.9-.18-4.14-.59-5.57-2-1.71-1.62-.79-3.85.57-5.37a13.47,13.47,0,0,1,2.42-2.1c.28-.19,2.51-1.67,2.74-1.4.63.73,1.68-.33,1.06-1.06Z"/><path d="M14.28,14.79a3.76,3.76,0,0,1,2.63,1.39c.85.87,1.55,1.87,2.34,2.78A36.76,36.76,0,0,0,25,24.28c.77.58,1.52-.72.76-1.29a34.86,34.86,0,0,1-6-5.68c-1.46-1.77-3-4-5.53-4a.75.75,0,0,0,0,1.5Z"/><path d="M27.14,18A13.56,13.56,0,0,1,31.94,21c.69.68,1.75-.38,1.06-1.06a15.13,15.13,0,0,0-5.46-3.45.77.77,0,0,0-.93.52.78.78,0,0,0,.53.93Z"/><path d="M25,12.07a.92.92,0,0,0,.92-.94,1,1,0,0,0-1-1,3.35,3.35,0,0,0-1.13.15,2.47,2.47,0,0,0-1.06.53,1.88,1.88,0,0,0-.57.94,1.33,1.33,0,0,0,.34,1.32,2.18,2.18,0,0,0,1.12.29A3.36,3.36,0,0,0,27,10.42,3.56,3.56,0,0,0,25.3,7.08a3.83,3.83,0,0,0-4.38.46.75.75,0,0,0,0,1.06A.77.77,0,0,0,22,8.6c.11-.09,0,0,0,0l.11-.08.21-.13.21-.11c-.12.06,0,0,0,0l.17-.06a4.05,4.05,0,0,1,.5-.12c-.14,0,.06,0,.11,0h.41s.16,0,.07,0,0,0,0,0l.13,0,.23.07.13,0,0,0a3.34,3.34,0,0,1,.4.25c-.12-.09.06.06.1.09L25,8.8c.09.1,0,0,0,0l.08.11.11.19a2.12,2.12,0,0,1,.11.21c.06.13,0,0,0,0a.88.88,0,0,1,.05.15,1.87,1.87,0,0,1,.07.22s.05.3,0,.12a3,3,0,0,1,0,.52s0,.12,0,0,0,0,0,.06a1.8,1.8,0,0,1-.06.22s-.1.26,0,.12a2.53,2.53,0,0,1-.12.23,1.88,1.88,0,0,1-.12.18c-.05.09.08-.07,0,0a.73.73,0,0,0-.08.09l-.16.15-.09.09c.05-.05.06-.05,0,0a1.58,1.58,0,0,1-.24.15s-.29.14-.14.08c-.16.06-.34.09-.51.15h-.51c.06,0,.09,0,0,0s-.2,0-.3-.09l.45.35c.06.12,0-.06,0,0s0-.12,0,0,0-.07,0-.09,0,.07,0,0,.1-.16.05-.09.07-.08.07-.07,0,0,0,0a.83.83,0,0,1,.16-.09c.11-.06-.09,0,0,0l.18-.06.34-.07.15,0h.07s.12,0,.14,0a.29.29,0,0,1-.3-.27c-.28-.33-.13-.59.45-.79a.75.75,0,0,0,0,1.5Z"/><path d="M41.31,9.52A7.32,7.32,0,0,0,35.72,12a3.15,3.15,0,0,0,.54,4.83,13.21,13.21,0,0,0,6.06,1.71,19.38,19.38,0,0,0,7.11-.66.75.75,0,0,0-.4-1.45,17.81,17.81,0,0,1-10.83-.3,3.4,3.4,0,0,1-1.68-1.09,1.79,1.79,0,0,1,.41-2.15A5.83,5.83,0,0,1,41.31,11a.75.75,0,0,0,0-1.5Z"/><path d="M43.5,1.51C47,3,50.59,4.14,53,7.24c1.7,2.25,3.11,4.85,5.76,6.11.72.34,1.62-.59.91-1.18A11.26,11.26,0,0,1,57.38,9.7c-.37-.56-1.44-1.95-.87-2.5.27-.26,1.33-.27,1.7-.34.62-.11,1.23-.21,1.85-.3s1.63-.44,2.14,0c.36.27.31,1,.3,1.36C62.43,9.55,62.42,11,64,11.94s3.88.47,5.37,1.68c.75.6,1.82-.46,1.06-1.06a6.43,6.43,0,0,0-3.31-1.26c-1.27-.19-3.08-.42-3.23-2-.11-1.1.29-2.14-.23-3.19a2.15,2.15,0,0,0-2.27-1.21,39.17,39.17,0,0,0-4.3.66c-1,.18-2.2.4-2.35,1.59a5.51,5.51,0,0,0,1.1,3,12.51,12.51,0,0,0,2.7,3.1l.91-1.18c-2.89-1.37-4.18-4.49-6.21-6.78C50.86,2.55,47.16,1.43,43.9.06c-.89-.37-1.27,1.08-.4,1.45Z"/><path d="M36.31,29.57c-.72,2.27,1,4.86,2.22,6.7a27.85,27.85,0,0,0,4.83,5.67.76.76,0,0,0,1.28-.53A13.74,13.74,0,0,1,45.07,36c.44-1.2,1.27-2.39,2.71-2.16a8.13,8.13,0,0,1,2.76,1.26,22.49,22.49,0,0,1,4.38,3.7,10.18,10.18,0,0,0,3.88,2.78c.92.33,1.31-1.12.4-1.44-2.07-.74-3.38-2.72-5-4.14a14.59,14.59,0,0,0-5.87-3.56c-5-1.18-5.39,5.7-5.22,9l1.28-.53a26.44,26.44,0,0,1-4.2-4.76,27.55,27.55,0,0,1-1.5-2.5c-.57-1.09-1.36-2.39-1-3.65.29-.93-1.15-1.32-1.44-.4Z"/><path d="M63.81,34.56c1.75-1,4-2.83,2.83-5.12-1-2.05-4.44-1.67-6.07-.65a4,4,0,0,0-1.3,5.66,7.12,7.12,0,0,0,2.75,2,29.69,29.69,0,0,0,3.86,1.51,27.93,27.93,0,0,0,4.33,1c1.22.17,2.63.39,3.56-.61.66-.7-.4-1.77-1.06-1.06s-2.26.21-3.07.07A27.83,27.83,0,0,1,66,36.4,24.92,24.92,0,0,1,62.55,35a4.3,4.3,0,0,1-2.36-1.92,2.51,2.51,0,0,1,.63-2.59,3.88,3.88,0,0,1,3-1c1,.06,1.84.52,1.49,1.67s-1.42,1.59-2.29,2.08a.75.75,0,0,0,.76,1.3Z"/><path d="M70.07,29.28a29.57,29.57,0,0,1,8.29,5.86.75.75,0,0,0,1.25-.73,16.5,16.5,0,0,0-2.1-5.08,3.52,3.52,0,0,1-.72-2.14c.08-.51.53-1.18,1.11-1,.92.29,1.32-1.16.4-1.45a2.26,2.26,0,0,0-2.5,1,3.14,3.14,0,0,0-.28,2.93A26.1,26.1,0,0,0,77,31.53a12.72,12.72,0,0,1,1.12,3.28l1.26-.73A30.74,30.74,0,0,0,70.83,28c-.87-.41-1.63.88-.76,1.3Z"/><path d="M85.43,29.42c.92-.9,2.12-1.55,2.74-2.73a2.85,2.85,0,0,0-.3-3.19C86.65,22,84,20.89,82.34,22.42c-1.79,1.68-.58,4.46.91,5.86a12.79,12.79,0,0,0,6.64,2.78,41.52,41.52,0,0,0,10.62.52c.95-.08,1-1.58,0-1.5a40.17,40.17,0,0,1-8.7-.22c-2.33-.32-4.88-.75-6.86-2.12A4.5,4.5,0,0,1,83,25.1c-.24-1.23.52-2.13,1.79-1.86,1,.21,2.48,1.17,2.21,2.35s-1.81,2-2.64,2.77.37,1.73,1.06,1.06Z"/><path d="M27.86,41.49c-2.67,2-3.44,5.34-4.28,8.44-1.09,4-2.1,8.21-1.91,12.42.14,3.35.95,7.15,4.23,8.78,2.74,1.36,6.68,1.36,9-.9a4.86,4.86,0,0,0-.33-7.39c-2.22-1.77-5.72-3-8.37-1.43-2.8,1.69-3.34,5.85-3.42,8.8A14.39,14.39,0,0,0,26,80c4.68,5.58,12.39,9.19,19.65,7.57C52.26,86.1,59.19,81.45,60,74.23c.34-3-.5-6.33-3.5-7.62a6.94,6.94,0,0,0-7.18,1.08,8.47,8.47,0,0,0-2.3,8,11.34,11.34,0,0,0,5.55,7.17,15.93,15.93,0,0,0,10.1,2.2,16.63,16.63,0,0,0,5.09-1.71,14.67,14.67,0,0,0,4.45-2.79c2.29-2.59,1.13-6.77,1.82-9.88,1-4.26,5.56-5.34,9.31-6A31.52,31.52,0,0,1,90,64.34c1,0,1-1.46,0-1.5A32.16,32.16,0,0,0,80,63.92c-2.44.67-5,1.69-6.39,3.92s-1.26,5-1.38,7.51c-.07,1.44-.1,3.18-1.15,4.29a14.24,14.24,0,0,1-4,2.41,13.43,13.43,0,0,1-10,1.09,13.15,13.15,0,0,1-7-4.48,8,8,0,0,1-1.28-7.42,5.33,5.33,0,0,1,5.65-3.65c3.26.34,4.41,3.27,4.16,6.24a12.1,12.1,0,0,1-4.17,7.8c-4.61,4.13-11.67,6.1-17.58,4-5.72-2-11.71-6.77-12.47-13.11-.33-2.72-.13-6.36,1.43-8.7,1.84-2.77,5.73-1.56,7.86.18a3.27,3.27,0,0,1,.71,4.48,5.21,5.21,0,0,1-4.66,2,6.47,6.47,0,0,1-4.71-2,9.33,9.33,0,0,1-1.74-5.27,34.13,34.13,0,0,1,1.43-11.57c.77-3,1.36-6.93,4-8.94.75-.58,0-1.88-.76-1.29Z"/><path d="M89.37,60.49a6.25,6.25,0,0,1,.17,5.81.76.76,0,0,0,.65,1.13c1.57.09,3.14.11,4.72.07.8,0,1.6,0,2.4-.11a2.92,2.92,0,0,0,1.78-.48,1.27,1.27,0,0,0,.23-1.7,6.16,6.16,0,0,0-1.63-1.36A27.09,27.09,0,0,0,94,61.73c-1.48-.73-3-1.36-4.53-2a.75.75,0,0,0-.92.52.77.77,0,0,0,.52.92,39.49,39.49,0,0,1,8.1,4.16,6.6,6.6,0,0,0,.84.68.27.27,0,0,1,.06-.17c.09-.13.08-.15,0,0a1.4,1.4,0,0,0-.28.06c-.79.11-1.62.1-2.42.13-1.73.06-3.46,0-5.18-.06l.64,1.13a7.8,7.8,0,0,0-.17-7.33.75.75,0,0,0-1.29.76Z"/></svg>