<svg id="Layer_2" data-name="Layer 2" xmlns="http://www.w3.org/2000/svg" xmlns:xlink="http://www.w3.org/1999/xlink" viewBox="0 0 294.53 345.97"><defs><style>.cls-1{fill:none;}.cls-2{clip-path:url(#clip-path);}.cls-3{fill:#a2c76a;}.cls-4{fill:#dbca9e;}.cls-5{fill:#508b3f;}.cls-6{fill:#ab734e;}.cls-7{fill:#77c363;}.cls-8{fill:#fff;}.cls-9{fill:#f3f3b0;}</style><clipPath id="clip-path" transform="translate(-16.36 -42.23)"><rect class="cls-1" width="333.59" height="356"/></clipPath></defs><title>flowerLogin</title><g class="cls-2"><path class="cls-3" d="M181.15,261.7c-2.71-3.77-8.52-3.14-12.8-1.35a40.74,40.74,0,0,0-23.08,25.84,83.65,83.65,0,0,0,34.41-7s6.62-4.15,7.59-8S181.15,261.7,181.15,261.7Z" transform="translate(-16.36 -42.23)"/><path class="cls-3" d="M182.45,260.94c-4.4-5.79-12.51-3.28-17.89-.46a42.42,42.42,0,0,0-15.67,14.34,41.59,41.59,0,0,0-5.07,11,1.52,1.52,0,0,0,1.45,1.9,85.26,85.26,0,0,0,32.9-6.23,16,16,0,0,0,3.52-1.81,31,31,0,0,0,3.95-3.29,11.42,11.42,0,0,0,3-4.49,6.22,6.22,0,0,0-.72-4.68,21.61,21.61,0,0,0-5.72-6.55c-1.49-1.21-3.62.9-2.12,2.12a23.59,23.59,0,0,1,4.32,4.44c.66.92,1.58,2.22,1.46,3.42-.13,1.38-1.43,2.69-2.35,3.62a19.27,19.27,0,0,1-6.57,4.5,84.11,84.11,0,0,1-14.51,4.34,82.43,82.43,0,0,1-17.17,1.61l1.45,1.9A39,39,0,0,1,156,270.66c4.14-4.31,9.62-8.3,15.5-9.78,2.71-.68,6.46-.93,8.36,1.57C181,264,183.62,262.48,182.45,260.94Z" transform="translate(-16.36 -42.23)"/><path class="cls-4" d="M186.74,268.84c-4.22.55-8.47,1.26-12.66,2.18-2.1.45-4.18,1-6.23,1.59a33.07,33.07,0,0,0-6,2.34,33,33,0,0,1,5.83-2.81c2-.79,4.07-1.47,6.14-2.09,4.15-1.25,8.34-2.29,12.6-3.19Z" transform="translate(-16.36 -42.23)"/><path class="cls-3" d="M130,193.91c-6.41-1.21-13,1.9-17.64,6.51s-7.61,10.56-10.51,16.4a59.52,59.52,0,0,0,44.26-6.74s4.86-3.57,3.79-4.47-4.61-7.55-7.64-8.28S130,193.91,130,193.91Z" transform="translate(-16.36 -42.23)"/><path class="cls-3" d="M130.35,192.47c-6.71-1.19-13.29,1.56-18.22,6.06-5.25,4.78-8.5,11.27-11.62,17.53a1.52,1.52,0,0,0,.9,2.2,61.42,61.42,0,0,0,41.73-4.85,27.45,27.45,0,0,0,5.58-3.54c1.23-1.06,3.56-3,2.56-4.85a15.59,15.59,0,0,0-1.27-1.64c-.7-1-1.38-2-2.12-3-1.4-1.85-3-3.89-5.35-4.55-4.06-1.13-8.14-2.22-12.19-3.39a1.5,1.5,0,0,0-.79,2.89c3.31,1,6.63,1.92,10,2.82.76.21,1.54.36,2.29.6a5.4,5.4,0,0,1,2.17,1.59,50.71,50.71,0,0,1,3.81,5.06,5.66,5.66,0,0,0,.76,1c.06.05.1.14.17.18l.07.07c-.09-1-.18-1.29-.29-.84.09,0-.06.07-.16.21l-.3.34a11.68,11.68,0,0,1-1,1,18.71,18.71,0,0,1-4.29,2.88,58,58,0,0,1-40.54,5.13l.89,2.21c2.84-5.69,5.73-11.56,10.28-16.1,4.16-4.16,10.17-7.18,16.18-6.12C131.45,195.69,132.26,192.8,130.35,192.47Z" transform="translate(-16.36 -42.23)"/><path class="cls-4" d="M148.45,203.73c-2.65-.44-5.33-.81-8-1-1.34-.11-2.68-.2-4-.2a13.88,13.88,0,0,0-4,.47c-2.6.69-5.15,1.62-7.72,2.47-1.29.43-2.57.86-3.87,1.25-.65.19-1.3.37-2,.53a5.93,5.93,0,0,1-2,.2,5.66,5.66,0,0,0,2-.27c.65-.17,1.3-.37,1.94-.58,1.29-.43,2.56-.9,3.83-1.37,2.54-.93,5.06-1.93,7.67-2.71a14.45,14.45,0,0,1,4.07-.62c1.37,0,2.74,0,4.1.08,2.72.15,5.42.44,8.12.81Z" transform="translate(-16.36 -42.23)"/><path class="cls-5" d="M179.22,219.34c7.88-12.11,24.87-17.32,38.18-11.7a3.47,3.47,0,0,1,1.92,1.46A3.69,3.69,0,0,1,219,212c-4.75,12-10.84,25.3-23,29.48-2.14.73-4.42,1.15-6.38,2.27,0,0-5.22,3.5-7.5,1.36s-3.74-6.06-5.53-6.89-3.74-6.06-1.61-8.34S179.22,219.34,179.22,219.34Z" transform="translate(-16.36 -42.23)"/><path class="cls-5" d="M180.52,220.1a30.42,30.42,0,0,1,21.79-13,29.56,29.56,0,0,1,12.77,1.28c.74.25,2.3.57,2.77,1.24.58.82-.61,2.8-.94,3.63-.88,2.18-1.8,4.35-2.8,6.48-3.71,7.92-8.79,16.26-17.21,19.79-2.38,1-5,1.42-7.31,2.54-1.08.51-2,1.22-3.16,1.67a6.43,6.43,0,0,1-2.19.56c-.93,0-1.32-.43-1.9-1.12-1.38-1.67-2.25-3.75-3.78-5.31-.53-.54-1.28-.81-1.76-1.37a6.21,6.21,0,0,1-1.14-2.6,3.84,3.84,0,0,1,.26-2.83c.44-.69,1-1.27,1.39-2a41.76,41.76,0,0,0,3.36-9.29,1.51,1.51,0,0,0-2.9-.8,35.84,35.84,0,0,1-3.23,8.91c-.39.68-1,1.23-1.35,1.91a6.37,6.37,0,0,0-.64,3.44,8.78,8.78,0,0,0,2.48,5.74,13.51,13.51,0,0,1,1.78,1.44c.75.93,1.34,2,2,3,1.3,1.92,2.75,3.89,5.29,3.88a11.34,11.34,0,0,0,5.31-1.69,27.24,27.24,0,0,1,5.54-2.24c10.15-3,16.54-11.48,21-20.63,1.15-2.35,2.2-4.76,3.2-7.18s2.9-5.52,1-7.79c-1.46-1.75-4.5-2.42-6.62-2.94a31.7,31.7,0,0,0-7.51-.92,33.84,33.84,0,0,0-28.15,14.7C176.86,220.2,179.46,221.71,180.52,220.1Z" transform="translate(-16.36 -42.23)"/><path class="cls-4" d="M176.36,239.17a69.23,69.23,0,0,0,6.71-4.28,32.2,32.2,0,0,0,3.05-2.5,7,7,0,0,0,2.15-3,14.45,14.45,0,0,1,2-3.64,26.42,26.42,0,0,1,2.67-3.1,22.18,22.18,0,0,1,3.12-2.6,10.65,10.65,0,0,1,3.67-1.68,10.59,10.59,0,0,0-3.52,1.88,21,21,0,0,0-2.91,2.75,27.29,27.29,0,0,0-2.41,3.17,13.75,13.75,0,0,0-1.67,3.51,9.69,9.69,0,0,1-.35,1c-.15.34-.35.64-.53,1l-.64.85-.69.79a34.77,34.77,0,0,1-3,2.81,73,73,0,0,1-6.62,4.81Z" transform="translate(-16.36 -42.23)"/><path class="cls-3" d="M124.09,157.14c5.24-5.89,5.66-14.46,12.68-18,8.58-4.39,18.65-6.6,28-4.17a45.57,45.57,0,0,1-30.4,38s-6.54,3.6-8,1.19S122,159.55,124.09,157.14Z" transform="translate(-16.36 -42.23)"/><path class="cls-3" d="M125.15,158.2a31.7,31.7,0,0,0,4.54-7.31,38.51,38.51,0,0,1,3.93-7.22c2-2.55,4.83-3.87,7.75-5.06A44.36,44.36,0,0,1,152,135.72a32.62,32.62,0,0,1,12.37.65l-1.1-1.45a44.22,44.22,0,0,1-16.68,29.76,43.62,43.62,0,0,1-7.29,4.63c-2,1-4.13,1.6-6.11,2.57a12.07,12.07,0,0,1-4.78,1.59c-.67,0-.69,0-.95-.54a19.69,19.69,0,0,1-.73-2.05,45.11,45.11,0,0,1-1.64-7.35,20.74,20.74,0,0,1-.22-3.52,7.12,7.12,0,0,1,.13-1.23c0-.17.09-.33.14-.49-.09.26.28-.39,0-.09,1.21-1.48-.9-3.61-2.12-2.12s-1.26,3.74-1.14,5.66a42.51,42.51,0,0,0,1.3,7.68,18.4,18.4,0,0,0,2,5.56c1.34,2.06,4.17,1.57,6.16.92,1.72-.57,3.36-1.43,5-2a44.11,44.11,0,0,0,8.73-4.4,48,48,0,0,0,13.88-13.89,46,46,0,0,0,7.35-20.65,1.51,1.51,0,0,0-1.1-1.45,39.25,39.25,0,0,0-22.93,1.62c-3.22,1.17-6.7,2.49-9.25,4.85a23.09,23.09,0,0,0-4.79,7.15c-1.5,3.11-2.86,6.36-5.15,9C121.77,157.53,123.88,159.66,125.15,158.2Z" transform="translate(-16.36 -42.23)"/><path class="cls-4" d="M125.11,171.39a112.28,112.28,0,0,0,8.47-7.39,46,46,0,0,0,3.77-4.14c.56-.73,1.07-1.51,1.6-2.3s1.07-1.55,1.62-2.32c1.11-1.53,2.25-3,3.45-4.49a30.3,30.3,0,0,1,3.93-4.08,7.34,7.34,0,0,1,2.54-1.28l2.7-.83a12.26,12.26,0,0,0,2.59-1.09,2.57,2.57,0,0,0,1.42-2.25,2.56,2.56,0,0,1-1.39,2.3,12.2,12.2,0,0,1-2.58,1.16l-2.68.89a7.07,7.07,0,0,0-2.44,1.29,30.42,30.42,0,0,0-3.8,4.13c-1.16,1.47-2.26,3-3.33,4.54q-.79,1.16-1.56,2.34c-.5.79-1,1.59-1.58,2.37a44.78,44.78,0,0,1-3.73,4.29,110.32,110.32,0,0,1-8.38,7.64Z" transform="translate(-16.36 -42.23)"/><path class="cls-5" d="M86,124.64c-5.36-4.22-11.86-7.45-18.68-7.3s-13.82,4.37-15.63,10.95a176.4,176.4,0,0,0,14.67,11.15c5.88,4,13,7.81,19.8,5.7,0,0,6.09-1.11,9-4.45S94,133.26,94,133.26Z" transform="translate(-16.36 -42.23)"/><path class="cls-5" d="M87.07,123.58C81,118.82,73.34,115,65.39,116c-6.74.85-13.18,5.17-15.14,11.9a1.46,1.46,0,0,0,.39,1.46,140.65,140.65,0,0,0,18.26,13.5,31,31,0,0,0,9.48,4,18.54,18.54,0,0,0,8.35-.28c3.94-1,10-2.9,10.85-7.52.61-3.22-1.55-5.77-3.57-8l-6.94-7.5c-1.31-1.42-3.43.71-2.12,2.12l5.39,5.83c1.37,1.48,3.24,3.05,4,5,1.73,4.24-4.93,6.36-8,7.07a16.7,16.7,0,0,1-6.37.52,25.21,25.21,0,0,1-8.64-3.28c-6.64-3.76-12.78-8.67-18.6-13.58l.38,1.46c1.64-5.62,7.31-9.26,13-9.78,6.9-.64,13.55,2.65,18.85,6.79C86.45,126.88,88.59,124.77,87.07,123.58Z" transform="translate(-16.36 -42.23)"/><path class="cls-4" d="M95.56,137.36a37.82,37.82,0,0,1-8.9-2.46,8.91,8.91,0,0,1-3.88-2.9,9,9,0,0,0-3.13-2.79,37.56,37.56,0,0,0-8.18-3.5,29.49,29.49,0,0,0-8.83-1.46,29.57,29.57,0,0,1,9,1,38.37,38.37,0,0,1,8.54,3.11,10.19,10.19,0,0,1,3.69,3,7.69,7.69,0,0,0,3.4,2.19,36.14,36.14,0,0,0,8.56,1.86Z" transform="translate(-16.36 -42.23)"/><path class="cls-3" d="M74.9,84.54c1.26-5.34,5.29-8.72,9.52-11.35,4.78-3,9.63-6,15.2-7.24a21.76,21.76,0,0,1,17.47,3.17c-2.24,15.12-10.83,27.79-23,33.95,0,0-11,3.61-12.75.65S73.54,90.3,74.9,84.54Z" transform="translate(-16.36 -42.23)"/><path class="cls-3" d="M76.35,84.93a15.84,15.84,0,0,1,6.39-8.81,69.63,69.63,0,0,1,10.54-6.28c7.45-3.64,16-4.3,23,.57l-.69-1.69c-1.77,11.67-7.52,23-17.25,30a22.9,22.9,0,0,1-5.12,3.06,32.41,32.41,0,0,1-4.56,1.16,13.37,13.37,0,0,1-5.37.36,1.47,1.47,0,0,1-.75-.3c.21.17-.16-.24,0,0a4.23,4.23,0,0,1-.24-.4c-.42-.76-.87-1.51-1.28-2.27a53.94,53.94,0,0,1-3.49-7.52c-.88-2.41-1.82-5.26-1.26-7.85.4-1.88-2.49-2.68-2.9-.79-1.14,5.29,1.68,11.1,4,15.69.54,1.06,1.1,2.11,1.69,3.14a10.44,10.44,0,0,0,1.33,2.11c1.4,1.41,3.75,1.4,5.58,1.24A26,26,0,0,0,97,103.19,43,43,0,0,0,110.5,90.36a50.17,50.17,0,0,0,8-20.84,1.6,1.6,0,0,0-.69-1.7,23.71,23.71,0,0,0-19.71-3,43.23,43.23,0,0,0-10.28,4.58A56.41,56.41,0,0,0,79.34,75a17.7,17.7,0,0,0-5.89,9.12C73,86,75.88,86.81,76.35,84.93Z" transform="translate(-16.36 -42.23)"/><path class="cls-4" d="M77.35,96.43,90.56,86.18l6.66-5.05c2.23-1.66,4.45-3.37,6.8-4.86-2.31,1.56-4.46,3.33-6.65,5l-6.5,5.26L78,97.21Z" transform="translate(-16.36 -42.23)"/><path class="cls-3" d="M63.46,67.08c-12.3-8-28.57-8.69-42.56-4.31-1.58.49-3.5,1.73-3,3.3a3.18,3.18,0,0,0,1.3,1.42A118.27,118.27,0,0,0,57.58,85.6s9-.5,11.53-4.12S66.35,69,63.46,67.08Z" transform="translate(-16.36 -42.23)"/><path class="cls-3" d="M64.22,65.79C55.9,60.46,45.9,58.27,36.1,58.64A59.89,59.89,0,0,0,21.66,61c-1.93.56-4.41,1.39-5.13,3.52-.86,2.59,1.58,4.06,3.39,5.31A119.72,119.72,0,0,0,48.37,84.32q3.74,1.32,7.54,2.38a6.64,6.64,0,0,0,3,.28,23,23,0,0,0,9-2.49,6.32,6.32,0,0,0,3.23-3.88,10.18,10.18,0,0,0-.58-5.56c-1.18-3.37-3.27-7.21-6.3-9.26-1.6-1.09-3.11,1.51-1.52,2.59,2.07,1.39,3.65,4.34,4.6,6.63.86,2,1.82,4.92-.3,6.48s-5,2.08-7.55,2.42a7.23,7.23,0,0,1-1.85.19A19.94,19.94,0,0,1,55,83.32q-1.79-.52-3.57-1.11A117.33,117.33,0,0,1,26.39,70.47q-3-1.86-5.86-3.89c-.7-.5-1.61-.88-.72-1.62a7.28,7.28,0,0,1,2.65-1.1,56.4,56.4,0,0,1,12.82-2.18c9.58-.5,19.29,1.49,27.42,6.7C64.34,69.42,65.84,66.83,64.22,65.79Z" transform="translate(-16.36 -42.23)"/><path class="cls-4" d="M71.26,77.61c-6.54-2.32-13.14-4.56-19.83-6.42a54.15,54.15,0,0,0-10.2-1.84,78.9,78.9,0,0,0-10.43-.23,79.36,79.36,0,0,1,10.46-.27c1.75.07,3.49.21,5.23.43s3.48.57,5.18.94c6.83,1.55,13.53,3.47,20.23,5.49Z" transform="translate(-16.36 -42.23)"/><path class="cls-6" d="M137.56,387.81c18.74-16.38,35.53-35.81,45.31-58.93,10-23.63,12.07-50.42,2.36-74.49-9.53-23.63-27.24-42.92-43.44-62.16C124.41,171.58,107,150.7,93.37,127.32c-13.15-22.53-22.93-47.72-24.46-74q-.27-4.83-.18-9.66a1.5,1.5,0,0,0-3,0C65.27,69.52,73,94.76,84.65,117.62c12.06,23.64,28.42,44.75,45.3,65.11,8.41,10.15,17,20.13,25.38,30.35,8,9.75,15.62,19.86,21.67,30.94s10.28,23.24,11.34,35.94a98.73,98.73,0,0,1-4.57,37.85c-7.59,24-23.3,44.53-41.44,61.63-2.25,2.13-4.56,4.21-6.89,6.25-1.46,1.27.67,3.39,2.12,2.12Z" transform="translate(-16.36 -42.23)"/><path class="cls-7" d="M274.35,174.68c-17.67,7.23-36.62,16.12-47,33-5.8,9.4-7.79,20.43-7.77,31.35a147,147,0,0,0,1.16,16.76c.67,5.78,1.7,11.56,1.94,17.38.21,5.28-.55,10.33-3.3,14.81a31.47,31.47,0,0,1-9.62,9.46c-8.78,5.8-19,8.23-28.66,12.24a62,62,0,0,0-14.58,8.19,67.64,67.64,0,0,0-10.29,10.22c-6.34,7.6-11.62,16-18.32,23.34a60.63,60.63,0,0,1-52.18,19.09,58.62,58.62,0,0,1-6.79-1.35c-3.74-1-5.33,4.82-1.59,5.78A66.69,66.69,0,0,0,135,362.42c7.82-6.24,13.63-14.49,19.54-22.45,5.77-7.76,11.91-15.57,20.32-20.6,9.53-5.69,20.57-8,30.58-12.68,8.9-4.16,17.36-10.51,21.2-19.84,2.29-5.59,2.35-11.75,1.76-17.67-.57-5.65-1.46-11.27-2-16.93-1.11-10.95-1.49-22.32,2.08-32.89,6.25-18.51,24.35-28.81,41.3-36.26,2.11-.93,4.1-1.77,6.23-2.64a3.1,3.1,0,0,0,2.1-3.69c-.39-1.42-2.18-2.71-3.69-2.09Z" transform="translate(-16.36 -42.23)"/><path class="cls-8" d="M251,153.09c-1.5-6.56-1.9-14.37,2.94-19.05,3.33-3.22,8.31-4,12.94-3.91,3.27.09,6.75.67,9.14,2.89,3.14,2.91,3.51,7.71,3,12a44.12,44.12,0,0,1-4,14.1c-.44-5.36,4.87-9.54,10.09-10.86,5.42-1.37,11.53-.7,16,2.64s6.91,9.59,5,14.85c-1.44,4-5,6.87-8.93,8.47s-8.18,2.08-12.38,2.54c4.18-1,8.43-2,12.72-1.71s8.68,2.08,11.09,5.63c1.89,2.78,2.37,6.3,2.2,9.66a13.29,13.29,0,0,1-2.05,7.07c-2.82,4-8.35,4.76-13.21,4.57-4.65-.18-9.47-1-13.25-3.74,2.47,4.75,0,10.8-4.08,14.31a10,10,0,0,1-5.43,2.67,13.37,13.37,0,0,1-5-.82c-5.15-1.55-10.45-3.17-14.59-6.59s-6.89-9.15-5.22-14.26c-9.78,4.22-22.57-1.46-26-11.54a9.3,9.3,0,0,1-.56-4.6c.52-3,3.2-5.14,6.08-6s5.94-.62,8.92-.38c-6.71-1.92-14.3-4.72-16.67-11.3A11.67,11.67,0,0,1,223,147.3a12,12,0,0,1,12.74-1.79c5.18,2.41,8.91,8.56,14.63,8.31" transform="translate(-16.36 -42.23)"/><circle class="cls-9" cx="248.75" cy="129.89" r="16.04"/><path class="cls-7" d="M161.55,178.1a128.81,128.81,0,0,0-16.31,15.1,50.59,50.59,0,0,0-6.68,8.48,21.51,21.51,0,0,0-2.63,10.91c0,3.66.51,7.3.47,11a92.13,92.13,0,0,1-.88,11c-.94,7.23-2.34,14.41-2.69,21.71a48.4,48.4,0,0,0,3.47,21.19c1.41,3.36,3.08,6.61,4.42,10a55.71,55.71,0,0,1,2.95,10.69c2.46,14.09.23,28.52,1.18,42.71a80.85,80.85,0,0,0,1.71,12.38c.87,4,2.1,7.88,2.6,11.91.53,4.26-.28,8.66.9,12.84,1,3.67,3.65,7,7.45,8s5.34-4.81,1.6-5.78a3.77,3.77,0,0,1-2.25-1.63,8.18,8.18,0,0,1-1.35-3.8c-.45-3.61,0-7.25-.52-10.88-1-7-3.33-13.71-4-20.79-1.27-14.06.79-28.22-.94-42.25a67.07,67.07,0,0,0-2-10.33,70.16,70.16,0,0,0-3.87-10,71,71,0,0,1-4-9.8,39.17,39.17,0,0,1-1.46-9.63c-.45-14.15,4.36-27.9,3.49-42.08-.23-3.79-.81-7.77.25-11.48,1-3.41,3.46-6.16,5.76-8.77a127.89,127.89,0,0,1,17.51-16.44c1.28-1,1.05-3.2,0-4.25a3.08,3.08,0,0,0-4.24,0Z" transform="translate(-16.36 -42.23)"/><path class="cls-8" d="M161.23,163.85A14.05,14.05,0,0,1,173.55,144a10,10,0,0,1,6.69,2c3.1,2.55,3.68,7.24,2.46,11.07s-3.87,7-6.47,10.05c2-6.77,10.3-9.63,17.33-9a11.31,11.31,0,0,1,4.65,1.22c3.56,2,4.61,7.07,2.92,10.81s-5.48,6.17-9.44,7.22-8.13.9-12.23.75c3.55-.91,7.17-1.82,10.81-1.54s7.39,1.95,9.21,5.12c3.27,5.68-1.48,13.34-7.74,15.28s-13-.18-19-2.83c-1.45,3,2.43,7.06.34,9.69-.84,1.05-2.32,1.31-3.66,1.47a26.54,26.54,0,0,1-10.17-.27c-3.29-.91-6.39-3.15-7.48-6.39s.43-7.37,3.66-8.46c-7.3-.84-15-1.81-20.91-6.12a6.36,6.36,0,0,1-2.39-2.73c-1.19-3.28,2.77-6.31,6.26-6.39s6.9,1.43,10.37,1.07a16.76,16.76,0,0,1-12.9-11.93,4.38,4.38,0,0,1,0-3,5,5,0,0,1,2.84-2c4.47-1.75,9.23-3.42,14-2.66s9.31,4.77,8.95,9.56" transform="translate(-16.36 -42.23)"/><circle class="cls-9" cx="150.44" cy="135.77" r="11.2"/></g></svg>