<svg id="Layer_1" data-name="Layer 1" xmlns="http://www.w3.org/2000/svg" viewBox="0 0 182.35 165.26"><defs><style>.cls-1{fill:#684035;}.cls-2{fill:#f7c5ad;}.cls-3{fill:#fff;}.cls-4{fill:#508b3f;}.cls-5{fill:#dbca9e;}.cls-6{fill:#a2c76a;}.cls-7{fill:#ab734e;}</style></defs><title>hideAndSeekPopUpImg</title><path class="cls-1" d="M21.78,24.11C10.13,22.28.38,28.19,0,37.31s8.77,18,20.42,19.84Z"/><path class="cls-1" d="M35.11,15.44C38.16,4,47.51-2.47,56,.88s12.91,15.31,9.87,26.7Z"/><ellipse class="cls-1" cx="43.28" cy="42.58" rx="28.36" ry="29.06" transform="translate(-16.22 30.5) rotate(-33.05)"/><path class="cls-2" d="M63,28.4A16.23,16.23,0,0,0,40.28,25a15.81,15.81,0,0,0-5.18,6.84A15.8,15.8,0,0,0,25.57,35a16.25,16.25,0,0,0-3,22.78,16.45,16.45,0,0,0,15.32,6.44,19.77,19.77,0,0,0,2.24,3.82c6.1,8.08,17.17,10,24.73,4.31s8.74-16.88,2.64-25a19.4,19.4,0,0,0-2.47-2.71A16.4,16.4,0,0,0,63,28.4Z"/><ellipse class="cls-3" cx="35.11" cy="48.71" rx="6.77" ry="5.89" transform="translate(-20.88 27.03) rotate(-33.05)"/><ellipse class="cls-3" cx="52.14" cy="37.63" rx="6.77" ry="5.89" transform="translate(-12.08 34.52) rotate(-33.05)"/><ellipse cx="56.98" cy="61.09" rx="4.23" ry="3.11" transform="translate(-24.1 40.96) rotate(-33.05)"/><ellipse cx="37.36" cy="48.56" rx="3.81" ry="3.31" transform="translate(-20.44 28.24) rotate(-33.05)"/><ellipse cx="51.56" cy="39.32" rx="3.81" ry="3.31" transform="translate(-13.1 34.48) rotate(-33.05)"/><path d="M49.15,53.56,49,53.38a1.13,1.13,0,0,0-.39-.42,1.05,1.05,0,0,0-.51-.27,1.22,1.22,0,0,0-.6,0,1.16,1.16,0,0,0-.56.18l-.3.23a1.54,1.54,0,0,0-.38.67l-.06.4a1.42,1.42,0,0,0,.21.75l.12.19a1.18,1.18,0,0,0,.38.42,1.26,1.26,0,0,0,.51.27,1.11,1.11,0,0,0,.6,0,1,1,0,0,0,.56-.17l.3-.24a1.49,1.49,0,0,0,.39-.66l.05-.4a1.57,1.57,0,0,0-.2-.76Z"/><path d="M56.05,49.34l-.12-.19a1.31,1.31,0,0,0-.39-.42,1.14,1.14,0,0,0-.51-.27,1.11,1.11,0,0,0-.6,0,1.18,1.18,0,0,0-.55.17l-.31.24a1.57,1.57,0,0,0-.38.66l-.06.4a1.48,1.48,0,0,0,.21.76l.12.18a1,1,0,0,0,.38.42,1.06,1.06,0,0,0,.51.27,1.66,1.66,0,0,0,1.16-.15l.3-.23a1.47,1.47,0,0,0,.39-.67l0-.39a1.54,1.54,0,0,0-.2-.76Z"/><path d="M57.4,5.86a9.56,9.56,0,0,1,2.81,2.62,5.59,5.59,0,0,1,1.09,3.95c-.2,1.43-1.25,2.76-2.46,2.75-1,0-1.82-.85-2.68-1.44a6.31,6.31,0,0,0-4.65-1.07c-1.21.21-2.49.76-3.59.17S46.29,10.5,46.59,9A5.86,5.86,0,0,1,49,5.58a6.74,6.74,0,0,1,4.23-1.3A12.26,12.26,0,0,1,57.4,5.86Z"/><path d="M5.53,39.61a9.44,9.44,0,0,0,1.26,3.63A5.6,5.6,0,0,0,10,45.84c1.39.4,3,0,3.51-1.14.4-.92,0-2-.23-3A6.31,6.31,0,0,1,14.15,37c.67-1,1.69-2,1.61-3.21S14.28,31.33,12.81,31a5.79,5.79,0,0,0-4.11.76,6.6,6.6,0,0,0-2.9,3.33A12.4,12.4,0,0,0,5.53,39.61Z"/><path class="cls-4" d="M130.29,110.3c3.94,2.47,8.59,4.18,13.2,3.58s9.06-4,9.8-8.57a122.35,122.35,0,0,0-10.76-6.49c-4.29-2.29-9.4-4.34-13.85-2.41,0,0-4.05,1.2-5.76,3.67s1.33,5,1.33,5Z"/><path class="cls-4" d="M129.54,111.59c4.66,2.88,10.41,4.89,15.9,3.43,4.44-1.18,8.45-4.66,9.3-9.31a1.58,1.58,0,0,0-.69-1.7,90.83,90.83,0,0,0-13.5-7.83c-4.06-1.81-8.21-2.71-12.49-1.15-2.8,1-6.82,2.86-7.14,6.28-.21,2.3,1.39,4,3,5.41l5.32,4.64c1.45,1.26,3.58-.85,2.12-2.12l-3.93-3.42a17.18,17.18,0,0,1-3-2.86c-1.72-2.53,2.49-4.3,4.37-5a10.76,10.76,0,0,1,4.2-.81,17,17,0,0,1,6.28,1.71,92.39,92.39,0,0,1,13.3,7.74l-.68-1.69c-.7,3.79-3.9,6.44-7.55,7.31-4.61,1.08-9.38-.83-13.25-3.22C129.4,108,127.89,110.58,129.54,111.59Z"/><path class="cls-5" d="M122.89,102.06a25.94,25.94,0,0,1,6.28,1.1A6.38,6.38,0,0,1,132.1,105a5.91,5.91,0,0,0,2.24,1.64,25.4,25.4,0,0,0,5.75,1.84,19.71,19.71,0,0,0,6.08.42,20.51,20.51,0,0,1-6.16.08,26.36,26.36,0,0,1-6.07-1.42,7.06,7.06,0,0,1-2.81-1.77,5.18,5.18,0,0,0-2.39-1.14,24.46,24.46,0,0,0-5.87-.54Z"/><path class="cls-6" d="M140.77,136.68c-.46,3.71-3,6.3-5.63,8.39-3,2.36-6.09,4.75-9.77,6a14.88,14.88,0,0,1-12.08-.87c.41-10.42,5.3-19.64,13.12-24.71,0,0,7.19-3.25,8.59-1.38S141.26,132.67,140.77,136.68Z"/><path class="cls-6" d="M139.32,136.28c-.74,5.12-5.72,8.43-9.75,11-4.71,3-10.34,4.39-15.52,1.63l.74,1.29c.36-7.95,3.46-15.8,9.46-21.18a15.21,15.21,0,0,1,3.18-2.35l.2-.08.69-.28c.62-.23,1.25-.46,1.89-.65a10.76,10.76,0,0,1,3.47-.62c.07,0,.42.18.2.05s0,0,.12.16c.36.54.76,1,1.12,1.58,1.86,2.71,4.48,6.36,4.15,9.82-.19,1.92,2.81,1.91,3,0,.35-3.7-2.06-7.56-4-10.52a14.54,14.54,0,0,0-2.55-3.41c-1.17-.92-2.83-.74-4.2-.49a17.44,17.44,0,0,0-7.16,2.87,29.81,29.81,0,0,0-8.49,9.82,35.61,35.61,0,0,0-4.07,15.28,1.5,1.5,0,0,0,.74,1.3c6,3.18,12.63,2.09,18.19-1.4a45.47,45.47,0,0,0,7.43-5.67,13,13,0,0,0,4.06-7.38C142.49,135.19,139.6,134.38,139.32,136.28Z"/><path class="cls-5" d="M138.34,128.91l-8.26,7.86-4.17,3.89c-1.4,1.28-2.79,2.59-4.28,3.76,1.44-1.24,2.76-2.6,4.11-3.94l4-4.07,7.91-8.21Z"/><path class="cls-6" d="M149.8,147.68c8.93,4.5,20,3.8,29.18-.2,1-.45,2.25-1.43,1.77-2.45a2.16,2.16,0,0,0-1-.87,80.53,80.53,0,0,0-27.33-9.47s-6.05,1-7.51,3.64S147.71,146.62,149.8,147.68Z"/><path class="cls-6" d="M149.05,149a34.24,34.24,0,0,0,20.47,2.82,40,40,0,0,0,10-2.93c1.3-.58,2.72-1.67,2.8-3.23.08-1.76-1.47-2.58-2.81-3.31a81.91,81.91,0,0,0-21-8c-2.38-.55-5-1.45-7.48-.9A14.93,14.93,0,0,0,145,136c-2.32,1.85-2.12,4.51-1,7a13.16,13.16,0,0,0,5,5.95c1.69.92,3.21-1.67,1.51-2.59a10,10,0,0,1-3.47-3.94c-.66-1.17-1.57-2.88-.37-4a11.1,11.1,0,0,1,4.76-2.05,8.25,8.25,0,0,1,1.31-.28c-.85.06.76.24,1,.29.81.14,1.61.3,2.41.46a79.64,79.64,0,0,1,17.43,5.79c1.28.61,2.55,1.24,3.8,1.91.37.2,1.68.65,1.86,1l0-.17a1.94,1.94,0,0,1-.49.41,6.63,6.63,0,0,1-1,.5,38.16,38.16,0,0,1-8.26,2.4,30.94,30.94,0,0,1-19-2.38C148.84,145.53,147.31,148.12,149.05,149Z"/><path class="cls-5" d="M143.81,140.8c4.59,1.15,9.22,2.23,13.87,3a36.73,36.73,0,0,0,7,.58,52.74,52.74,0,0,0,7.09-.53,54,54,0,0,1-7.07,1,37.46,37.46,0,0,1-7.18-.09c-4.76-.5-9.46-1.25-14.17-2.08Z"/><path class="cls-7" d="M87.57,69.28C98.81,80,110,90.91,119.84,103c9.12,11.23,17,23.67,22.12,37.27a90.9,90.9,0,0,1,5.51,23.56c.17,1.9,3.17,1.92,3,0-1.32-14.63-6.38-28.61-13.59-41.35-7.56-13.37-17.42-25.27-28-36.35-6.21-6.51-12.69-12.75-19.18-19-1.4-1.34-3.52.78-2.12,2.12Z"/></svg>