<svg id="Layer_1" data-name="Layer 1" xmlns="http://www.w3.org/2000/svg" viewBox="0 0 113.25 102.24"><defs><style>.cls-1{fill:#faa584;}.cls-2{fill:#fae1c8;}.cls-3{fill:none;stroke:#000;stroke-linecap:round;stroke-linejoin:round;}.cls-4{fill:#eefffa;}</style></defs><title>lionFaceHide</title><path class="cls-1" d="M29.68,20A24.92,24.92,0,0,1,38.94,3.27,13.24,13.24,0,0,1,46.73,0c2.88,0,5.94,1.64,6.63,4.33.37,1.49,0,3.09.49,4.56,1.23,3.88,6.75,4.21,10.95,3.77l18.28-1.93a7.63,7.63,0,0,1,4.17.34c3.73,1.84,1.74,7.34,3,11.17,2.4,7.1,15.56,6.77,17,14.11.58,3-1.21,5.84-2,8.77-3,10.42,6.28,20.32,7.79,31a23,23,0,0,1-8.23,20.64,25.2,25.2,0,0,1-22.53,4.49c-6.87-2-12.76-7-19.91-7.67s-14,3-21.2,2.68a18.71,18.71,0,0,1-15.63-10c-1-2.08-1.64-4.34-2.86-6.32C18.29,72.9,7.6,71.62,2.46,65s-2-17.26,5.8-20.43c3.56-1.44,8.21-1.85,9.87-5.2,1.29-2.62,0-5.68,0-8.58-.05-5.45,5.39-10.34,11-10"/><path class="cls-2" d="M82.29,44.66c3.62,5.26,7.2,10.83,6.84,17.21a27.2,27.2,0,0,1-7.79,17.07c-9,9.28-24.19,12-35.59,5.93S28.06,64.32,31.85,52s17.55-20.85,30.2-18.3C62.05,33.69,76.89,36.8,82.29,44.66Z"/><polyline class="cls-3" points="59.95 72.2 59.91 76.46 54.23 78.59"/><rect x="53.41" y="66.52" width="13.07" height="5.68" rx="2.66"/><line class="cls-3" x1="59.91" y1="76.46" x2="64.88" y2="78.59"/><ellipse class="cls-4" cx="73.62" cy="54.85" rx="5.87" ry="4.03"/><ellipse cx="72.94" cy="55.26" rx="1.84" ry="1.5" transform="matrix(1, -0.08, 0.08, 1, -4.16, 5.97)"/><ellipse class="cls-4" cx="46.14" cy="54.85" rx="5.87" ry="4.03"/><ellipse cx="46.54" cy="55.43" rx="2.35" ry="1.5" transform="translate(-4.26 3.87) rotate(-4.56)"/><path class="cls-2" d="M44.88,31.59C41.26,26,36.4,22.75,34,24.3s-1.4,7.33,2.21,12.9Z"/><path d="M43.11,32.74c-2.33-3.58-5.27-5.8-6.57-5s-.48,4.44,1.85,8Z"/><path class="cls-2" d="M74.66,31.76c3.62-5.58,8.49-8.84,10.88-7.29s1.39,7.32-2.22,12.9Z"/><path d="M76.43,32.9c2.33-3.58,5.27-5.8,6.57-5s.48,4.44-1.85,8Z"/><path class="cls-1" d="M43.3,63.17l-.14-.07a.49.49,0,0,0-.28-.09.61.61,0,0,0-.3,0,.66.66,0,0,0-.26.14.55.55,0,0,0-.19.21l-.08.18a.9.9,0,0,0,0,.4l.08.17a.7.7,0,0,0,.27.27l.14.08a.71.71,0,0,0,.28.09.61.61,0,0,0,.3,0,.64.64,0,0,0,.26-.13.55.55,0,0,0,.19-.21l.07-.18a.68.68,0,0,0,0-.4l-.07-.18a.87.87,0,0,0-.27-.27Z"/><path class="cls-1" d="M46.25,66.87h.07a.48.48,0,0,0,.29-.06.54.54,0,0,0,.24-.16.45.45,0,0,0,.16-.24.56.56,0,0,0,.06-.29l0-.2a.82.82,0,0,0-.2-.33l-.15-.11a.73.73,0,0,0-.38-.11h-.07a.59.59,0,0,0-.29.07.61.61,0,0,0-.24.15.6.6,0,0,0-.16.25.64.64,0,0,0-.06.28l0,.2a.69.69,0,0,0,.19.33l.15.12a.72.72,0,0,0,.38.1Z"/><path class="cls-1" d="M47.91,63.91a.75.75,0,0,0,0-1.5.75.75,0,0,0,0,1.5Z"/><path class="cls-1" d="M71.39,62.45l-.09-.09a.54.54,0,0,0-.24-.16.73.73,0,0,0-.58,0,.54.54,0,0,0-.24.16l-.12.15a.83.83,0,0,0-.1.38l0,.2a.79.79,0,0,0,.19.33l.09.09a.61.61,0,0,0,.24.15.59.59,0,0,0,.29.07.57.57,0,0,0,.29-.07.61.61,0,0,0,.24-.15l.12-.15a.75.75,0,0,0,.1-.38l0-.2a.7.7,0,0,0-.2-.33Z"/><path class="cls-1" d="M77.15,63.05l.1-.09a.61.61,0,0,0,.15-.24.64.64,0,0,0,0-.58.61.61,0,0,0-.15-.24l-.16-.12a.69.69,0,0,0-.37-.1l-.2,0a.69.69,0,0,0-.33.19l-.1.09a.61.61,0,0,0-.15.24.64.64,0,0,0,0,.58.61.61,0,0,0,.15.24l.16.12a.69.69,0,0,0,.37.1l.2,0a.69.69,0,0,0,.33-.19Z"/><path class="cls-1" d="M74.06,67.3a.75.75,0,0,0,0-1.5.75.75,0,0,0,0,1.5Z"/></svg>