<svg xmlns="http://www.w3.org/2000/svg" xmlns:xlink="http://www.w3.org/1999/xlink" viewBox="0 0 1847.52 1229.96"><defs><style>.cls-1{fill:none;}.cls-2{clip-path:url(#clip-path);}.cls-3{fill:#40762a;}.cls-4{fill:#386829;}.cls-5{fill:#508b3f;}</style><clipPath id="clip-path" transform="translate(698.37 1022.96)"><rect class="cls-1" width="346" height="187"/></clipPath></defs><title>loginLeafs</title><g id="Layer_2" data-name="Layer 2"><g class="cls-2"><path class="cls-3" d="M181.57,189.1c15.69-30.06,25.49-64.18,18.5-97.36a130.24,130.24,0,0,0-56.2-81.62c-10.19,21.71-20.47,43.64-25.69,67.05s-5.06,48.75,5.13,70.47c4.67,9.94,11.38,19.07,14,29.74,0,0,13,24.62,18.77,24S178.52,194.93,181.57,189.1Z" transform="translate(698.37 1022.96)"/><path class="cls-4" d="M153.08,52.48c-2.17,28.14,8.41,55,12.21,82.51a121.23,121.23,0,0,1,1.11,23.7c0,.48.72.48.75,0,1.7-28.28-9.09-55.15-12.57-82.87a115.28,115.28,0,0,1-.75-23.34c0-.48-.71-.48-.75,0Z" transform="translate(698.37 1022.96)"/><path class="cls-5" d="M164.3,177.8a96.35,96.35,0,0,0-2-25.07c-2.51-12.71-10.8-24.85-19.48-36.34-9.14-12.08-19-24-30.82-34.46-27.67-24.6-66-40.67-103.16-43.28Q10.45,59.91,14,81.29c2,12.07,4.54,24.31,10.53,36,14.53,28.33,46.67,48.86,77,67.53,0,0,24,14.28,37.52,15S162.92,197.83,164.3,177.8Z" transform="translate(698.37 1022.96)"/><path class="cls-4" d="M38.34,64.35A199.16,199.16,0,0,0,74,108.87a268.13,268.13,0,0,0,23.08,19.07c4.28,3.23,8.56,6.47,12.58,10a105.69,105.69,0,0,1,10.82,11.17c7.74,9.17,14.62,19.11,21.76,28.74.29.38.94,0,.65-.38-6.3-8.49-12.44-17.13-19-25.4a121.7,121.7,0,0,0-10.14-11.38,129.19,129.19,0,0,0-11.65-9.89c-8.18-6.31-16.48-12.4-24.16-19.34A211.69,211.69,0,0,1,57.48,90.24,189.91,189.91,0,0,1,39,64a.38.38,0,0,0-.65.38Z" transform="translate(698.37 1022.96)"/><path class="cls-5" d="M176.08,184.86a96,96,0,0,1,2-25.07c2.5-12.7,10.79-24.85,19.47-36.33,9.14-12.09,19-24,30.82-34.47,27.67-24.6,66-40.66,103.16-43.28Q329.92,67,326.37,88.35c-2,12.07-4.55,24.31-10.53,36-14.54,28.34-46.68,48.86-77,67.53,0,0-24,14.29-37.53,15S177.47,204.89,176.08,184.86Z" transform="translate(698.37 1022.96)"/><path class="cls-4" d="M301.39,71a198.62,198.62,0,0,1-36.22,45,293.49,293.49,0,0,1-23.77,19.47c-4.08,3.08-8.13,6.2-11.93,9.61a107.47,107.47,0,0,0-10.72,11.25c-7.53,9-14.29,18.76-21.3,28.2-.29.39.36.77.65.38,6.43-8.67,12.69-17.53,19.46-25.95a118.29,118.29,0,0,1,10.25-11.32,140.14,140.14,0,0,1,12.3-10.26c8-6.11,16-12.12,23.49-18.92A211.28,211.28,0,0,0,284,97.18,191.28,191.28,0,0,0,302,71.41a.38.38,0,0,0-.65-.38Z" transform="translate(698.37 1022.96)"/></g></g><g id="Layer_1" data-name="Layer 1"><path d="M-689.82-240.38l-8.38,18.88a1.55,1.55,0,0,0,.54,2.05,1.51,1.51,0,0,0,2-.54l8.39-18.87a1.57,1.57,0,0,0-.54-2.06,1.53,1.53,0,0,0-2.06.54Z" transform="translate(698.37 1022.96)"/><path d="M963.89-1012q36.14,1.56,72.32.47t72.16-4.88q20.18-2.12,40.24-5.07c1-.13.55-1.58-.4-1.44q-35.81,5.25-71.94,7.84-35.83,2.57-71.79,2.5-20.31,0-40.59-.92c-1-.05-1,1.45,0,1.5Z" transform="translate(698.37 1022.96)"/></g></svg>