<svg id="Layer_2" data-name="Layer 2" xmlns="http://www.w3.org/2000/svg" xmlns:xlink="http://www.w3.org/1999/xlink" viewBox="0 0 294.51 345.97"><defs><style>.cls-1{fill:none;}.cls-2{clip-path:url(#clip-path);}.cls-3{fill:#a2c76a;}.cls-4{fill:#dbca9e;}.cls-5{fill:#508b3f;}.cls-6{fill:#ab734e;}.cls-7{fill:#77c363;}.cls-8{fill:#fff;}.cls-9{fill:#f3f3b0;}</style><clipPath id="clip-path" transform="translate(-17.85 -42.23)"><rect class="cls-1" width="333.59" height="356"/></clipPath></defs><title>loginFlower</title><g class="cls-2"><path class="cls-3" d="M147.58,261.7c2.72-3.77,8.52-3.14,12.81-1.35a40.74,40.74,0,0,1,23.08,25.84,83.62,83.62,0,0,1-34.41-7s-6.62-4.15-7.6-8S147.58,261.7,147.58,261.7Z" transform="translate(-17.85 -42.23)"/><path class="cls-3" d="M148.88,262.45c1.63-2.14,4.74-2.26,7.17-1.83A25.37,25.37,0,0,1,164.3,264a39.4,39.4,0,0,1,13.36,13,38.72,38.72,0,0,1,4.36,9.63l1.45-1.9a83.17,83.17,0,0,1-29.75-5.2,20.65,20.65,0,0,1-4.42-1.91,30.7,30.7,0,0,1-3.07-2.38,11.79,11.79,0,0,1-3.11-3.74,3.42,3.42,0,0,1,.53-3.22,21,21,0,0,1,5-5.48c1.51-1.22-.63-3.33-2.12-2.12a24.73,24.73,0,0,0-5.1,5.51,8,8,0,0,0-1.55,4.44,8.17,8.17,0,0,0,2.28,4.74,25,25,0,0,0,4.14,3.76,12.6,12.6,0,0,0,2.43,1.6,82.08,82.08,0,0,0,15.88,5.09,86,86,0,0,0,18.87,1.91,1.51,1.51,0,0,0,1.44-1.9,42.33,42.33,0,0,0-10.84-18.05c-4.78-4.72-11.3-9.22-18.11-10.15-3.68-.5-7.33.27-9.67,3.35C145.12,262.48,147.72,264,148.88,262.45Z" transform="translate(-17.85 -42.23)"/><path class="cls-4" d="M142.31,266.86c4.26.9,8.45,1.94,12.6,3.19,2.07.62,4.13,1.3,6.14,2.09a33,33,0,0,1,5.83,2.81,33.36,33.36,0,0,0-6-2.34c-2-.62-4.14-1.14-6.23-1.59-4.19-.92-8.44-1.63-12.67-2.18Z" transform="translate(-17.85 -42.23)"/><path class="cls-3" d="M198.78,193.91c6.41-1.21,13,1.9,17.64,6.51s7.6,10.56,10.51,16.4a59.52,59.52,0,0,1-44.26-6.74s-4.86-3.57-3.79-4.47,4.6-7.55,7.64-8.28S198.78,193.91,198.78,193.91Z" transform="translate(-17.85 -42.23)"/><path class="cls-3" d="M199.18,195.36c6-1.06,12,2,16.18,6.12,4.55,4.53,7.44,10.41,10.27,16.1l.9-2.21a58,58,0,0,1-38.28-4,30.88,30.88,0,0,1-5.53-3.14,20.06,20.06,0,0,1-1.88-1.69c-.17-.17-.44-.68-.64-.8l0,.09c-.1-.45-.2-.17-.28.84.06,0,.2-.22.24-.25a11.3,11.3,0,0,0,1.42-1.93c.67-1,1.34-2,2.07-2.87a13.2,13.2,0,0,1,2.19-2.29,5.86,5.86,0,0,1,2.18-.84c3.73-1,7.44-2.05,11.14-3.13a1.5,1.5,0,0,0-.8-2.89c-3.63,1.05-7.26,2.11-10.92,3.07a10.16,10.16,0,0,0-2.7.93,11.26,11.26,0,0,0-2.63,2.33c-1.44,1.66-2.69,3.84-4,5.39-.6.71-1.11,1.3-.86,2.31a5.43,5.43,0,0,0,1.51,2.25A19.24,19.24,0,0,0,183,212a60.33,60.33,0,0,0,20.32,7.14,61.44,61.44,0,0,0,24-.89,1.51,1.51,0,0,0,.89-2.2c-3.11-6.25-6.36-12.76-11.61-17.53-4.94-4.49-11.51-7.25-18.23-6.06C196.48,192.8,197.29,195.69,199.18,195.36Z" transform="translate(-17.85 -42.23)"/><path class="cls-4" d="M180.13,202.75c2.7-.37,5.4-.66,8.12-.81,1.36-.07,2.72-.11,4.09-.08a14.52,14.52,0,0,1,4.08.62c2.61.78,5.13,1.78,7.67,2.71,1.27.47,2.54.94,3.82,1.37.65.21,1.29.41,2,.58a5.63,5.63,0,0,0,2,.27,6,6,0,0,1-2-.2c-.66-.16-1.31-.34-2-.53-1.3-.39-2.59-.82-3.87-1.25-2.57-.85-5.13-1.78-7.73-2.47a13.79,13.79,0,0,0-3.95-.47c-1.34,0-2.68.09-4,.2-2.68.23-5.36.6-8,1Z" transform="translate(-17.85 -42.23)"/><path class="cls-5" d="M149.52,219.34c-7.88-12.11-24.87-17.32-38.19-11.7a3.48,3.48,0,0,0-1.91,1.46,3.65,3.65,0,0,0,.3,2.87c4.75,12,10.84,25.3,23,29.48,2.14.73,4.41,1.15,6.37,2.27,0,0,5.22,3.5,7.51,1.36s3.73-6.06,5.53-6.89,3.74-6.06,1.6-8.34S149.52,219.34,149.52,219.34Z" transform="translate(-17.85 -42.23)"/><path class="cls-5" d="M150.81,218.58a33.66,33.66,0,0,0-24.73-14.53,31.33,31.33,0,0,0-14.51,1.88,7.21,7.21,0,0,0-3,1.81,4.22,4.22,0,0,0-.42,4.23c.85,2.46,1.95,4.88,3,7.26,4,9,9.53,18.55,18.91,22.74,2.63,1.18,5.65,1.54,8.15,2.95a23.41,23.41,0,0,0,3.69,1.82c1.84.65,4,.88,5.63-.44,1.93-1.59,2.88-4,4.42-5.92.6-.74,1.45-1.06,2.09-1.75a8.43,8.43,0,0,0,1.7-3.07,8.82,8.82,0,0,0,.44-3.71,6.18,6.18,0,0,0-1.45-3.2c-2-2.72-2.91-6.48-3.75-9.71-.48-1.86-3.38-1.07-2.89.8a50.21,50.21,0,0,0,2.76,8.07A14,14,0,0,0,152,230a5.15,5.15,0,0,1,1.18,2,5.8,5.8,0,0,1-1.42,4.7c-.48.43-1.1.69-1.57,1.17a16.77,16.77,0,0,0-1.88,2.55c-.81,1.25-1.94,3.85-3.66,3.88a8.47,8.47,0,0,1-4.12-1.46,22.3,22.3,0,0,0-5.12-2.12,25.8,25.8,0,0,1-11.59-6.81,45.8,45.8,0,0,1-7.64-11c-1.06-2.06-2-4.16-3-6.28q-.67-1.58-1.32-3.15c-.35-.87-1.48-2.77-1.08-3.65.32-.73,2-1.1,2.68-1.34a28.76,28.76,0,0,1,3.3-.91,28.29,28.29,0,0,1,6.56-.62c9.74.17,19.46,5,24.87,13.22C149.28,221.7,151.88,220.2,150.81,218.58Z" transform="translate(-17.85 -42.23)"/><path class="cls-4" d="M151.35,240.89a74.32,74.32,0,0,1-6.61-4.81,34.77,34.77,0,0,1-3-2.81c-.23-.27-.47-.52-.69-.79l-.64-.85c-.18-.32-.38-.62-.54-1s-.28-.76-.35-1a13.11,13.11,0,0,0-1.67-3.51,26.13,26.13,0,0,0-2.4-3.17,21.63,21.63,0,0,0-2.91-2.75,10.69,10.69,0,0,0-3.52-1.88,10.68,10.68,0,0,1,3.66,1.68,21.71,21.71,0,0,1,3.13,2.6,25.43,25.43,0,0,1,2.66,3.1,14.14,14.14,0,0,1,2,3.64,7,7,0,0,0,2.15,3,32.2,32.2,0,0,0,3,2.5,71.75,71.75,0,0,0,6.71,4.28Z" transform="translate(-17.85 -42.23)"/><path class="cls-3" d="M204.64,157.14c-5.23-5.89-5.65-14.46-12.67-18-8.59-4.39-18.65-6.6-28-4.17a45.56,45.56,0,0,0,30.39,38s6.55,3.6,8,1.19S206.78,159.55,204.64,157.14Z" transform="translate(-17.85 -42.23)"/><path class="cls-3" d="M205.7,156.08c-4-4.55-5.06-10.87-9.14-15.34-2.3-2.51-5.49-3.86-8.6-5.1a45.91,45.91,0,0,0-11.22-2.92,35.29,35.29,0,0,0-13.15.75,1.51,1.51,0,0,0-1.1,1.45A47.35,47.35,0,0,0,181.64,168c4.36,3.21,9.24,5.18,14.12,7.24,1.93.81,4.59,1.85,6.62.81,1.68-.86,2.19-3.19,2.68-4.86a47.19,47.19,0,0,0,1.69-8.4c.23-2.2.44-4.91-1.05-6.73-1.22-1.49-3.33.64-2.12,2.12-.2-.25,0,.12.07.16-.11-.26.06.26.06.25a4.37,4.37,0,0,1,.15.95,17.64,17.64,0,0,1-.11,3.25,42.45,42.45,0,0,1-1.3,6.61c-.23.85-.48,1.7-.77,2.53a5,5,0,0,1-.58,1.4c-.93.74-3.67-.6-4.6-1-1.68-.76-3.4-1.36-5.08-2.1a42.68,42.68,0,0,1-7.53-4.27A44.59,44.59,0,0,1,172,153.45a42.62,42.62,0,0,1-6.54-18.53l-1.1,1.45c7.17-1.82,14.66-.84,21.54,1.69,3,1.11,6.29,2.37,8.51,4.8a27.7,27.7,0,0,1,4.11,7,35.27,35.27,0,0,0,5,8.38C204.85,159.66,207,157.53,205.7,156.08Z" transform="translate(-17.85 -42.23)"/><path class="cls-4" d="M203,172.17a112.11,112.11,0,0,1-8.37-7.64,44.88,44.88,0,0,1-3.74-4.29c-.57-.78-1.07-1.58-1.57-2.37s-1-1.57-1.57-2.34c-1.06-1.55-2.16-3.07-3.33-4.54a29.72,29.72,0,0,0-3.79-4.13,7.16,7.16,0,0,0-2.44-1.29l-2.68-.89a12.2,12.2,0,0,1-2.58-1.16,2.59,2.59,0,0,1-1.4-2.3,2.56,2.56,0,0,0,1.43,2.25,11.84,11.84,0,0,0,2.59,1.09l2.7.83a7.2,7.2,0,0,1,2.53,1.28,29.7,29.7,0,0,1,3.93,4.08c1.21,1.46,2.35,3,3.45,4.49.56.77,1.09,1.54,1.63,2.32s1,1.57,1.6,2.3a44.56,44.56,0,0,0,3.77,4.14,112.28,112.28,0,0,0,8.47,7.39Z" transform="translate(-17.85 -42.23)"/><path class="cls-5" d="M242.73,124.64c5.35-4.22,11.86-7.45,18.68-7.3s13.82,4.37,15.63,10.95a176.4,176.4,0,0,1-14.67,11.15c-5.88,4-13,7.81-19.81,5.7,0,0-6.08-1.11-9-4.45s1.16-7.43,1.16-7.43Z" transform="translate(-17.85 -42.23)"/><path class="cls-5" d="M243.79,125.7c5.3-4.14,12-7.43,18.85-6.79,5.65.52,11.32,4.16,12.95,9.78l.39-1.46a149.28,149.28,0,0,1-16.54,12.34,32.47,32.47,0,0,1-8.65,4.08,15.3,15.3,0,0,1-7.92,0,26.35,26.35,0,0,1-4.34-1.37c-1.77-.8-4.65-2.25-4.47-4.55s2.12-3.84,3.5-5.33l6.23-6.73c1.31-1.41-.81-3.54-2.12-2.12l-6.16,6.65c-1.85,2-4,4-4.38,6.84-.8,5.46,5.83,8.25,10.12,9.31a20.24,20.24,0,0,0,6.65.81,25.72,25.72,0,0,0,9.64-3.05,81.84,81.84,0,0,0,10.22-6.67q5.31-3.87,10.34-8.12a1.48,1.48,0,0,0,.38-1.46c-2-6.73-8.39-11-15.13-11.9-8-1-15.6,2.83-21.68,7.59C240.15,124.77,242.28,126.88,243.79,125.7Z" transform="translate(-17.85 -42.23)"/><path class="cls-4" d="M232.94,135.37a35.93,35.93,0,0,0,8.56-1.86,7.67,7.67,0,0,0,3.41-2.19,10.16,10.16,0,0,1,3.68-3,38.63,38.63,0,0,1,8.55-3.11,29.51,29.51,0,0,1,9-1,29.43,29.43,0,0,0-8.83,1.46,37.56,37.56,0,0,0-8.18,3.5A9,9,0,0,0,246,132a9,9,0,0,1-3.88,2.9,38,38,0,0,1-8.9,2.46Z" transform="translate(-17.85 -42.23)"/><path class="cls-3" d="M253.83,84.54c-1.25-5.34-5.28-8.72-9.51-11.35-4.78-3-9.64-6-15.2-7.24a21.76,21.76,0,0,0-17.47,3.17c2.24,15.12,10.83,27.79,23,33.95,0,0,11,3.61,12.74.65S255.19,90.3,253.83,84.54Z" transform="translate(-17.85 -42.23)"/><path class="cls-3" d="M255.28,84.14c-1.7-6.8-7.4-10.59-13.05-14-6.11-3.67-12.84-6.8-20.14-6.24a22.86,22.86,0,0,0-11.2,3.91,1.61,1.61,0,0,0-.69,1.7c2,12.82,8.64,25,19.49,32.36a20.23,20.23,0,0,0,5.38,2.88,44.14,44.14,0,0,0,5.68,1.32c2,.31,4.37.63,6.31-.21,1.69-.74,2.46-2.75,3.3-4.29A56.62,56.62,0,0,0,254.24,93c1-2.79,1.68-5.87,1-8.81-.41-1.89-3.3-1.09-2.89.79.49,2.28-.22,4.76-.94,6.91a47.17,47.17,0,0,1-3,7c-.43.85-.89,1.69-1.36,2.52-.2.35-.4.71-.61,1.06-.08.14-.16.29-.25.42s-.1.18,0,.13c-1,.8-3.34.4-4.6.21a40.67,40.67,0,0,1-5.33-1.21,15.69,15.69,0,0,1-4.14-2.1,39.92,39.92,0,0,1-11.86-11.93,48.44,48.44,0,0,1-7.12-19.22l-.69,1.69c7.08-4.87,15.59-4.21,23.05-.57A69.63,69.63,0,0,1,246,76.12a15.85,15.85,0,0,1,6.39,8.81C252.86,86.81,255.75,86,255.28,84.14Z" transform="translate(-17.85 -42.23)"/><path class="cls-4" d="M250.76,97.21,237.87,86.58l-6.5-5.26c-2.19-1.72-4.35-3.49-6.65-5,2.35,1.49,4.56,3.2,6.8,4.86l6.66,5.05,13.2,10.25Z" transform="translate(-17.85 -42.23)"/><path class="cls-3" d="M265.27,67.08c12.31-8,28.58-8.69,42.56-4.31,1.59.49,3.5,1.73,3,3.3a3.18,3.18,0,0,1-1.3,1.42A118.23,118.23,0,0,1,271.15,85.6s-9-.5-11.52-4.12S262.38,69,265.27,67.08Z" transform="translate(-17.85 -42.23)"/><path class="cls-3" d="M266,68.38a45.24,45.24,0,0,1,24.16-6.78,55.9,55.9,0,0,1,12.95,1.45c1.78.41,4.15.71,5.66,1.83.95.7.36,1-.42,1.57-1,.73-2,1.43-3.08,2.12a117.1,117.1,0,0,1-24.69,12.49q-3.32,1.2-6.68,2.2a9.59,9.59,0,0,1-3.35.8,23.84,23.84,0,0,1-7.12-1.61,5,5,0,0,1-2.81-2.22c-.52-1.26,0-2.88.37-4.1.88-2.67,2.67-6.17,5-7.75,1.59-1.08.09-3.68-1.51-2.59-2.69,1.81-4.55,5-5.79,8s-2.18,6.74.27,9.32c2.19,2.3,5.79,3.14,8.81,3.63a21,21,0,0,0,3.16.39,6.57,6.57,0,0,0,1.85-.39c1.27-.35,2.54-.73,3.8-1.13A119.84,119.84,0,0,0,305.53,72c1.05-.68,2.08-1.37,3.11-2.08a12.28,12.28,0,0,0,3.06-2.44c1.44-2,.32-4.11-1.52-5.28s-4.46-1.65-6.64-2.14a63.42,63.42,0,0,0-7.24-1.16c-11-1.12-22.42.9-31.78,6.89C262.9,66.83,264.4,69.42,266,68.38Z" transform="translate(-17.85 -42.23)"/><path class="cls-4" d="M256.84,75.71c6.69-2,13.4-3.94,20.22-5.49,1.71-.37,3.44-.72,5.18-.94s3.49-.36,5.24-.43a79.21,79.21,0,0,1,10.45.27,78.75,78.75,0,0,0-10.42.23,54.26,54.26,0,0,0-10.21,1.84c-6.68,1.86-13.28,4.1-19.82,6.42Z" transform="translate(-17.85 -42.23)"/><path class="cls-6" d="M193.3,385.69c-18.73-16.37-35.64-35.83-45.15-59.08a104.71,104.71,0,0,1-8-37.38,86.6,86.6,0,0,1,7.61-37.15c10.44-23.33,28.55-42.48,44.8-61.84,17.07-20.34,34-41.1,47.1-64.3,12.56-22.24,21.71-46.93,23.2-72.6q.29-4.83.19-9.66c0-1.93-3-1.94-3,0,.47,26.35-7.71,52-19.92,75.13-12.63,23.94-29.57,45.23-46.85,65.92-8.44,10.11-17.08,20.06-25.28,30.35-7.81,9.81-15.22,20-20.84,31.29a92,92,0,0,0-9.89,36,102.5,102.5,0,0,0,5.3,37.7c7.92,23.9,23.59,44.4,41.75,61.51q3.39,3.19,6.9,6.25c1.45,1.27,3.58-.85,2.12-2.12Z" transform="translate(-17.85 -42.23)"/><path class="cls-7" d="M52.79,180.46c16.9,6.92,35.67,15.74,44.73,32.47,5.12,9.45,6,20.36,5.53,30.92-.27,5.76-1,11.48-1.68,17.19s-1.73,11.63-1.18,17.46a28.59,28.59,0,0,0,5.57,14.77,41.74,41.74,0,0,0,11.5,10.17c9.09,5.6,19.57,8,29.29,12.22a51.91,51.91,0,0,1,13.51,8.14A77.91,77.91,0,0,1,170,334.41c6.2,7.79,11.57,16.26,18.61,23.35a66.45,66.45,0,0,0,55.6,18.59,61.21,61.21,0,0,0,7.21-1.41c3.73-1,2.15-6.75-1.6-5.78a60.31,60.31,0,0,1-53.88-12.72c-7.33-6.43-12.78-14.58-18.62-22.3-6.19-8.17-13-15.92-22.07-20.92-9.61-5.27-20.54-7.55-30.26-12.37-8.24-4.08-16.19-10.24-18.31-19.5-1.3-5.63-.43-11.6.31-17.26s1.44-11.11,1.85-16.7c.83-11.2.33-22.75-4.09-33.21C97,195.8,78.85,185.24,61.36,177.61c-2.31-1-4.64-2-7-2.93-1.5-.62-3.3.66-3.69,2.09a3.08,3.08,0,0,0,2.09,3.69Z" transform="translate(-17.85 -42.23)"/><path class="cls-8" d="M77.78,153.09c1.5-6.56,1.89-14.37-2.94-19.05-3.33-3.22-8.31-4-12.94-3.91-3.27.09-6.75.67-9.15,2.89-3.13,2.91-3.5,7.71-3,12a44.13,44.13,0,0,0,4,14.1c.44-5.36-4.87-9.54-10.09-10.86-5.43-1.37-11.54-.7-16,2.64s-6.91,9.59-5,14.85c1.44,4,5,6.87,8.93,8.47s8.17,2.08,12.38,2.54c-4.18-1-8.44-2-12.72-1.71s-8.68,2.08-11.1,5.63c-1.89,2.78-2.36,6.3-2.19,9.66a13.2,13.2,0,0,0,2.05,7.07c2.82,4,8.35,4.76,13.2,4.57,4.66-.18,9.47-1,13.26-3.74-2.47,4.75,0,10.8,4.08,14.31a10,10,0,0,0,5.43,2.67,13.31,13.31,0,0,0,5-.82c5.15-1.55,10.45-3.17,14.6-6.59s6.88-9.15,5.21-14.26c9.79,4.22,22.58-1.46,26-11.54a9.42,9.42,0,0,0,.56-4.6c-.53-3-3.21-5.14-6.08-6s-5.94-.62-8.93-.38c6.72-1.92,14.31-4.72,16.68-11.3a11.67,11.67,0,0,0-3.23-12.4A12,12,0,0,0,93,145.51c-5.19,2.41-8.91,8.56-14.63,8.31" transform="translate(-17.85 -42.23)"/><circle class="cls-9" cx="45.78" cy="129.89" r="16.04"/><path class="cls-7" d="M163,182.35a129,129,0,0,1,15.69,14.42,45.35,45.35,0,0,1,6.35,7.94c1.65,2.88,1.9,6,1.78,9.26-.12,3.5-.5,7-.41,10.48a100,100,0,0,0,.94,10.79c.93,7,2.27,14,2.6,21a43.34,43.34,0,0,1-3.13,19.3c-1.45,3.46-3.16,6.8-4.54,10.29a54,54,0,0,0-2.79,9.83c-2.65,14-.81,28.31-1.4,42.47a79.93,79.93,0,0,1-1.18,11.24c-.75,4-1.92,7.81-2.67,11.75a43.38,43.38,0,0,0-.8,6.31c-.09,2.07,0,4.15-.08,6.22a10.21,10.21,0,0,1-1.07,4.29,4,4,0,0,1-2.61,2.23c-3.73,1-2.15,6.76,1.6,5.78,3.48-.91,5.86-3.72,7.1-7,1.34-3.52.93-7.37,1-11.05a51.22,51.22,0,0,1,1.84-10.63,99.81,99.81,0,0,0,2.17-11.1c1.84-14.48-.38-29.1,1.08-43.6a62,62,0,0,1,5.62-19.86,74.32,74.32,0,0,0,4.21-10.41A45.7,45.7,0,0,0,196,261.12c.23-7.29-1-14.55-2-21.73s-1.86-14.12-1.38-21.27c.28-4.18.65-8.52-.65-12.59s-3.88-7.2-6.57-10.3a129.32,129.32,0,0,0-18.11-17.13,3.11,3.11,0,0,0-4.24,0c-1,1-1.29,3.24,0,4.25Z" transform="translate(-17.85 -42.23)"/><path class="cls-8" d="M167.51,163.85A14.06,14.06,0,0,0,155.19,144a10,10,0,0,0-6.69,2c-3.1,2.55-3.68,7.24-2.47,11.07s3.88,7,6.48,10.05c-2-6.77-10.3-9.63-17.33-9a11.27,11.27,0,0,0-4.65,1.22c-3.57,2-4.61,7.07-2.93,10.81s5.49,6.17,9.45,7.22,8.13.9,12.22.75c-3.54-.91-7.16-1.82-10.81-1.54s-7.38,1.95-9.2,5.12C126,187.36,130.73,195,137,197s13-.18,19-2.83c1.46,3-2.43,7.06-.34,9.69.85,1.05,2.32,1.31,3.66,1.47a26.59,26.59,0,0,0,10.18-.27c3.29-.91,6.39-3.15,7.48-6.39s-.43-7.37-3.66-8.46c7.29-.84,14.95-1.81,20.9-6.12a6.23,6.23,0,0,0,2.39-2.73c1.2-3.28-2.77-6.31-6.25-6.39S183.47,176.36,180,176a16.76,16.76,0,0,0,12.91-11.93,4.32,4.32,0,0,0,0-3,4.93,4.93,0,0,0-2.83-2c-4.47-1.75-9.24-3.42-14-2.66s-9.31,4.77-9,9.56" transform="translate(-17.85 -42.23)"/><circle class="cls-9" cx="144.09" cy="135.77" r="11.2"/></g></svg>