<svg id="Layer_1" data-name="Layer 1" xmlns="http://www.w3.org/2000/svg" xmlns:xlink="http://www.w3.org/1999/xlink" viewBox="0 0 665.25 556.09"><defs><style>.cls-1{fill:#eefffa;}.cls-2{fill:#684035;}.cls-3{fill:#f7c5ad;}.cls-4{fill:#fff;}.cls-5{fill:#004f35;}.cls-6{fill:#828282;}.cls-7{fill:#ffa682;}.cls-17,.cls-8{fill:none;stroke-miterlimit:10;}.cls-8{stroke:#000;}.cls-9{clip-path:url(#clip-path);}.cls-10{fill:#f6dff2;}.cls-11{fill:#40762a;}.cls-12{fill:#386829;}.cls-13{fill:#508b3f;}.cls-14{fill:#a2c76a;}.cls-15{fill:#dbca9e;}.cls-16{fill:#ab734e;}.cls-17{stroke:#6b6b6b;}.cls-18{fill:#515151;}.cls-19{fill:#f04cdc;}.cls-20{fill:#3d3d3d;}</style><clipPath id="clip-path"><path class="cls-1" d="M574.76,479.57c-.29-.79-.57-1.57-.85-2.36-4-11.22-7.51-22.65-12.23-33.59-5.06-11.71-11.65-23-21-31.64a70,70,0,0,1-6.95-6.72c-2.09-2.56-3.39-5.65-5-8.52-.95-1.67-13-20.84-13-20.84-9.08-18.07-11.6-39.16-9.64-59.38,1.58-16.29,5.88-33,1.33-48.72-1.37-4.75-3.69-9.46-7.67-12.4-3.11-2.28-6.93-3.3-10.54-4.64-13.27-4.91-24.2-14.45-35.31-23.21s-23.31-17.17-37.33-19.11c-16.07-2.22-32.58,2.64-48.34-1.22-5.45-1.34-19.08-3.46-19.08-3.46A84.77,84.77,0,0,1,336.44,202c-5.37-1-11.11-1.62-16.13.54s-8.79,8.09-6.75,13.15c1.32,3.27,4.56,5.28,7.6,7.06,10.63,6.22,21.43,12.4,33.24,15.87,5.2,1.53,10.53,2.52,15.82,3.67,14.24,3.1,28.94,7.82,38.83,18.52,5.41,5.85,9,13.14,14.36,19.06,5.14,5.72,12.23,11,12.7,18.63.33,5.25-2.85,10.32-7.25,13.21s-9.83,3.86-15.09,3.78c-11.71-.16-22.95-5.14-32.37-12.08s-17.27-15.77-24.9-24.65c-5.44-6.34-11-12.89-18.44-16.7a31.92,31.92,0,0,0-26.29-1.11,12,12,0,0,0-5.26,3.64c-2.15,2.91-1.85,7.08-.2,10.3s4.4,5.71,7.1,8.12c0,0,9.52,10.33,12.12,13.11,6.08,6.5,12.62,12.67,17.52,20.11,3.82,5.82,6.73,12.24,10.88,17.84,2.64,3.54,5.74,6.7,8.64,10,11.88,13.6,20.38,29.82,31.62,44,4,5,8.36,9.77,14,12.77,4.33,2.33,9.2,3.47,13.74,5.36a44.71,44.71,0,0,1,10.75,6.42s4.75,6.95,9.23,10.53a81.7,81.7,0,0,1,17.72,20.25c12.09,19.1,12.42,44,25.14,62.67Z"/></clipPath></defs><title>missionOneIllustration</title><path class="cls-1" d="M370.63,433.39c-31.43,33.33-87.27,51.78-140.08,46.28-13.33-1.38-26.79-4.32-37.4-10.73s-17.91-16.8-16.1-27.13c1-5.52,4.39-10.79,4-16.35-1-14.34-23.64-19.91-39.87-26.85C107.78,384.32,93,353,89,323.54c-3.6-26.92,1.62-57.42,28.49-74.72,20.87-13.45,49.71-15.76,76.58-18.79s56-8.52,72.1-25.47c19.18-20.21,12.64-49.07,26.32-71.81,16-26.58,55.25-39,91.56-47.24,18.77-4.27,38.46-8.12,57.72-5.45s37.94,13.67,40.42,28.71c1.68,10.2-4.12,20.38-3.38,30.65.93,12.77,11.86,23.88,24.45,32.16,17.72,11.65,39.13,19.27,59.46,28s40.44,19.1,52.82,34.34,15.19,36.37,1.23,50.76c-11,11.32-29.51,16.3-44.39,24.53-4.24,2.35-8.43,5.25-9.73,9.16-1.18,3.55.24,7.28,1.87,10.72,11.3,23.83,33.68,46.32,29.89,71.53-2.41,16.06-15.57,30.22-31.91,40.27-33.09,20.36-80.74,25.41-119.68,12.7-24.87-8.12-49-23.19-75.51-19.06"/><path class="cls-2" d="M27.68,172.09C12.88,169.76.49,177.27,0,188.87s11.15,22.89,26,25.22Z"/><path class="cls-2" d="M44.63,161.06c3.87-14.48,15.75-22.76,26.55-18.5S87.59,162,83.72,176.5Z"/><ellipse class="cls-2" cx="55.01" cy="195.56" rx="36.05" ry="36.94" transform="matrix(0.84, -0.55, 0.55, 0.84, -97.75, 61.65)"/><path class="cls-3" d="M83.27,180.79c-6.93-10.66-20.22-14.3-29.68-8.14a18.68,18.68,0,0,0-7,8.47A18.86,18.86,0,0,0,34,184c-9.46,6.15-11.51,19.78-4.58,30.44,4.74,7.28,12.46,11.29,19.89,11.12a31,31,0,0,0,2.82,5.53c7.75,11.91,22.21,16.25,32.3,9.69s12-21.54,4.23-33.46a31.22,31.22,0,0,0-3.15-4.05C88.52,196.54,88,188,83.27,180.79Z"/><ellipse class="cls-4" cx="45.84" cy="205.14" rx="8.61" ry="9.69" transform="translate(-104.46 58.2) rotate(-33.05)"/><ellipse class="cls-4" cx="67.49" cy="191.06" rx="8.61" ry="9.69" transform="translate(-93.28 67.72) rotate(-33.05)"/><ellipse cx="74.02" cy="225.1" rx="5.38" ry="5.45" transform="translate(-110.79 76.79) rotate(-33.05)"/><ellipse cx="48.94" cy="205.3" rx="4.84" ry="5.45" transform="translate(-104.05 59.91) rotate(-33.05)"/><ellipse cx="66.97" cy="193.56" rx="4.84" ry="5.45" transform="translate(-94.73 67.85) rotate(-33.05)"/><path d="M62.12,214.58l-.16-.24a1,1,0,0,0-.38-.42,1.26,1.26,0,0,0-.51-.27,1.22,1.22,0,0,0-.6,0,1.12,1.12,0,0,0-.56.18l-.3.24a1.39,1.39,0,0,0-.39.66l0,.4a1.5,1.5,0,0,0,.2.75l.16.24a1,1,0,0,0,.38.42,1.26,1.26,0,0,0,.51.27,1.22,1.22,0,0,0,.6,0,1.12,1.12,0,0,0,.56-.18l.3-.24a1.39,1.39,0,0,0,.39-.66l0-.4a1.5,1.5,0,0,0-.2-.75Z"/><path d="M70.89,209.21l-.16-.24a1,1,0,0,0-.38-.42,1.26,1.26,0,0,0-.51-.27,1.22,1.22,0,0,0-.6,0,1.12,1.12,0,0,0-.56.18l-.3.24a1.39,1.39,0,0,0-.39.66l0,.4a1.5,1.5,0,0,0,.2.75l.16.24a1,1,0,0,0,.38.42,1.26,1.26,0,0,0,.51.27,1.22,1.22,0,0,0,.6,0,1.12,1.12,0,0,0,.56-.18l.3-.24a1.39,1.39,0,0,0,.39-.66l0-.4a1.5,1.5,0,0,0-.2-.75Z"/><path d="M73,148.89a12.25,12.25,0,0,1,3.57,3.33,7.09,7.09,0,0,1,1.38,5c-.25,1.82-1.59,3.5-3.12,3.48-1.28,0-2.32-1.07-3.41-1.82a8,8,0,0,0-5.91-1.36c-1.54.26-3.16,1-4.56.22s-2.08-3-1.69-4.84a7.45,7.45,0,0,1,3-4.39,8.43,8.43,0,0,1,5.37-1.65A15.57,15.57,0,0,1,73,148.89Z"/><path d="M7,191.79a12,12,0,0,0,1.6,4.61,7.07,7.07,0,0,0,4,3.3c1.77.51,3.85,0,4.46-1.44.5-1.17,0-2.55-.29-3.85a8,8,0,0,1,1.15-6c.86-1.3,2.16-2.5,2.05-4.08s-1.88-3.11-3.75-3.5a7.42,7.42,0,0,0-5.22,1,8.48,8.48,0,0,0-3.69,4.24A15.64,15.64,0,0,0,7,191.79Z"/><path class="cls-2" d="M470.27,169.47c-5.4-10.46-17.56-13.67-27.16-7.17s-13,20.25-7.63,30.71Z"/><path class="cls-2" d="M488.65,176c11.54-4.86,23.5.23,26.73,11.38s-3.52,24.12-15.06,29Z"/><ellipse class="cls-2" cx="467.79" cy="204.99" rx="36.94" ry="36.05" transform="translate(116.4 575.63) rotate(-70.19)"/><path class="cls-3" d="M496.63,218.6c4.31-12-.81-24.76-11.44-28.58a18.57,18.57,0,0,0-11-.47,18.93,18.93,0,0,0-9.87-8.33c-10.62-3.83-22.72,2.76-27,14.72-2.95,8.18-1.48,16.75,3.14,22.58a29.7,29.7,0,0,0-2.7,5.58c-4.82,13.37.45,27.52,11.77,31.6s24.41-3.46,29.23-16.83a30.34,30.34,0,0,0,1.32-5C487.24,232.29,493.72,226.68,496.63,218.6Z"/><ellipse class="cls-4" cx="454.62" cy="203.46" rx="9.69" ry="8.61" transform="translate(109.13 562.22) rotate(-70.19)"/><ellipse class="cls-4" cx="478.91" cy="212.21" rx="9.69" ry="8.61" transform="translate(116.95 590.87) rotate(-70.19)"/><ellipse cx="455.72" cy="237.97" rx="5.45" ry="5.38" transform="translate(77.38 586.07) rotate(-70.19)"/><ellipse cx="451.67" cy="205.38" rx="5.45" ry="5.11" transform="translate(-42.8 246.5) rotate(-29.21)"/><ellipse cx="476.85" cy="213.86" rx="5.45" ry="5.11" transform="translate(-43.73 259.86) rotate(-29.21)"/><path d="M457,222l.1-.27a1.11,1.11,0,0,0,0-.6,1.26,1.26,0,0,0-.17-.56,1.31,1.31,0,0,0-.39-.42,1.26,1.26,0,0,0-.51-.27l-.4-.05a1.48,1.48,0,0,0-.76.21l-.3.23a1.49,1.49,0,0,0-.39.66l-.09.27a1.22,1.22,0,0,0,0,.6,1.09,1.09,0,0,0,.18.55,1,1,0,0,0,.39.42,1,1,0,0,0,.51.27l.39.06a1.43,1.43,0,0,0,.76-.21l.31-.23A1.57,1.57,0,0,0,457,222Z"/><path d="M466.56,225.7l.09-.26a1.22,1.22,0,0,0,0-.6,1.16,1.16,0,0,0-.18-.56,1.12,1.12,0,0,0-.39-.42,1.14,1.14,0,0,0-.51-.27l-.39-.05a1.45,1.45,0,0,0-.76.21l-.3.23a1.49,1.49,0,0,0-.39.66l-.1.27a1.69,1.69,0,0,0,.16,1.15,1,1,0,0,0,.38.42,1.06,1.06,0,0,0,.51.27l.4.06a1.48,1.48,0,0,0,.76-.21l.3-.23a1.47,1.47,0,0,0,.39-.67Z"/><path d="M511.19,190.67a14.07,14.07,0,0,1-.23,4.79,6.31,6.31,0,0,1-2.51,4,2.89,2.89,0,0,1-3.94-.57c-.68-1-.55-2.49-.65-3.81a9.37,9.37,0,0,0-2.32-5.57c-1-1.1-2.32-2-2.59-3.58a4.16,4.16,0,0,1,2.22-4.12,5.32,5.32,0,0,1,4.45,0,8.32,8.32,0,0,1,4,3.43A18.82,18.82,0,0,1,511.19,190.67Z"/><path d="M442.67,166.66a14.51,14.51,0,0,0-3,4.11,6.86,6.86,0,0,0-.53,5.07c.56,1.62,2.18,2.8,3.71,2.35,1.27-.37,2.13-1.65,3.08-2.66a9.51,9.51,0,0,1,5.67-2.95c1.58-.19,3.32,0,4.58-1.09a4.51,4.51,0,0,0,.87-5,6.18,6.18,0,0,0-3.73-3.22,8.69,8.69,0,0,0-5.63,0A19,19,0,0,0,442.67,166.66Z"/><path class="cls-5" d="M30.86,220.61c-2.77-2.51-4.41-6.23-7.29-8.6a14.33,14.33,0,0,0-10.15-2.84A42.91,42.91,0,0,0,3,211.71c1.13,2,1.91,4.15,3,6.12,4.26,7.49,13.63,11.14,21.43,8.36L31,224.24Z"/><path class="cls-5" d="M31.65,219.81c-2-1.88-3.4-4.26-5.13-6.38a14,14,0,0,0-6.3-4.54c-5.82-2-11.95-.13-17.54,1.74A1.14,1.14,0,0,0,2,212.28c2,3.57,3.25,7.33,6.23,10.26a20.14,20.14,0,0,0,8.5,5,18.46,18.46,0,0,0,9.7.18,23.2,23.2,0,0,0,5.15-2.46,1.11,1.11,0,0,0,.56-1L32,220.61c-.06-1.45-2.31-1.45-2.25,0l.17,3.63.56-1a21.79,21.79,0,0,1-4.29,2.15,16.06,16.06,0,0,1-8.83-.09,17.83,17.83,0,0,1-7.76-4.63C6.9,218,5.77,214.42,4,211.14l-.68,1.66c5.21-1.75,10.9-3.65,16.34-1.74,5,1.76,6.81,6.95,10.44,10.34C31.12,222.39,32.71,220.8,31.65,219.81Z"/><path class="cls-5" d="M31.31,220.47c1.09-3.7.63-7.78,1.88-11.42a15.71,15.71,0,0,1,7.19-8.16,43,43,0,0,1,10.1-3.78c0,2.31.45,4.6.48,6.91.12,8.75-6,17.17-14,19.25l-4,.38Z"/><path class="cls-5" d="M32.39,220.77c1.47-5.25.39-11,4.22-15.38,3.63-4.17,9-5.75,14.17-7.2l-1.42-1.08c.09,3.81.89,7.5,0,11.28a19.75,19.75,0,0,1-4.25,8.35,17.18,17.18,0,0,1-7.45,5.15,21.36,21.36,0,0,1-4.68.63l1,.56-1.67-3.18c-.67-1.28-2.62-.15-1.94,1.14L32,224.21a1.11,1.11,0,0,0,1,.56,23.54,23.54,0,0,0,5.61-.82,19.44,19.44,0,0,0,8.11-5.62,22,22,0,0,0,4.74-9c1.05-4.12.27-8.06.17-12.23A1.14,1.14,0,0,0,50.19,196c-5.5,1.55-11.29,3.32-15.17,7.78a15.05,15.05,0,0,0-3.47,7.09c-.59,3.08-.48,6.25-1.33,9.28A1.13,1.13,0,0,0,32.39,220.77Z"/><path class="cls-5" d="M78.77,285.54c-5.06-1.52-10-3.69-15.32-3.94s-11.23,1.92-14,7L60.08,295a20.72,20.72,0,0,0,5.63,2.66c3.19.78,6.57,0,9.82-.81a4.59,4.59,0,0,0,3.06-1.7l5-6.41Z"/><path class="cls-5" d="M79.07,284.45c-5.88-1.78-11.9-4.53-18.19-3.9-5,.5-9.84,3-12.35,7.49a1.14,1.14,0,0,0,.4,1.54c4.28,2.58,8.5,5.39,12.92,7.72a14.26,14.26,0,0,0,6.63,1.78A29.08,29.08,0,0,0,75.36,298a6.63,6.63,0,0,0,4-2.14L80.9,294l3.44-4.44a1.16,1.16,0,0,0-.22-1.77l-4.78-3.18c-1.21-.81-2.34,1.14-1.14,1.94L83,289.7l-.23-1.77L79.6,292,78,294.07a4.45,4.45,0,0,1-2.77,1.68,27.1,27.1,0,0,1-6.75,1.08,12.65,12.65,0,0,1-6.28-1.91c-4.1-2.32-8.1-4.85-12.13-7.28l.4,1.54c2.29-4.13,6.83-6.27,11.44-6.45,5.73-.24,11.19,2.26,16.56,3.89A1.13,1.13,0,0,0,79.07,284.45Z"/><path class="cls-5" d="M81.31,283.59c0-5.6-.51-11.29.75-16.78s4.87-10.94,10.22-12.3l2.77,12.61a24.19,24.19,0,0,1,.82,6.5c-.19,3.48-1.85,6.72-3.47,9.82-.57,1.09-1.25,2.28-2.4,2.65l-7.15,3.28Z"/><path class="cls-5" d="M82.44,283.59c0-5.94-.67-12.13,1.09-17.91,1.35-4.44,4.37-8.81,9-10.09l-1.39-.78c1,4.66,2.12,9.31,3.07,14a15.77,15.77,0,0,1,.13,7.1,28,28,0,0,1-2.46,6c-.69,1.34-1.22,2.62-2.64,3.28l-2.23,1-4.78,2.19,1.65.67-1.53-5.78a1.13,1.13,0,0,0-2.17.6l1.53,5.78a1.14,1.14,0,0,0,1.65.67l5.3-2.43c.64-.29,1.29-.57,1.92-.87,1.79-.85,2.59-2.72,3.44-4.4a29.26,29.26,0,0,0,2.49-6.15,17.11,17.11,0,0,0,.14-6.91c-.86-5.15-2.21-10.27-3.34-15.37a1.14,1.14,0,0,0-1.38-.79c-5.09,1.39-8.52,5.82-10.27,10.61-2.27,6.22-1.49,13.08-1.52,19.56A1.13,1.13,0,0,0,82.44,283.59Z"/><path class="cls-5" d="M61.55,252.13a33.31,33.31,0,0,1,1.82-4.84A19.19,19.19,0,0,0,64,236.37a23.1,23.1,0,0,0-4.46-9,47,47,0,0,0-7.47,18.5c-.27,1.53-.42,3.24.3,4.41a33.87,33.87,0,0,0,2.51,4.38c1.29,1.81,3.4.66,3.4.66Z"/><path class="cls-5" d="M62.63,252.43c.55-2.35,1.85-4.43,2.42-6.78a20.25,20.25,0,0,0,.45-7.15,24.09,24.09,0,0,0-5.16-12,1.13,1.13,0,0,0-1.77.22c-4,5.91-7.21,13.25-7.81,20.44-.22,2.61,1.17,4.89,2.51,7,.77,1.22,1.62,2.33,3.15,2.5a4.09,4.09,0,0,0,2.42-.48,24.45,24.45,0,0,0,3.5-3.33c1-1-.55-2.6-1.59-1.59l-1.63,1.57L58,254c-.17.17-.76.54-.3.33-1.1.5-1.81-.17-2.47-1.22a31.3,31.3,0,0,1-1.87-3.41c-.73-1.58-.25-3.43.09-5.07A46.92,46.92,0,0,1,55,238.9a45.92,45.92,0,0,1,5.52-11l-1.77.23a21.09,21.09,0,0,1,4.58,11.24,18,18,0,0,1-.62,6.33c-.6,2.1-1.75,4-2.25,6.14C60.13,253.24,62.3,253.84,62.63,252.43Z"/><path class="cls-5" d="M49.75,263.92c-2.19-.07-4.36.62-6.55.93a21.72,21.72,0,0,1-13.61-2.75A29.22,29.22,0,0,1,20,252.89a54.29,54.29,0,0,1,25.18-4.27c2,.14,4.12.49,5.31,1.88A44.85,44.85,0,0,1,55,255.45c1.79,2.4-.33,5-.33,5Z"/><path class="cls-5" d="M49.75,262.79c-3,0-5.77,1-8.72,1.12a20.76,20.76,0,0,1-8.1-1.45,26.62,26.62,0,0,1-12-10.14l-.41,1.54a53.1,53.1,0,0,1,24.61-4.12,6.84,6.84,0,0,1,4.52,1.57c.8.77,1.59,1.54,2.35,2.36,1.14,1.22,2.92,2.73,2.5,4.57-.12.52-.49.9-.64,1.38s.1-.17.2-.15c-.05,0-.28.19-.31.21-1.57,1-3.07,2.18-4.6,3.27-1.17.83,0,2.78,1.14,1.94,1.56-1.11,3.14-2.21,4.7-3.33,2.27-1.65,2.25-5,.64-7.1a38.91,38.91,0,0,0-3.82-4.2,8.27,8.27,0,0,0-3.26-2.2,22.09,22.09,0,0,0-6.33-.7,52.62,52.62,0,0,0-7.21.38,56.78,56.78,0,0,0-15.62,4.18,1.13,1.13,0,0,0-.41,1.54,29.43,29.43,0,0,0,12.54,10.85,23.14,23.14,0,0,0,8.4,1.85c3.33.08,6.49-1.14,9.8-1.12A1.13,1.13,0,0,0,49.75,262.79Z"/><path class="cls-5" d="M27.71,217.19a42.32,42.32,0,0,0,8.17,19,45.88,45.88,0,0,0,7.58,7.55c3,2.41,5.94,4.79,8.21,7.9,2,2.81,3.66,5.91,5.75,8.69a21.93,21.93,0,0,0,3.5,3.77c1.44,1.2,3,2.16,4.56,3.27,3.28,2.42,5.56,5.79,7.88,9.09l7.54,10.74L97.84,311.3c.55.78,1.85,0,1.29-.76L84.19,289.27l-7.4-10.54a97.86,97.86,0,0,0-7-9.44c-2.61-2.9-6.14-4.53-8.9-7.21-2.58-2.52-4.33-5.71-6.26-8.71a35.43,35.43,0,0,0-6.82-8,106.3,106.3,0,0,1-8.25-7.18,40.67,40.67,0,0,1-10.42-21.42c-.16-.95-1.6-.54-1.45.4Z"/><rect x="100.02" width="16.25" height="37.19" rx="6.71"/><rect class="cls-6" x="108.36" y="7.75" width="7.91" height="29.44" rx="3.26"/><rect x="130.57" width="16.25" height="37.19" rx="6.71"/><rect class="cls-6" x="138.92" y="7.75" width="7.91" height="29.44" rx="3.26"/><rect x="161.12" width="16.25" height="37.19" rx="6.71"/><rect class="cls-6" x="169.47" y="7.75" width="7.91" height="29.44" rx="3.26"/><rect x="191.67" width="16.25" height="37.19" rx="6.71"/><rect class="cls-6" x="200.02" y="7.75" width="7.91" height="29.44" rx="3.26"/><rect x="222.22" width="16.25" height="37.19" rx="6.71"/><rect class="cls-6" x="230.57" y="7.75" width="7.91" height="29.44" rx="3.26"/><rect x="252.78" width="16.25" height="37.19" rx="6.71"/><rect class="cls-6" x="261.12" y="7.75" width="7.91" height="29.44" rx="3.26"/><rect x="283.33" width="16.25" height="37.19" rx="6.71"/><rect class="cls-6" x="291.67" y="7.75" width="7.91" height="29.44" rx="3.26"/><rect x="313.88" width="16.25" height="37.19" rx="6.71"/><rect class="cls-6" x="322.22" y="7.75" width="7.91" height="29.44" rx="3.26"/><rect class="cls-7" x="72.5" y="24.54" width="283.08" height="367.79" rx="15.11"/><rect class="cls-4" x="110.73" y="65.34" width="206.62" height="286.17"/><path d="M130.86,107.06a28.61,28.61,0,0,1-1-10.54c.08-.85.21-4.51,1.88-4.12.66.15.89,1.27,1.07,1.81.3.88.55,1.77.78,2.66a.76.76,0,0,0,1.37.18c1.28-1.7.52-4,1.73-5.74a4,4,0,0,1,5.77-.79,8.7,8.7,0,0,1,2,3.13,29,29,0,0,1,1.44,3.57,33.05,33.05,0,0,1,1.58,7.55c.08,1,1.58,1,1.5,0A34.48,34.48,0,0,0,147.09,96a33.9,33.9,0,0,0-1.84-4.19,7.05,7.05,0,0,0-2.52-2.94,5.47,5.47,0,0,0-8.13,3.53c-.28,1.31-.09,2.75-.93,3.87l1.37.18A34.75,34.75,0,0,0,134,93a3.27,3.27,0,0,0-1.44-1.93c-1.71-.88-3.27.76-3.71,2.27a22.1,22.1,0,0,0-.58,6.88,30.23,30.23,0,0,0,1.16,7.2.75.75,0,0,0,1.44-.4Z"/><path d="M154.88,94.2c3.13,1.44,3.27,5.33,3.31,8.3a.75.75,0,0,0,1.5,0c-.05-3.49-.41-7.92-4.05-9.59a.77.77,0,0,0-1,.27.75.75,0,0,0,.27,1Z"/><path d="M153.64,86.39a1.36,1.36,0,0,0-1.46.41,1.46,1.46,0,0,0-.23,1.65,1.74,1.74,0,0,0,1.13.89,2.2,2.2,0,0,0,1.57-.22c1.61-.84,2.73-3.52,1.07-4.86a3.91,3.91,0,0,0-2.95-.59.76.76,0,0,0-.75.75.78.78,0,0,0,.75.75,7.09,7.09,0,0,1,.92,0l.43,0c-.19,0,0,0,.06,0l.26.07.08,0c.1,0-.12-.06,0,0a.91.91,0,0,1,.17.09l.1.06s-.1-.09,0,0l.18.19c-.09-.1,0,0,0,.07a.25.25,0,0,1,0,.07s0-.15,0,0l.06.2V86h0a1.48,1.48,0,0,1,0,.21.49.49,0,0,1,0,.12s0-.16,0,0a2.83,2.83,0,0,1-.13.44c0,.11.06-.1,0,0a.3.3,0,0,1,0,.08l-.1.2-.12.18-.07.1c.06-.08,0,0,0,0s-.21.22-.32.33l-.06,0,0,0-.23.14c-.12.07,0,0,0,0l-.13,0-.09,0c-.1,0,.09,0,0,0s-.15,0-.19,0,.18,0,0,0l-.11,0h0l-.12-.07c-.07,0,0,0,0,0s-.13-.12,0,0,0,0,0,0,0,.09,0,0,0-.12,0,0,0,.06,0,0,0,0,0,.07,0-.07,0-.08-.07.12,0,0-.08.14,0,0l0,0-.07,0s.08-.06.08,0l-.08,0h0s-.08,0,0,0c-.18,0-.06,0,0,0a.74.74,0,0,0,.92-.52.77.77,0,0,0-.52-.92Z"/><path d="M167.78,90a5.68,5.68,0,0,0-3.85,3.08,1.87,1.87,0,0,0-.24,1.34,1.73,1.73,0,0,0,1.05.91,15.71,15.71,0,0,0,3,1,7.91,7.91,0,0,1,2.78,1,2,2,0,0,1,.94,1.93c-.22.82-1.25,1.17-2,1.41a12.31,12.31,0,0,1-3.23.62c-1,0-1,1.55,0,1.5a13.82,13.82,0,0,0,3.24-.55,6.58,6.58,0,0,0,2.56-1.25,3.06,3.06,0,0,0-.38-4.64c-1.6-1.35-3.92-1.33-5.79-2.11a5.89,5.89,0,0,0-.77-.35c-.2-.12-.18-.09.06.11a1.59,1.59,0,0,1,.12-.27,4,4,0,0,1,.71-1,4.33,4.33,0,0,1,2.17-1.22c.94-.21.54-1.66-.4-1.44Z"/><path d="M179.81,88.08a13.93,13.93,0,0,0-3.05,1.11c-.76.37-2,.89-1.83,2s1.43,1.19,2.16,1.53a20.39,20.39,0,0,1,2.69,1.52c1.44,1,3.56,2.39,3.7,4.3a1.75,1.75,0,0,1-1.33,2,5.47,5.47,0,0,1-3.14-.57c-.91-.34-1.3,1.11-.4,1.45,1.87.7,4.41,1.27,5.78-.66,1.18-1.68.45-3.81-.78-5.22a17.27,17.27,0,0,0-5.19-3.8c-.44-.22-.9-.43-1.36-.62a3.63,3.63,0,0,0-.68-.3q-.18.6.18.27l.37-.22a13.11,13.11,0,0,1,3.28-1.27c.94-.23.54-1.67-.4-1.44Z"/><path d="M188.92,88.81a6,6,0,0,0,1.48,2,4.13,4.13,0,0,1,1.22,2.27A14,14,0,0,1,191,99.2a.75.75,0,0,0,1.45.4,16,16,0,0,0,.68-6.52A5.31,5.31,0,0,0,192,90.43c-.53-.66-1.36-1.2-1.68-2s-1.79-.51-1.44.39Z"/><path d="M187.63,82.37a2,2,0,0,0-1.36.64,1.56,1.56,0,0,0,2,2.4,3.19,3.19,0,0,0,1.06-.94,6.08,6.08,0,0,0,.84-1.29,2.81,2.81,0,0,0-.35-3,5.51,5.51,0,0,0-3-1.62.75.75,0,1,0-.4,1.44A4.69,4.69,0,0,1,188.6,81a1.55,1.55,0,0,1,.27.4.68.68,0,0,1,.08.22s0,.23,0,.13a1.75,1.75,0,0,1-.3,1,4.86,4.86,0,0,1-.69.94,1.27,1.27,0,0,1-.36.31c-.24.13.08-.06-.12,0s-.09,0,0,0h-.14c-.18,0,.1,0-.08,0s-.09,0,0,0l-.12-.07,0,0h0a.33.33,0,0,1,.05.23.57.57,0,0,1,0-.14c-.05.11.05-.08.06-.1s.08-.08.1-.1h0l.13-.08c-.14.07.23,0,.06,0a.78.78,0,0,0,.75-.75.76.76,0,0,0-.75-.75Z"/><path d="M208.55,89.5c-.85-1-2.34-.81-3.45-.4a13.44,13.44,0,0,0-3.33,1.76,8.65,8.65,0,0,0-2.46,2.72c-.59,1.1-1.08,2.56-.39,3.71A6.9,6.9,0,0,0,202,99.8a7,7,0,0,0,4.28.81,5.21,5.21,0,0,0,2.95-2.49A8.62,8.62,0,0,0,210.59,94c.13-2.85-1.93-5.78-5-5.77a.75.75,0,0,0,0,1.5,3.72,3.72,0,0,1,3.45,3.54,6.41,6.41,0,0,1-.63,3.19,5.66,5.66,0,0,1-1.83,2.38c-1,.64-2.16.26-3.19-.1a7.12,7.12,0,0,1-2.61-1.51,2,2,0,0,1-.75-1.14,3.46,3.46,0,0,1,.36-1.41,6.36,6.36,0,0,1,1.69-2.19,10.55,10.55,0,0,1,2.73-1.69c.69-.3,2-1,2.64-.25s1.66-.31,1.06-1.06Z"/><path d="M215.5,100.53a20.48,20.48,0,0,1,1.3-8,3.76,3.76,0,0,1,2.35-2.44,1.51,1.51,0,0,1,2,1.63,22.35,22.35,0,0,0-.32,3.27,11.68,11.68,0,0,0,.6,3.2,11.44,11.44,0,0,0,3.68,5.27c.75.59,1.82-.46,1.06-1.06a10.06,10.06,0,0,1-3.84-7.51,18.46,18.46,0,0,1,.3-3,3,3,0,0,0-3.35-3.36c-2.13.25-3.4,2.14-4.05,4a23.25,23.25,0,0,0-1.19,8,.75.75,0,0,0,1.5,0Z"/><path d="M260.9,85.84c-1.46-3.13-5.7-5.36-9-3.93-1.85.79-3.52,2.6-4.84,4.07A13.94,13.94,0,0,0,244,91a8.26,8.26,0,0,0,3.35,9.81,12.57,12.57,0,0,0,5,1.72,4.39,4.39,0,0,0,4.67-1.81,16.57,16.57,0,0,0,2.83-13c-.18-.94-1.63-.54-1.44.4A15.11,15.11,0,0,1,257,97.8c-.71,1.4-1.66,3.33-3.43,3.35a10.72,10.72,0,0,1-4.32-1,6.71,6.71,0,0,1-4.2-7.5c.6-3.39,3.07-6,5.58-8.14a5.35,5.35,0,0,1,2.59-1.47,5.83,5.83,0,0,1,2.65.26,6.14,6.14,0,0,1,3.7,3.27c.41.87,1.7.11,1.3-.76Z"/><path d="M264.54,103.63a18.5,18.5,0,0,1-.23-5.09,4.9,4.9,0,0,1,1.54-3.46,1.71,1.71,0,0,1,1.81-.31,4.49,4.49,0,0,1,.75.76c.29.31.59.53.67,1,.14.79,0,1.63.13,2.43a9.21,9.21,0,0,0,.6,2.59,5.73,5.73,0,0,0,3.51,3.43c.92.29,1.31-1.16.39-1.44a4.67,4.67,0,0,1-2.86-3.69,16.19,16.19,0,0,1-.23-2.87,4.06,4.06,0,0,0-.18-1.15,3.29,3.29,0,0,0-.85-1.2,3.75,3.75,0,0,0-2.07-1.43,3.38,3.38,0,0,0-2.35.57,5.82,5.82,0,0,0-2.25,4,19,19,0,0,0,.17,6.33c.16,1,1.61.55,1.45-.39Z"/><path d="M283.15,99.63a23.72,23.72,0,0,0,3.06-1.75c.48-.32,1-.67,1.4-1a1.87,1.87,0,0,0,.87-1.36c0-1-1.08-2-1.9-2.47a3,3,0,0,0-3.09.18,8.8,8.8,0,0,0-2.4,2.39,9.66,9.66,0,0,0-1.55,3.07,4.62,4.62,0,0,0,2.23,5c2.3,1.49,5.2,1,7.73.53.95-.18.55-1.63-.4-1.45a11.51,11.51,0,0,1-5.47.15,3.84,3.84,0,0,1-2.73-2.84,4,4,0,0,1,.62-2.29A10.38,10.38,0,0,1,283,95.63a4.17,4.17,0,0,1,1.93-1.42c.8-.19,1.46.46,1.94,1,.14.15.15.16,0,.3a3.56,3.56,0,0,1-.53.41c-.41.31-.83.61-1.26.89a26.06,26.06,0,0,1-2.69,1.5c-.87.42-.11,1.71.76,1.29Z"/><path d="M135,144.32a152.82,152.82,0,0,1,54-4c9.05.89,18.05,2.24,27.1,3.13a215.17,215.17,0,0,0,27.22.94,215.69,215.69,0,0,0,30.43-3.11c.95-.17.55-1.61-.4-1.45a212,212,0,0,1-54.82,2.34c-9.06-.79-18.06-2.14-27.11-3.1a168.28,168.28,0,0,0-27-.89,149.47,149.47,0,0,0-29.8,4.72.75.75,0,0,0,.4,1.45Z"/><path d="M133.74,171.42a440.55,440.55,0,0,1,55.2-2.41c18.4.17,36.78,1,55.18,1.23,10.42.17,20.84.16,31.26-.18,1,0,1-1.54,0-1.5-18.47.61-36.94.13-55.41-.38s-36.74-1-55.11-.46c-10.4.32-20.78,1-31.12,2.2-.94.12-1,1.62,0,1.5Z"/><path d="M135.7,203.06c18.77,1.92,37.66,2.16,56.51,2s37.76-.74,56.64-.37c10.65.21,21.3.72,31.9,1.75,1,.09,1-1.41,0-1.5-18.78-1.82-37.66-2-56.52-1.81s-37.75.74-56.63.32c-10.65-.24-21.3-.79-31.9-1.88-.95-.1-.95,1.4,0,1.5Z"/><path d="M138.49,248.25q28.95-1.12,57.94-1.26t57.95.71q8.21.24,16.41.56c2.62.1,5.25.23,7.87.32a12.34,12.34,0,0,0,6.44-1.05c.86-.45.1-1.75-.76-1.29-2,1-4.19.91-6.34.82l-7.21-.3q-7.08-.27-14.17-.49-14.3-.44-28.6-.64-28.61-.39-57.21.17-16.16.33-32.32.95c-1,0-1,1.54,0,1.5Z"/><path d="M135.6,283.24c9.83.8,19.64-.41,29.39-1.61s19.61-2.05,29.46-2.55c19.85-1,39.74-1.63,59.61-1.94,11.3-.17,22.61-.16,33.91.2a.75.75,0,0,0,0-1.5c-20-.63-39.91-.19-59.85.46-19.75.64-39.57,1-59.21,3.35-11.06,1.31-22.16,3-33.31,2.09-1-.08-1,1.42,0,1.5Z"/><path d="M227.65,333.87q28.8-1.28,57.63-.7,8.21.16,16.39.48a.75.75,0,0,0,0-1.5q-28.8-1.11-57.63-.36-8.19.21-16.39.58c-1,0-1,1.54,0,1.5Z"/><path class="cls-8" d="M282.73,290.5"/><path class="cls-1" d="M574.76,479.57c-.29-.79-.57-1.57-.85-2.36-4-11.22-7.51-22.65-12.23-33.59-5.06-11.71-11.65-23-21-31.64a70,70,0,0,1-6.95-6.72c-2.09-2.56-3.39-5.65-5-8.52-.95-1.67-13-20.84-13-20.84-9.08-18.07-11.6-39.16-9.64-59.38,1.58-16.29,5.88-33,1.33-48.72-1.37-4.75-3.69-9.46-7.67-12.4-3.11-2.28-6.93-3.3-10.54-4.64-13.27-4.91-24.2-14.45-35.31-23.21s-23.31-17.17-37.33-19.11c-16.07-2.22-32.58,2.64-48.34-1.22-5.45-1.34-19.08-3.46-19.08-3.46A84.77,84.77,0,0,1,336.44,202c-5.37-1-11.11-1.62-16.13.54s-8.79,8.09-6.75,13.15c1.32,3.27,4.56,5.28,7.6,7.06,10.63,6.22,21.43,12.4,33.24,15.87,5.2,1.53,10.53,2.52,15.82,3.67,14.24,3.1,28.94,7.82,38.83,18.52,5.41,5.85,9,13.14,14.36,19.06,5.14,5.72,12.23,11,12.7,18.63.33,5.25-2.85,10.32-7.25,13.21s-9.83,3.86-15.09,3.78c-11.71-.16-22.95-5.14-32.37-12.08s-17.27-15.77-24.9-24.65c-5.44-6.34-11-12.89-18.44-16.7a31.92,31.92,0,0,0-26.29-1.11,12,12,0,0,0-5.26,3.64c-2.15,2.91-1.85,7.08-.2,10.3s4.4,5.71,7.1,8.12c0,0,9.52,10.33,12.12,13.11,6.08,6.5,12.62,12.67,17.52,20.11,3.82,5.82,6.73,12.24,10.88,17.84,2.64,3.54,5.74,6.7,8.64,10,11.88,13.6,20.38,29.82,31.62,44,4,5,8.36,9.77,14,12.77,4.33,2.33,9.2,3.47,13.74,5.36a44.71,44.71,0,0,1,10.75,6.42s4.75,6.95,9.23,10.53a81.7,81.7,0,0,1,17.72,20.25c12.09,19.1,12.42,44,25.14,62.67Z"/><g class="cls-9"><rect class="cls-10" x="323.57" y="160.86" width="225.07" height="369.96" transform="translate(-83.77 147.02) rotate(-17.49)"/><path class="cls-11" d="M492.93,511.58a29.15,29.15,0,0,1-4.76-22.88c.53-2.32,1.36-4.58,1.4-7,.1-6.46-5.38-12.22-5.23-18.68.05-2.2.77-4.28,1-6.47,1.05-11.22-11.28-21.13-9.73-32.25.32-2.32,1.26-4.48,1.55-6.81a18.17,18.17,0,0,0-1.12-8.15c-1.83-5.21-5.5-10.1-10.39-11.71s-10.83,1.1-11.83,6.4c-.62,3.27.61,6.84-.09,10.09-1.33,6.17-9.21,10.31-7,16.42.86,2.4,3.07,3.93,4.52,6,5.87,8.42-3,20.64,1.47,30,2.56,5.33,8.95,8.25,10.17,14,.72,3.42-.64,6.77-1,10.18-1,9,4.89,17.38,10.38,24.59l11,5.5Z"/><path class="cls-12" d="M461.93,413c3.43,5.45,1.88,12,.95,18a29,29,0,0,0-.33,9,25.2,25.2,0,0,0,3.14,7.87c1.43,2.67,2.69,5.39,2.43,8.49s-1.69,5.95-2.4,8.95a21.75,21.75,0,0,0,2.57,15.9c1.78,2.95,4.07,5.53,5.31,8.79a19.72,19.72,0,0,1,.95,10.59c-.08.47.64.67.73.2a21.47,21.47,0,0,0-3.89-16.35,29.92,29.92,0,0,1-4.53-8.3,21,21,0,0,1-.66-9.44c.51-3,1.87-5.76,2.44-8.74a12.87,12.87,0,0,0-1-7.94c-1.2-2.68-2.92-5.13-3.81-7.95-1.09-3.45-.78-7.13-.23-10.65.95-6.2,2.6-13.05-1-18.75-.26-.41-.91,0-.65.37Z"/><path class="cls-11" d="M493.81,504c9.29-2.67,10-17,17.15-23.76,1.63-1.56,3.64-2.77,4.68-4.86,1.67-3.36.23-7.67.42-11.58.4-8.09,7.47-13.1,12.08-19.22a33.32,33.32,0,0,0,6.06-14.08c.88-4.86.68-10.24-1.72-14.68s-7.39-7.53-11.78-6.28c-4.66,1.32-7.09,6.66-8.41,11.68s-2.19,10.56-5.57,14.17c-2.34,2.51-5.66,3.81-7.77,6.54-5.2,6.73-.57,17.36-1.26,26.32-1,12.86-13,21.25-15.14,33.87l0,7.32,4.12,1.23Z"/><path class="cls-12" d="M522.37,425.09a18.46,18.46,0,0,1-1.09,13.23,15.07,15.07,0,0,1-3.95,5c-1.68,1.36-3.61,2.38-5.29,3.74-3.73,3-4.28,7.46-4.77,12l-.93,8.61c-.28,2.64-.44,5.5-2,7.74s-3.68,3.7-5.19,5.87a23.35,23.35,0,0,0-3.32,7.22.37.37,0,0,0,.72.2,23,23,0,0,1,3.25-7.05c1.42-2,3.41-3.53,4.91-5.48a12.4,12.4,0,0,0,2.16-6.21c.35-2.81.61-5.63.91-8.44a54.65,54.65,0,0,1,1.15-8.17,11.11,11.11,0,0,1,4.5-6.36,54.82,54.82,0,0,0,5.14-3.7,15.85,15.85,0,0,0,3.47-4.73,19.28,19.28,0,0,0,1.08-13.65.37.37,0,0,0-.72.2Z"/><path class="cls-13" d="M494.68,508.48c-2.49-6.76-.93-14.82,3.76-19.51,2-2,4.74-3.7,5.36-6.68.9-4.32-3.12-8.83-2.22-13.15.77-3.68,4.71-5.33,6.3-8.63,4.12-8.51-9.36-19-6-27.91,1.2-3.16,4.26-5,5.76-8s1.24-6.89.27-10.33c-2-7-7.06-13.49-13.59-15.25s-14,2.39-15.1,9.45c-1,6.65,3.29,14.54-.17,20-1.21,1.89-3.21,3.13-4.05,5.25-2.66,6.71,8.09,13.61,6.32,20.71-.92,3.68-5,5.52-5.81,9.23-.65,2.86.8,5.86,2.16,8.54,3,5.9,5.87,13.2,2.9,18.75a37.77,37.77,0,0,0-2.29,3.89c-2,5.11,2.57,11.23,1.62,16.75l6.91,7.79Z"/><path class="cls-12" d="M489.71,416a12.64,12.64,0,0,1,3.65,9.56c-.22,3.6-2.14,6.77-3.51,10a17.71,17.71,0,0,0-1.45,9.3,16.88,16.88,0,0,0,1.15,4.3c.7,1.69,1.75,3.21,2.5,4.88,2.58,5.73-2.11,10-4.77,14.57a10.56,10.56,0,0,0-1.67,6.22c.27,2.91,2.12,5.27,3.33,7.83a7.87,7.87,0,0,1,.71,5.74,25.14,25.14,0,0,1-2.55,5,15.87,15.87,0,0,0-1.82,10.73c.08.48.8.28.72-.2a15.87,15.87,0,0,1,2.33-11.16c1.5-2.56,2.88-5.18,2.12-8.23s-2.94-5.35-3.8-8.28c-.8-2.73.09-5.32,1.51-7.66,2.38-3.94,6.4-7.88,5.26-12.91a17.77,17.77,0,0,0-2-4.45,18.78,18.78,0,0,1-2.09-5.3A17.76,17.76,0,0,1,491,434.86c1.48-3.28,3.22-6.56,3.15-10.25a13.42,13.42,0,0,0-3.89-9.13c-.34-.35-.87.18-.53.53Z"/><path class="cls-14" d="M419.69,411.29c5.16-2.85,8.2-7.37,4.09-8.85-2.6-.93-6.95-.52-8.64-2-2.41-2.12,2.31-6.47.53-8.89-1.19-1.62-4.83-1.78-7.87-2.2-6.24-.84-11-3.24-13.18-6.67a3.76,3.76,0,0,1-.66-3.27c.77-2.42,4.88-5,9-5.95s8.05-.3,9.9,1.33c2.55,2.25,1.58,6.1,5,7.86,2.37,1.21,6.32,1.13,9.58,1.63s6.13,2.07,4.61,4.43c-.66,1-2,2-2.75,3-1.3,1.89,0,3.49,1.85,4.49s4.29,1.65,5.68,2.91c2.56,2.34.53,6.69-4.45,9.55l-12.73,6.49S409.16,417.1,419.69,411.29Z"/><path class="cls-14" d="M438.14,410.46c2.84-4.59,12.29-8.47,14.37-13,1.2-2.62-.33-5,2-7.61,1.8-2,5.32-3.51,8.36-5.08,6-3.09,10.91-7.22,12.44-11.19s-.83-7.6-6.4-8.45a15.5,15.5,0,0,0-6.61.43,17.22,17.22,0,0,0-8.41,5.8c-1.82,2.26-3.15,4.61-5.85,6.7-2.2,1.69-5.23,3.15-6.81,5-2.59,3-.17,5.58-1.21,8.56-.6,1.72-2.33,3.49-4,5.21l-9.06,9.17s-.88,3.6,2.17,4.71,4.46,2.31,6.39,1.72A4.65,4.65,0,0,0,438.14,410.46Z"/><path class="cls-14" d="M438.62,409.53c3.33,1.28,9.41-.66,13.91-2.86s9-4.92,14-5.77a36.69,36.69,0,0,1,7.12-.27c3.07.05,6.24,0,9.48-.28a27.86,27.86,0,0,0,4.61-.63,24.75,24.75,0,0,0,9.85-5.47c2-1.73,3.93-3.64,4-5.35.22-3.32-6-4.1-11.7-3.82a16.14,16.14,0,0,0-3.94.56,23.72,23.72,0,0,0-5.12,2.69A36.55,36.55,0,0,1,467.5,393c-2.3.32-4.53.39-6.86.83-5.23,1-10.05,3.72-14.46,6.28,0,0-8.45,4.1-9.11,5.91S438.62,409.53,438.62,409.53Z"/><path class="cls-14" d="M423.88,416.47c7.78-1.3,10.85,3.93,18.36,3.45,2.85-.19,5.89-1.18,8.86-1.83s6.3-.9,7.67.24a4.37,4.37,0,0,1,1,2c1.11,2.72,5.64,4.25,11.09,3.52s11.41-3.78,13.52-7.06c1.28-2,.82-4.2-2.07-4.48-1.42-.14-3.17.21-4.67.17-4.74-.11-5.65-3.82-10.48-3.8-3.72,0-8.07,2.27-11.93,2.53-5.52.37-6.9-3.28-11.12-4.46-5.51-1.54-14.64,1.53-20.67,5.34,0,0-4.52,2.21-4.63,3.19S423.88,416.47,423.88,416.47Z"/><path class="cls-15" d="M454.27,377.2s0,0,0,0v0a.56.56,0,0,1-.05.08s0,0,0,0l0,.05-.07.08-.09.08-.06.05-.21.15c-.31.21-.65.38-.95.59a2.58,2.58,0,0,0-.82.79.68.68,0,0,0,.24,1,.38.38,0,0,0,.51-.14.38.38,0,0,0-.13-.51l-.05,0s.05,0,0,0,0,0,0,0,0,0,0,0,0,.09,0,0c0,.12,0,0,0,0s-.05.06,0,0a.41.41,0,0,1,.05-.09c0-.06,0,0,0,0a.27.27,0,0,1,.07-.08,3,3,0,0,1,.78-.57,7.7,7.7,0,0,0,.89-.6,1.38,1.38,0,0,0,.54-.7.37.37,0,1,0-.72-.2Z"/><path class="cls-15" d="M462.32,372.76c0,.08,0,0,0,0v.06a.56.56,0,0,1,0,.13c0,.08,0-.08,0,0s0,.05,0,.07a.5.5,0,0,1,0,.13.19.19,0,0,0,0,.07s0-.07,0,0l-.06.13-.09.15,0,.07s-.06.09,0,0a2.9,2.9,0,0,1-.52.53l-.08.07,0,0-.18.13-.39.23a.37.37,0,1,0,.37.65,4.48,4.48,0,0,0,1.47-1.23,1.79,1.79,0,0,0,.38-1.41.38.38,0,0,0-.46-.26.39.39,0,0,0-.26.46Z"/><path class="cls-15" d="M463.71,379.81a3.07,3.07,0,0,0-2.09.36c-.5.24-1.23.72-1.18,1.36a.38.38,0,0,0,.37.37.38.38,0,0,0,.38-.37v-.08s0,.11,0,0a.14.14,0,0,1,0-.06c0,.1,0,0,0,0l0-.06s.06-.05,0,0l.13-.13.06-.06.06-.05.06,0,.08-.05a2.46,2.46,0,0,1,.39-.22l.11-.05,0,0,.23-.08a3,3,0,0,1,.43-.12h.56c.09,0-.08,0,0,0l.1,0a.39.39,0,0,0,.47-.26.38.38,0,0,0-.27-.46Z"/><path class="cls-15" d="M446.71,386.92c-.06,0,0,0,0,0l.08,0,.18,0h.21c-.07,0,0,0,0,0l.06,0,.06,0,0,0,0,0,.05,0,0,0,0,0,0,0,0,0s0-.06,0,0l0,0s0-.09,0,0h0c0-.09,0,0,0,0s0-.1,0-.05v0s0,.08,0,0v0a.16.16,0,0,1,0,.07l0,.06,0,0s0,0,0,0a1.31,1.31,0,0,0-.11.12,2.73,2.73,0,0,1-.25.23l-.08.07,0,0s-.08.06,0,0h0l-.05,0-.09.07-.36.25a.38.38,0,1,0,.38.65c.26-.19.53-.37.78-.58a2.32,2.32,0,0,0,.55-.62.79.79,0,0,0,0-.81,1,1,0,0,0-.66-.43,1.65,1.65,0,0,0-1.07.14.37.37,0,0,0-.14.51.38.38,0,0,0,.51.13Z"/><path class="cls-15" d="M446.2,394.85a4.3,4.3,0,0,0-1.65.87,1.63,1.63,0,0,0-.67,1.26.38.38,0,0,0,.38.37.38.38,0,0,0,.37-.37v-.12s0,.1,0,0,0,0,0-.06a.14.14,0,0,0,0-.06c0-.06,0,.08,0,0a.67.67,0,0,1,.06-.12l.07-.12c0-.06,0,.06,0,0l.05-.07a2.73,2.73,0,0,1,.25-.23l.06-.06c.08-.06-.06.05,0,0l.15-.11.35-.21.18-.08.09,0,0,0a2.8,2.8,0,0,1,.41-.13.38.38,0,1,0-.2-.73Z"/><path class="cls-15" d="M488,388.76c0,.08,0-.07,0,0l0,.06-.05.08,0,0a2.65,2.65,0,0,1-.24.25,3.6,3.6,0,0,1-.69.46,4.05,4.05,0,0,1-1.72.46.38.38,0,0,0,0,.75,4.74,4.74,0,0,0,2.14-.59,2.6,2.6,0,0,0,1.34-1.33.37.37,0,0,0-.26-.46.39.39,0,0,0-.46.27Z"/><path class="cls-15" d="M465.42,395.48l2.62-.38a.37.37,0,1,0-.2-.72l-2.62.38a.37.37,0,0,0-.26.46.38.38,0,0,0,.46.26Z"/><path class="cls-15" d="M472.83,398.08a11,11,0,0,0,4.56.07.37.37,0,0,0,.26-.46.38.38,0,0,0-.46-.26,10.05,10.05,0,0,1-4.16-.07.37.37,0,0,0-.2.72Z"/><path class="cls-15" d="M480.2,393.76a7.08,7.08,0,0,0-2.63-.32.39.39,0,0,0-.38.37.39.39,0,0,0,.38.38,6.1,6.1,0,0,1,2.44.3.38.38,0,0,0,.46-.27.39.39,0,0,0-.27-.46Z"/><path class="cls-15" d="M493.11,392.17l.09.09s0-.08,0,0l0,.05s0-.1,0,0a.07.07,0,0,1,0,.05s0-.1,0,0v.07c0,.07,0-.05,0,0a.13.13,0,0,1,0,.06.14.14,0,0,1,0,.06s0,.09,0,0v0l0,.06-.08.13,0,0s.05-.06,0,0l-.06.07-.11.12-.13.12-.06.05,0,0a3.62,3.62,0,0,1-.68.41l0,0c-.06,0,.08,0,0,0l-.1,0-.23.08a3.71,3.71,0,0,1-.48.1.38.38,0,0,0,.2.73,3.86,3.86,0,0,0,1.75-.75,2,2,0,0,0,.91-1.33.88.88,0,0,0-.32-.73.37.37,0,1,0-.53.53Z"/><path class="cls-15" d="M450.52,400.92l-1.08.76a.39.39,0,0,0-.17.23.37.37,0,0,0,0,.29.4.4,0,0,0,.52.13l1.08-.76a.39.39,0,0,0,.17-.23.33.33,0,0,0,0-.29.37.37,0,0,0-.51-.13Z"/><path class="cls-15" d="M400.87,381.77l.2.07-.09,0a1,1,0,0,1,.23.13l-.07-.06a.86.86,0,0,1,.13.14l0-.08a.71.71,0,0,1,.08.15l0-.09a.57.57,0,0,1,0,.14v0a.66.66,0,0,1-.06.2l0-.09v0a.36.36,0,0,0,0,.29.38.38,0,0,0,.46.26.38.38,0,0,0,.22-.17,1.07,1.07,0,0,0,.12-.52,1,1,0,0,0-.14-.47,1.3,1.3,0,0,0-.83-.56.36.36,0,0,0-.29,0,.34.34,0,0,0-.17.22.38.38,0,0,0,.26.46Z"/><path class="cls-15" d="M409.76,382l1.51.61a.41.41,0,0,0,.29,0,.39.39,0,0,0,.17-.23.34.34,0,0,0,0-.28.46.46,0,0,0-.23-.18l-1.51-.61a.41.41,0,0,0-.29,0,.4.4,0,0,0-.17.22.36.36,0,0,0,0,.29.4.4,0,0,0,.22.18Z"/><path class="cls-15" d="M416.21,387h.6a.38.38,0,0,0,.26-.11.33.33,0,0,0,.11-.26.35.35,0,0,0-.11-.27.36.36,0,0,0-.26-.11h-.6a.36.36,0,0,0-.26.11.35.35,0,0,0-.11.27.33.33,0,0,0,.11.26.36.36,0,0,0,.26.11Z"/><path class="cls-15" d="M424.52,389.07l.67,1a.41.41,0,0,0,.23.18.42.42,0,0,0,.29,0,.36.36,0,0,0,.17-.23.35.35,0,0,0,0-.28l-.67-1a.44.44,0,0,0-.23-.17.38.38,0,0,0-.28,0,.39.39,0,0,0-.18.22.36.36,0,0,0,0,.29Z"/><path class="cls-15" d="M426.48,398.68a2.55,2.55,0,0,0,1.69,1.57.38.38,0,1,0,.2-.73l-.13,0,0,0,0,0-.06,0a1.34,1.34,0,0,1-.24-.12l-.21-.13-.05,0c.09.06,0,0,0,0l-.09-.08-.16-.16,0-.05c0-.05.05.08,0,0l-.06-.09a1.62,1.62,0,0,1-.1-.18s0-.08,0,0,0,0,0,0l0-.11a.39.39,0,0,0-.46-.26.38.38,0,0,0-.27.46Z"/><path class="cls-15" d="M432.67,405.57l-.66.69a.39.39,0,0,0-.11.27.36.36,0,0,0,.11.26.33.33,0,0,0,.26.11.35.35,0,0,0,.27-.11l.66-.69a.41.41,0,0,0,.11-.26.4.4,0,0,0-.11-.27.44.44,0,0,0-.27-.11.41.41,0,0,0-.26.11Z"/><path class="cls-15" d="M434.93,409.62l-.08.06,0,0s0,0,0,0-.07.06-.09.07l-.09.06-.4.26-.43.23-.23.1-.06,0h0l-.07,0a.44.44,0,0,0-.23.17.48.48,0,0,0,0,.29.38.38,0,0,0,.47.26,6.61,6.61,0,0,0,1.87-1.08.38.38,0,0,0,0-.53.39.39,0,0,0-.54,0Z"/><path class="cls-15" d="M441.88,411.85l-1.3.91a.41.41,0,0,0-.18.23.42.42,0,0,0,0,.29.37.37,0,0,0,.51.13l1.3-.92a.4.4,0,0,0,.18-.22.42.42,0,0,0,0-.29.37.37,0,0,0-.51-.13Z"/><path class="cls-15" d="M441.18,402.59l.13,0h-.1a1.37,1.37,0,0,1,.35,0h-.1a1,1,0,0,1,.23.06l-.09,0,.13.07-.08-.06.08.08-.06-.08a.43.43,0,0,1,0,.07l0-.09a.14.14,0,0,1,0,.07v-.13a.32.32,0,0,1,0,.09l0-.09,0,.07a.37.37,0,1,0,.65.37.69.69,0,0,0,.11-.4.73.73,0,0,0-.19-.43.74.74,0,0,0-.31-.21,1.58,1.58,0,0,0-.43-.1,1.84,1.84,0,0,0-.52.05.4.4,0,0,0-.22.17.37.37,0,0,0,0,.29.39.39,0,0,0,.46.26Z"/><path class="cls-15" d="M475.44,415.2l2.16.15A.38.38,0,0,0,478,415a.39.39,0,0,0-.38-.38l-2.16-.15a.38.38,0,0,0-.38.37.39.39,0,0,0,.38.38Z"/><path class="cls-15" d="M471.51,418.16l-2-.29a.39.39,0,0,0-.46.26.38.38,0,0,0,.26.46l2,.29a.39.39,0,0,0,.46-.26.38.38,0,0,0-.26-.46Z"/><path class="cls-15" d="M462.64,412.16a10.35,10.35,0,0,0-3.56.79.4.4,0,0,0-.27.46.38.38,0,0,0,.47.26,9.67,9.67,0,0,1,3.36-.76c.48,0,.48-.77,0-.75Z"/><path class="cls-15" d="M448.44,415.47l.21-.15a.36.36,0,0,0,.11-.1.54.54,0,0,0,.07-.13.38.38,0,0,0,0-.15.25.25,0,0,0,0-.14l-.06-.07a.37.37,0,0,0-.17-.1h-.1a.34.34,0,0,0-.19.05l-.21.15a.36.36,0,0,0-.11.1.26.26,0,0,0-.06.13.26.26,0,0,0,0,.15.28.28,0,0,0,0,.13l.06.08a.37.37,0,0,0,.17.1h.1a.41.41,0,0,0,.19,0Z"/><path class="cls-11" d="M537.66,360.55c-3.72-5-8.76-9.32-13.35-13.85a55.05,55.05,0,0,0-9-7.58,46,46,0,0,0-11-4.85c-14.74-4.61-30.31-4.86-43.13-.72,5.37,9.85,14.77,18.49,25.48,24.86S509.31,369,521.3,371.75c0,0,13.3.2,14.37-2.05S539.51,363,537.66,360.55Z"/><path class="cls-12" d="M480.3,342.56a158.85,158.85,0,0,1,46.61,18.08.38.38,0,0,0,.38-.65,159.4,159.4,0,0,0-46.79-18.15c-.47-.1-.67.62-.2.72Z"/><path class="cls-16" d="M297.58,368.17c4.86-13.89,18.77-22.71,30.38-30.54a240,240,0,0,1,41.71-22.87c15.4-6.41,31.56-10.78,47.65-15.08,8.19-2.19,16.9-4.29,25.38-2.5,7.38,1.56,13.87,5.76,19.67,10.43,11.27,9.08,21.92,19.91,28,33.24,6.42,14.17,5.67,30.22,10.8,44.76a44.26,44.26,0,0,0,9.67,16.49c5,5.15,11.58,7.89,18.57,9.2A240.23,240.23,0,0,0,553.46,414a167.28,167.28,0,0,0,25.52.5c16.62-1.14,31.91-7,47.23-13.14l24.29-9.69,5.74-2.29a11.16,11.16,0,0,1,2.64-1,24.55,24.55,0,0,1,2.94.28c2.41,0,4.18-1.7,3.11-4.11-.87-1.94-3.22-2.35-4-.12-.64,1.83,2.26,2.61,2.9.8l-1.66.43.06.14,0,.19q-.07-.42-.45-.33c-.69-.11-1.45-.19-2.15-.24-1.88-.16-3.54.75-5.24,1.43l-11.81,4.71c-7.79,3.11-15.57,6.24-23.37,9.31a190.06,190.06,0,0,1-22.76,7.76,103,103,0,0,1-24.22,3.11,217.89,217.89,0,0,1-24.49-1.3c-7.7-.75-15.75-1.12-23.17-3.46-13.69-4.32-20.06-17.57-23-30.67-1.69-7.66-2.52-15.48-4.21-23.14a67.9,67.9,0,0,0-7.7-20c-7-11.89-17.44-22.05-28.47-30.23-5.65-4.2-12-7.77-19.05-8.95-7.95-1.33-15.95.22-23.64,2.21-15.7,4.06-31.48,8.38-46.57,14.35a233.4,233.4,0,0,0-40.57,21.15c-6.22,4-12.36,8.22-18.22,12.75-5.33,4.13-10.41,8.71-14.23,14.31a36.73,36.73,0,0,0-4.3,8.56c-.64,1.82,2.26,2.61,2.9.8Z"/><path class="cls-11" d="M301.64,207.4c-6.92,21.24-9.56,44.48-1.39,65.28a85.76,85.76,0,0,0,45.42,46.91c4.26-15.22,8.54-30.59,9.38-46.37S353,241,344,228c-4.12-5.95-9.48-11.15-12.37-17.79,0,0-11.12-14.59-14.81-13.57S303,203.27,301.64,207.4Z"/><path class="cls-12" d="M335.2,293.11c-1.68-18.46-11.37-34.69-16.86-52.09A79.68,79.68,0,0,1,315,225.54c-.05-.47-.8-.48-.75,0,2,18.43,11.74,34.6,17.07,52.08a76.51,76.51,0,0,1,3.18,15.49c0,.48.79.48.75,0Z"/><path class="cls-13" d="M307.49,215.68a49.23,49.23,0,0,0,6.38,11.93c4,5.75,11,10.07,18,14a138.28,138.28,0,0,0,23.63,10.82,109,109,0,0,0,63.75.78q-5.37-10.12-11.8-19.94c-3.64-5.53-7.59-11-13.24-15.59-13.72-11-35.08-14.75-55.08-17.9,0,0-15.72-2.26-23,.06S304,205.56,307.49,215.68Z"/><path class="cls-12" d="M398.3,246.26a116.4,116.4,0,0,0-28.38-14.8,162.52,162.52,0,0,0-16.33-4.81,82.47,82.47,0,0,1-16.76-5.72c-6-3-11.82-6.5-17.66-9.82a.38.38,0,0,0-.38.65c5.19,3,10.33,6,15.62,8.78a74.77,74.77,0,0,0,16,6.09c5.55,1.44,11.11,2.76,16.54,4.59a125.44,125.44,0,0,1,15.5,6.41,110.67,110.67,0,0,1,15.43,9.27c.39.29.77-.36.38-.64Z"/><path class="cls-11" d="M418.27,303.76c-4.59,4.86-7.84,10.83-11.5,16.43a45.22,45.22,0,0,0-5.59,10.66,35.69,35.69,0,0,0-1.39,12,66.75,66.75,0,0,0,17,42.39c9.89-7.65,16.63-18.94,20-31s3.61-24.81,2-37.21c0,0-5.27-13.06-8.48-13.56S420.55,301.35,418.27,303.76Z"/><path class="cls-12" d="M419.8,364.16a123.37,123.37,0,0,1,2.92-49.9.37.37,0,0,0-.72-.2,124.26,124.26,0,0,0-2.92,50.3c.07.47.79.27.72-.2Z"/><path class="cls-14" d="M480.9,249.39c-3.57,2.89-5.1,8.52-1.5,11.38,2.28,1.8,5.7,2.12,7.35,4.51,2.37,3.42-.55,8.47,1.36,12.17,1.29,2.47,4.25,3.43,6.78,4.61a25.2,25.2,0,0,1,11.94,11.87,10.17,10.17,0,0,1,1.19,4.65A7.11,7.11,0,0,1,502,305a8.82,8.82,0,0,1-8.23-3.84c-2.51-3.62-2.5-8.74-5.62-11.85-2.15-2.15-5.31-2.84-8-4.18s-5.35-4.1-4.6-7.05c.32-1.27,1.24-2.33,1.6-3.6.67-2.35-.69-4.81-2.39-6.56s-3.78-3.15-5.15-5.17a9.63,9.63,0,0,1,1.66-12.27l8.93-6.39S488.2,243.48,480.9,249.39Z"/><path class="cls-14" d="M466.23,246.81c-1.35,5.76-8.17,9.21-8.93,15.09-.43,3.37,1.28,7-.06,10.11-1,2.42-3.57,3.76-5.7,5.31-4.18,3.06-7.32,7.78-7.74,12.94s2.19,10.66,6.84,12.95a7.52,7.52,0,0,0,5.23.73c2.82-.76,4.58-3.56,5.59-6.31s1.61-5.72,3.36-8.05c1.43-1.9,3.57-3.3,4.47-5.5,1.48-3.62-1-7.66-.75-11.56a16.89,16.89,0,0,1,2.19-6.38l5.43-10.83s0-4.79-2.7-6.94-4-4.09-5.48-3.66A2.88,2.88,0,0,0,466.23,246.81Z"/><path class="cls-14" d="M466,248c-2.94-2.44-7.44-1-10.6,1.15s-6.24,5-10.06,5.15a18.52,18.52,0,0,1-5.67-1.06,54.28,54.28,0,0,0-7.57-1.53,11.56,11.56,0,0,0-3.57-.05c-3,.54-5.18,3-6.83,5.56-1.29,2-2.42,4.23-2.17,6.57.49,4.54,5.68,6.87,10.18,7.63a6.83,6.83,0,0,0,3.05,0c1.45-.43,2.47-1.67,3.57-2.68a14.34,14.34,0,0,1,9.78-3.74c1.79,0,3.57.38,5.35.23,4-.33,7.33-3.1,10.36-5.75,0,0,6-4,6.14-6.31S466,248,466,248Z"/><path class="cls-14" d="M476.5,241.4c-6,.22-9.52-7.62-15.46-8.46-2.26-.33-4.5.43-6.76.73s-4.89,0-6.21-1.87a11.57,11.57,0,0,1-1.24-3,10.84,10.84,0,0,0-9.63-7.09,9.73,9.73,0,0,0-9.44,7c-.63,2.49.18,5.62,2.56,6.59,1.17.48,2.51.36,3.72.71,3.83,1.11,5.31,6.4,9.19,7.35,3,.74,6-1.51,9.09-1.08,4.36.6,6.2,5.91,9.83,8.39,4.74,3.24,11.47.83,15.55-3.2,0,0,3.18-2.14,3.08-3.47S476.5,241.4,476.5,241.4Z"/><path class="cls-15" d="M460,289.25a.67.67,0,0,1,.08-.3,1.23,1.23,0,0,1,.24-.31c.21-.23.46-.41.66-.65a1.41,1.41,0,0,0,.2-1.89c-.34-.35-.87.18-.53.53.08.09,0,0,0,0s.05.07,0,0a.49.49,0,0,1,0,.11s0,0,0,0a.71.71,0,0,1-.06.31,1.62,1.62,0,0,1-.47.61,2.24,2.24,0,0,0-.94,1.53.38.38,0,0,0,.75,0Z"/><path class="cls-15" d="M454.48,293.93c0-.06,0-.12,0-.18s0-.06,0-.1h0a2.17,2.17,0,0,1,0-.36,1.09,1.09,0,0,1,0-.18c0-.07,0,0,0,0s0-.06,0-.1a2.14,2.14,0,0,1,.09-.34,1,1,0,0,1,.11-.26,3.07,3.07,0,0,1,.17-.31,1.43,1.43,0,0,1,.19-.24,3.45,3.45,0,0,1,.28-.26.39.39,0,0,0,0-.53.4.4,0,0,0-.53,0,3.07,3.07,0,0,0-1,3.09.37.37,0,1,0,.72-.2Z"/><path class="cls-15" d="M451.67,283.8a1.76,1.76,0,0,0,2.46-.9,1.47,1.47,0,0,0,.07-.83.38.38,0,0,0-.73.2c0,.11,0,0,0,0v.16c0,.1,0-.06,0,0a.83.83,0,0,0,0,.15l0,0s0,0,0,0,0,.06,0,.08l-.09.13c0,.06.06-.06,0,0l0,.05-.14.13,0,0,0,0-.08,0-.14.09s-.07,0-.08,0,.06,0,0,0l0,0-.16,0-.09,0s.08,0,0,0h-.18s-.07,0,0,0h-.09l-.07,0h0s0,0,0,0a1.4,1.4,0,0,0-.16-.1.4.4,0,0,0-.52.14.37.37,0,0,0,.14.51Z"/><path class="cls-15" d="M464.11,277.73s-.08,0,0,0-.07,0-.08,0,.07,0,0,0,0,0,0,0l-.06,0s-.08-.05,0,0l-.07,0,0,0s0,0,0,0l-.06-.07s-.06-.08,0,0l0-.07a.25.25,0,0,0,0-.07s0,.06,0,0l0-.09s0-.1,0,0a1.21,1.21,0,0,1,0-.19s0,0,0,0l0-.11,0-.1c0-.07,0,0,0,0l.09-.18a1.27,1.27,0,0,1,.13-.19.35.35,0,0,1,.05-.08l0,0,.3-.34a.4.4,0,0,0,0-.54.39.39,0,0,0-.53,0,2.4,2.4,0,0,0-.85,2,1.17,1.17,0,0,0,1.62.85.37.37,0,1,0-.38-.64Z"/><path class="cls-15" d="M462.84,266.57a2.16,2.16,0,0,0,1.56-2.48.37.37,0,0,0-.46-.26.38.38,0,0,0-.27.46s0,.06,0,.08,0-.06,0,0v.19a.76.76,0,0,0,0,.15v0s0,0,0,.06,0,.1,0,.15l0,.08s0,.1,0,0a1.74,1.74,0,0,1-.14.27l0,.06s-.06.08,0,0l0,0-.06.06-.1.11-.06.05c-.07.06,0,0,0,0l-.26.15-.05,0,0,0-.08,0-.16.05a.37.37,0,0,0-.26.46.38.38,0,0,0,.46.26Z"/><path class="cls-15" d="M430.55,266.5s0-.06,0-.09,0,0,0,0a1,1,0,0,1,.05-.16l0-.1c0-.07,0,.06,0,0a1.09,1.09,0,0,1,.08-.15l.09-.14c.06-.08-.05.05,0,0l.06-.07.12-.12.07-.06.05,0s0,0,0,0a2,2,0,0,1,.31-.19s.1,0,0,0l.08,0,.16-.05.17,0c-.09,0,0,0,0,0h.29l.1,0a.39.39,0,0,0,.46-.26.39.39,0,0,0-.26-.47,2.23,2.23,0,0,0-2.66,2,.38.38,0,0,0,.38.38.38.38,0,0,0,.37-.38Z"/><path class="cls-15" d="M447.47,262.13h-2a.38.38,0,0,0,0,.75h2a.38.38,0,0,0,.38-.38.38.38,0,0,0-.38-.37Z"/><path class="cls-15" d="M441,257.06a6.39,6.39,0,0,0-3.71-1c-.48,0-.48.77,0,.75a5.68,5.68,0,0,1,3.33.91c.41.27.78-.38.38-.64Z"/><path class="cls-15" d="M435.52,261.17a5,5,0,0,0,2.27,1,.39.39,0,0,0,.46-.26.38.38,0,0,0-.26-.46,5.07,5.07,0,0,1-.56-.13l-.27-.09-.13-.06h0l0,0a3.8,3.8,0,0,1-.49-.26l-.25-.15-.11-.08-.06-.05s0,0,0,0a.37.37,0,1,0-.53.53Z"/><path class="cls-15" d="M425.88,261.1a1.74,1.74,0,0,1-.11-.18l0-.05s0,.05,0,0l0-.08a1.77,1.77,0,0,1,0-.2c0,.09,0,0,0,0a.41.41,0,0,1,0-.11c0-.07,0-.13,0-.19s0,0,0,0v-.05s0-.06,0-.09a.66.66,0,0,1,.06-.2l0-.06s0,.05,0,0l.05-.09a1.62,1.62,0,0,1,.1-.18l.05-.07c0-.07,0,0,0,0a.86.86,0,0,1,.13-.14l.08-.08c.07-.07-.06,0,0,0l.17-.1.09,0h0l.06,0,.19,0c.08,0-.07,0,0,0h.12a.38.38,0,0,0,.37-.38.38.38,0,0,0-.37-.37,2.07,2.07,0,0,0-1.63,3.13.38.38,0,0,0,.51.13.37.37,0,0,0,.13-.51Z"/><path class="cls-15" d="M458.25,257.27l.72-.84a.44.44,0,0,0,.11-.27.36.36,0,0,0-.11-.26.35.35,0,0,0-.27-.11.33.33,0,0,0-.26.11l-.72.83a.46.46,0,0,0-.11.27.4.4,0,0,0,.11.27.44.44,0,0,0,.27.11.41.41,0,0,0,.26-.11Z"/><path class="cls-15" d="M502.17,294.06l-.09-.06,0,0,0,0a.93.93,0,0,1-.14-.14l0,0h0l-.05-.08a1.62,1.62,0,0,1-.1-.18l0,0s0,.08,0,0a.69.69,0,0,1,0-.1c0-.07,0-.13-.05-.2v-.05c0,.11,0,.05,0,0a.31.31,0,0,0,0-.1c0-.08,0-.15,0-.22a.35.35,0,0,0-.11-.27.41.41,0,0,0-.26-.11.44.44,0,0,0-.27.11.5.5,0,0,0-.11.27,2,2,0,0,0,.9,1.82.37.37,0,0,0,.51-.13.4.4,0,0,0-.13-.52Z"/><path class="cls-15" d="M495.05,292l-1.34-1.14a.39.39,0,0,0-.27-.11.36.36,0,0,0-.26.11.38.38,0,0,0,0,.53l1.34,1.14a.36.36,0,0,0,.26.11.37.37,0,0,0,.27-.11.38.38,0,0,0,0-.53Z"/><path class="cls-15" d="M488.78,283.82l-.48-.11a.37.37,0,0,0-.29,0,.32.32,0,0,0-.1.1.24.24,0,0,0-.07.13.38.38,0,0,0,.26.46l.48.12a.42.42,0,0,0,.29,0,.24.24,0,0,0,.1-.1.21.21,0,0,0,.07-.12.36.36,0,0,0,0-.29.4.4,0,0,0-.22-.18Z"/><path class="cls-15" d="M481.6,279.08l-.74-1.51a.38.38,0,0,0-.65.38l.74,1.51a.38.38,0,0,0,.65-.38Z"/><path class="cls-15" d="M478.07,265.38a4.56,4.56,0,0,0-1.5-2.25.39.39,0,0,0-.53,0,.37.37,0,0,0,0,.53,4.38,4.38,0,0,1,.45.41l.2.24s.06.08,0,0,0,0,0,0l.09.14a3.5,3.5,0,0,1,.31.53l.06.13s0-.05,0,0l0,.06c0,.11.08.21.11.32a.39.39,0,0,0,.46.26.38.38,0,0,0,.26-.46Z"/><path class="cls-15" d="M471.68,254.43l.39-.82a.37.37,0,0,0,0-.29.34.34,0,0,0-.17-.22.37.37,0,0,0-.29,0,.34.34,0,0,0-.22.17l-.4.82a.48.48,0,0,0,0,.29.4.4,0,0,0,.18.22.36.36,0,0,0,.29,0,.37.37,0,0,0,.22-.17Z"/><path class="cls-15" d="M469,248.39l.13-.18-.06.07a3.26,3.26,0,0,1,.53-.52l-.08.06a3,3,0,0,1,.52-.32.37.37,0,0,0,.17-.22.42.42,0,0,0,0-.29.39.39,0,0,0-.51-.14,3.41,3.41,0,0,0-1.31,1.16.4.4,0,0,0,.14.52.37.37,0,0,0,.51-.14Z"/><path class="cls-15" d="M463,243.93l.86-1a.36.36,0,0,0,.11-.26.4.4,0,0,0-.11-.27.41.41,0,0,0-.26-.11.44.44,0,0,0-.27.11l-.86,1a.41.41,0,0,0-.11.26.4.4,0,0,0,.11.27.44.44,0,0,0,.27.11.41.41,0,0,0,.26-.11Z"/><path class="cls-15" d="M465.53,257.2h-.17l.1,0-.18-.05.09,0-.18-.11.07.06a1.29,1.29,0,0,1-.16-.17l.06.08a1.18,1.18,0,0,1-.11-.19l0,.09a.59.59,0,0,1,0-.19v.1a.54.54,0,0,1,0-.18v.1a.13.13,0,0,1,0-.06.42.42,0,0,0,0-.29.34.34,0,0,0-.22-.17.36.36,0,0,0-.29,0,.37.37,0,0,0-.17.22,1.14,1.14,0,0,0,.28,1,1.11,1.11,0,0,0,.92.38.36.36,0,0,0,.26-.11.33.33,0,0,0,.11-.26.35.35,0,0,0-.11-.27.36.36,0,0,0-.26-.11Z"/><path class="cls-15" d="M435.47,232.91l-1.77-.64a.37.37,0,0,0-.46.26.38.38,0,0,0,.26.46l1.77.65a.38.38,0,0,0,.2-.73Z"/><path class="cls-15" d="M437.68,229.31l1.63.8a.4.4,0,0,0,.52-.14.38.38,0,0,0-.14-.51l-1.63-.79a.38.38,0,0,0-.52.13.37.37,0,0,0,.14.51Z"/><path class="cls-15" d="M446,239.38a4.54,4.54,0,0,0,2.92-.42.37.37,0,0,0,.13-.51.38.38,0,0,0-.51-.14,3.72,3.72,0,0,1-2.34.35.37.37,0,0,0-.2.72Z"/><path class="cls-15" d="M456.9,238.05l-.14.16a.42.42,0,0,0-.08.12.4.4,0,0,0,0,.15.32.32,0,0,0,0,.14.25.25,0,0,0,.08.12l.07.06a.34.34,0,0,0,.19,0h.1a.37.37,0,0,0,.17-.1l.14-.16a.35.35,0,0,0,.08-.13.34.34,0,0,0,0-.28.25.25,0,0,0-.08-.12l-.07-.06a.34.34,0,0,0-.19-.05h-.1a.37.37,0,0,0-.17.1Z"/><path class="cls-13" d="M475.61,288.36c-1.93,1.43-4.68.21-6.51-1.34a21,21,0,0,1-7.33-16.32,43.23,43.23,0,0,1,15.84,8.81s2.61,3.07,2.5,5.11S475.61,288.36,475.61,288.36Z"/><path class="cls-15" d="M478.79,287.07c-1.94-1.19-3.8-2.43-5.61-3.76-.91-.67-1.79-1.36-2.64-2.1a16.59,16.59,0,0,1-2.36-2.38,17.66,17.66,0,0,0,2.66,2c.93.6,1.89,1.14,2.87,1.65,2,1,4,2,6,2.82Z"/><path class="cls-14" d="M439.84,313.72c-3.34-.4-6.11-3-7.66-6s-2.1-6.38-2.61-9.71a30.74,30.74,0,0,1,20.72,10.23s1.83,2.51,1.17,2.79-3.44,3-5,2.88S439.84,313.72,439.84,313.72Z"/><path class="cls-14" d="M440.24,312.27c-6.9-1-8.35-9-9.23-14.61l-1.44,1.89a29.3,29.3,0,0,1,17.08,7.2,19.11,19.11,0,0,1,2.5,2.51,8.19,8.19,0,0,1,.63,1c.07.12.2.54.33.63-.07-.05,0,.06,0,0s.71-1.11.51-1.1-.71.51-.89.65c-.47.36-.94.72-1.42,1.05a3.59,3.59,0,0,1-2.4.91c-2-.11-4.05-.15-6.07-.2s-1.93,2.95,0,3c2.08,0,4.17.11,6.25.21,2.37.11,4.38-1.75,6.16-3.09,2.11-1.58-.33-4.54-1.6-5.9a31.82,31.82,0,0,0-9-6.59,32.81,32.81,0,0,0-12.11-3.3,1.53,1.53,0,0,0-1.45,1.9c.59,3.8,1.24,7.76,3.33,11.06a11.76,11.76,0,0,0,8,5.65,1.56,1.56,0,0,0,1.85-1A1.51,1.51,0,0,0,440.24,312.27Z"/><path class="cls-15" d="M450.36,312.52c-1.39-.26-2.76-.56-4.13-.93a12.83,12.83,0,0,1-4-1.62c-1.16-.81-2.22-1.71-3.32-2.58-.54-.44-1.09-.88-1.65-1.3a6.11,6.11,0,0,0-1.79-1,6,6,0,0,1,1.86.95c.59.39,1.16.79,1.73,1.2,1.15.8,2.27,1.64,3.45,2.36a11.91,11.91,0,0,0,3.86,1.31c1.35.28,2.73.5,4.1.67Z"/><path class="cls-13" d="M468.05,308.89a16.58,16.58,0,0,0,17,11.72,1.78,1.78,0,0,0,1.17-.42,1.92,1.92,0,0,0,.3-1.46c-.47-6.64-1.39-14.14-6.74-18.1a18,18,0,0,1-2.78-2.11s-2-2.54-3.48-1.84-2.78,2.4-3.8,2.52-2.78,2.4-2.09,3.86S468.05,308.89,468.05,308.89Z"/><path class="cls-15" d="M470.87,297.68a36.79,36.79,0,0,1,2.44,3.52,19.43,19.43,0,0,1,1,1.92,9,9,0,0,1,.38,1.07,5.78,5.78,0,0,1,.11.6,3.94,3.94,0,0,1,0,.6,9.67,9.67,0,0,0,.83,3.87,7.66,7.66,0,0,0,2.33,3.33,7.89,7.89,0,0,1-2.78-3.11,10.38,10.38,0,0,1-1.38-4.1,3.18,3.18,0,0,0-.05-.44c0-.13-.09-.27-.13-.41a6.68,6.68,0,0,0-.43-.84,17.84,17.84,0,0,0-1.14-1.64,35.51,35.51,0,0,0-2.7-3Z"/><path class="cls-14" d="M431.22,330.89c1.65,3.72.52,8,3.42,10.87,3.54,3.49,8.14,6.15,13.11,6.41a23.5,23.5,0,0,0-9-23.45s-2.66-2.79-3.73-1.83S430.54,329.37,431.22,330.89Z"/><path class="cls-14" d="M429.77,331.29c.9,2.13,1,4.4,1.4,6.63a9.92,9.92,0,0,0,3.29,5.73,22.12,22.12,0,0,0,13.29,6,1.51,1.51,0,0,0,1.45-1.1,25.2,25.2,0,0,0-4.69-20.27,33.67,33.67,0,0,0-6-5.77c-1-.77-2.24-1.59-3.55-1.27-1.07.26-1.73,1.31-2.31,2.16a22.58,22.58,0,0,0-2.2,3.93c-.51,1.16-1.15,2.66-.7,3.94.64,1.81,3.54,1,2.89-.8a2.46,2.46,0,0,1,.18-1,10.89,10.89,0,0,1,.7-1.65c.62-1.22,1.41-2.29,2.11-3.45,0,0,.33-.34.32-.35a.6.6,0,0,1-.53.13l.25.07c.38.32.87.52,1.25.86.95.82,1.95,1.59,2.86,2.44a22.14,22.14,0,0,1,6.51,20.24l1.44-1.1a19,19,0,0,1-11.47-5.42,7.81,7.81,0,0,1-2.37-5,23.61,23.61,0,0,0-1.25-5.76,1.54,1.54,0,0,0-1.84-1A1.5,1.5,0,0,0,429.77,331.29Z"/><path class="cls-15" d="M434.57,323.62a57.36,57.36,0,0,1,2.89,5.12,22.78,22.78,0,0,1,1.15,2.73c.31,1,.49,1.88.78,2.82a25.68,25.68,0,0,0,2.09,5.37,8.21,8.21,0,0,0,2.15,1.89,6.26,6.26,0,0,1,1.08,1,1.33,1.33,0,0,1,.31,1.36,1.31,1.31,0,0,0-.36-1.32,6.62,6.62,0,0,0-1.11-.92,8.4,8.4,0,0,1-2.28-1.85,26.63,26.63,0,0,1-2.36-5.36c-.32-.91-.57-1.9-.89-2.77a22.62,22.62,0,0,0-1.23-2.59,56.35,56.35,0,0,0-3.05-4.9Z"/><path class="cls-13" d="M407.41,340.94c-3.3,1.24-7,1.82-10.33.68s-6.12-4.31-6-7.83a91.61,91.61,0,0,1,8.95-3.2c3.52-1,7.62-1.81,10.64.29,0,0,2.82,1.49,3.72,3.59s-1.73,3.47-1.73,3.47Z"/><path class="cls-13" d="M407,339.49c-3.13,1.16-6.78,1.88-10,.52a6.93,6.93,0,0,1-4.44-6.22l-1.1,1.45a58,58,0,0,1,12.23-4,9.17,9.17,0,0,1,8.07,2.26c.88.8,1.82,1.76.72,2.74a7.3,7.3,0,0,1-1.11.7l-4.76,2.71a1.5,1.5,0,0,0,1.52,2.59l4.32-2.46c1.37-.78,2.75-1.6,3.35-3.15,1.11-2.85-1.73-5.4-3.9-6.75a11.85,11.85,0,0,0-8.45-1.62c-4.38.65-8.72,2.4-12.79,4.08a1.59,1.59,0,0,0-1.1,1.45,9.82,9.82,0,0,0,5.65,8.68c3.95,1.94,8.55,1.39,12.56-.08C409.6,341.73,408.83,338.83,407,339.49Z"/><path class="cls-15" d="M413.81,337.66a18.67,18.67,0,0,0-4.38-.53,3.88,3.88,0,0,0-1.86.42,5.39,5.39,0,0,1-2.42.89,20.44,20.44,0,0,1-4.75.09,15.37,15.37,0,0,1-4.55-1,15.34,15.34,0,0,0,4.57.54,19.29,19.29,0,0,0,4.52-.56,4.46,4.46,0,0,0,1.84-.89,4.87,4.87,0,0,1,2.51-.94,19.5,19.5,0,0,1,4.89.06Z"/><path class="cls-14" d="M397.54,357.29c.07,2.57,1.58,4.8,3.26,6.75a32.43,32.43,0,0,0,6.24,6,10.89,10.89,0,0,0,8.25,1.91A25.46,25.46,0,0,0,408,352.81s-4.66-3.65-5.74-2.69S397.46,354.52,397.54,357.29Z"/><path class="cls-14" d="M396,357.29c.24,4.61,3.89,8.4,7,11.45,3.37,3.28,7.8,5.68,12.62,4.69a1.5,1.5,0,0,0,1.1-1.44,27.16,27.16,0,0,0-6.41-18.82,16.36,16.36,0,0,0-4.46-3.59,7,7,0,0,0-3-1.12,3,3,0,0,0-2.34,1.15c-2.1,2-4.54,4.62-4.57,7.68a1.5,1.5,0,0,0,3,0,6.15,6.15,0,0,1,1.77-3.54c.11-.14,2.4-2.52,2.42-2.49s-.55.27-.53.17a6.64,6.64,0,0,1,.66.2,8.49,8.49,0,0,1,1.33.71c.8.48,1.55,1,2.29,1.55.18.13.29.36,0,0,.22.27.49.51.73.77a19.85,19.85,0,0,1,1.54,1.89,23.71,23.71,0,0,1,2.74,4.86A24.09,24.09,0,0,1,413.79,372l1.1-1.45c-3.85.79-7.38-1.6-10-4.19a46.19,46.19,0,0,1-3.73-4.18,8.83,8.83,0,0,1-2.15-4.88C398.94,355.37,395.94,355.36,396,357.29Z"/><path class="cls-15" d="M400.37,352.16l4.75,7.17,2.41,3.56c.81,1.18,1.61,2.37,2.49,3.51-.95-1.08-1.81-2.23-2.7-3.36l-2.61-3.42-5.16-6.89Z"/><path class="cls-14" d="M387.33,365.74c-7.29,2-15.41-.18-21.61-4.52-.7-.49-1.45-1.39-.94-2.08a1.7,1.7,0,0,1,.86-.5,61.1,61.1,0,0,1,21.69-2.93s4.34,1.65,5,3.83S389.05,365.27,387.33,365.74Z"/><path class="cls-14" d="M386.93,364.3a22.54,22.54,0,0,1-12-.29,28.58,28.58,0,0,1-5.69-2.36,25.08,25.08,0,0,1-2.43-1.49,6,6,0,0,0-.54-.43l-.09-.12c-.18-.28-.22-.12-.14.48a9.52,9.52,0,0,0,1.79-.55,59.45,59.45,0,0,1,13.88-2.33c1.68-.07,3.82-.38,5.43,0-.29-.08.21.09.3.13l.71.35a11.38,11.38,0,0,1,1.76,1.08c.35.28,1,.77,1,1.24s-.45,1.2-.76,1.6a7.61,7.61,0,0,1-3.24,2.65c-1.83.57-1.05,3.47.8,2.89,2.85-.9,7-4.73,6.07-8.05-.51-1.81-2.36-3-3.92-3.88a13.29,13.29,0,0,0-1.83-.86,8.62,8.62,0,0,0-2.83-.25,62.43,62.43,0,0,0-18,2.43c-1.13.32-2.7.57-3.53,1.5a2.57,2.57,0,0,0,0,3.21,8.73,8.73,0,0,0,2.81,2.23,31.29,31.29,0,0,0,3.81,2,26.71,26.71,0,0,0,17.43,1.69A1.5,1.5,0,0,0,386.93,364.3Z"/><path class="cls-15" d="M392.84,363.3c-3.63-.13-7.23-.32-10.83-.7a29.31,29.31,0,0,1-5.35-1.07,40.67,40.67,0,0,1-5.08-1.89,39.13,39.13,0,0,0,5.2,1.4,27.79,27.79,0,0,0,5.29.56c3.57,0,7.17-.1,10.73-.3Z"/><path class="cls-16" d="M471.85,220.62c7,11.63,12.54,24.66,13,38.41A51.54,51.54,0,0,1,482,278.35a44.73,44.73,0,0,1-10.22,16c-9.24,9.5-21.26,16-32.34,23.08-11.55,7.38-23,15.12-32.85,24.72-10.08,9.83-18.48,21.67-22.54,35.27-.56,1.85,2.34,2.64,2.89.8,7.87-26.36,31.14-43.54,53.24-57.7,11.1-7.11,23.06-13.63,32.57-22.89a49.17,49.17,0,0,0,11.07-15.78,52.64,52.64,0,0,0,4.05-19.42c.36-15.48-5.56-30.31-13.47-43.36a1.5,1.5,0,0,0-2.59,1.52Z"/><path class="cls-16" d="M549.39,412.17c5,.85,10.18,2.26,14.33,5.36a17.56,17.56,0,0,1,3,25.16A26.73,26.73,0,0,1,556,450.1c-9,3.6-18.7,3.92-28,6.22a40.12,40.12,0,0,0-13.28,5.57,26.58,26.58,0,0,0-9.2,11.23c-2.32,5.29-3.25,11-3.81,16.74-.67,6.69-1.05,13.42-1.55,20.13-.15,1.92,2.85,1.91,3,0,.46-6.19.85-12.38,1.4-18.56a59.12,59.12,0,0,1,3-15.37,24,24,0,0,1,9-11.78,40,40,0,0,1,13.75-5.41c9.56-2.17,19.44-2.63,28.49-6.72,8.66-3.9,15.55-11.64,15-21.63a20.46,20.46,0,0,0-7.23-14.62c-4.61-3.82-10.45-5.65-16.27-6.63-1.89-.32-2.7,2.57-.8,2.9Z"/><polygon class="cls-11" points="537.75 496.73 542.26 430.44 542.75 496.88 537.75 496.73"/><polygon class="cls-11" points="539.45 499.25 509.37 438.42 542.11 497.86 539.45 499.25"/><path class="cls-11" d="M539.89,493.51a1.06,1.06,0,0,0-.5-.09.9.9,0,0,0-.37,0c-.13.05-.13,0-.19.07l-.07,0h0l.07-.05s.12-.1.2-.16a8.79,8.79,0,0,0,1-1.2,31.08,31.08,0,0,0,2-3.16c1.27-2.25,2.42-4.62,3.53-7,2.2-4.81,4.18-9.75,6-14.74s3.57-10,5.07-15.15c.74-2.56,1.44-5.14,2-7.74.27-1.3.51-2.61.66-3.93a13.27,13.27,0,0,0,.1-2,2.64,2.64,0,0,0-.55-1.85,2.71,2.71,0,0,1,.71,1.84,13.63,13.63,0,0,1,0,2,39,39,0,0,1-.36,4c-.35,2.66-.85,5.3-1.4,7.93-1.1,5.25-2.43,10.46-3.9,15.63s-3.09,10.3-5,15.38c-.93,2.55-1.93,5.07-3.1,7.59a35.44,35.44,0,0,1-2,3.78,13.54,13.54,0,0,1-1.44,2,5.26,5.26,0,0,1-.53.52l-.32.27-.41.28-.22.13-.3.14a3.6,3.6,0,0,1-1.53.31,4.12,4.12,0,0,1-1-.18Z"/><path class="cls-11" d="M542.21,494.69a4.39,4.39,0,0,1-.71.72,4.13,4.13,0,0,1-.77.42,2.93,2.93,0,0,1-.67.2l-.32.06H539l-.4,0a4.77,4.77,0,0,1-.74-.12,13.57,13.57,0,0,1-2.31-.78,35.6,35.6,0,0,1-3.8-1.95c-2.4-1.39-4.66-2.89-6.89-4.44-4.44-3.09-8.7-6.38-12.88-9.76s-8.24-6.9-12.16-10.57c-1.95-1.84-3.87-3.72-5.69-5.7-.91-1-1.79-2-2.6-3.09A13.56,13.56,0,0,1,490.4,458a2.69,2.69,0,0,1-.48-1.91,2.7,2.7,0,0,0,.61,1.83,15.35,15.35,0,0,0,1.22,1.57c.88,1,1.83,1.93,2.8,2.84,1.95,1.82,4,3.52,6.07,5.19,4.16,3.33,8.47,6.49,12.84,9.52s8.85,5.93,13.4,8.61c2.28,1.33,4.59,2.61,6.91,3.72a31,31,0,0,0,3.45,1.45,8,8,0,0,0,1.53.39,1.24,1.24,0,0,0,.25,0h0a1.49,1.49,0,0,0-.52.24,1.24,1.24,0,0,0-.36.36Z"/><polygon class="cls-13" points="536.7 498.63 518.04 432.76 540.51 497.43 536.7 498.63"/><polygon class="cls-13" points="535.97 497.54 529.74 430.01 539.94 497.06 535.97 497.54"/><polygon class="cls-13" points="536.09 496.42 550.98 433.93 540 497.23 536.09 496.42"/><polygon class="cls-13" points="536.49 494.61 574.09 450.46 539.62 497.1 536.49 494.61"/><polygon class="cls-11" points="538.02 498.04 483.18 479.1 539.45 493.25 538.02 498.04"/><polygon class="cls-13" points="536.65 496.74 499.94 441 539.92 494.44 536.65 496.74"/><polygon class="cls-13" points="541.84 498.69 503.96 479.65 543.47 495.04 541.84 498.69"/><path class="cls-13" d="M443.46,400.15c-2.36-.38-3.41-3.21-3.58-5.6a21,21,0,0,1,6.6-16.62,43.24,43.24,0,0,1,4.73,17.49s-.39,4-1.93,5.35S443.46,400.15,443.46,400.15Z"/><path class="cls-15" d="M446.61,401.53c-.5-2.21-.91-4.41-1.22-6.64-.15-1.11-.28-2.23-.34-3.35a18,18,0,0,1,.07-3.36,17.24,17.24,0,0,0,.43,3.29c.22,1.08.51,2.15.82,3.21.62,2.12,1.35,4.22,2.14,6.25Z"/><path class="cls-16" d="M374.85,371.28c8,9.06,16.44,17.91,26.95,24.07a65.34,65.34,0,0,0,34,8.8,73.68,73.68,0,0,0,36.74-10.31A111.14,111.14,0,0,0,489,381.46a175.15,175.15,0,0,0,14.63-14.59A145.38,145.38,0,0,0,527.45,331c.8-1.75-1.78-3.27-2.59-1.52a139.81,139.81,0,0,1-19.92,31.26c-8.45,10.13-18.13,19.74-29,27.3A71.47,71.47,0,0,1,440.24,401a63.49,63.49,0,0,1-33.31-6.23c-11.94-6-21.23-15.67-30-25.57-1.28-1.45-3.39.68-2.12,2.12Z"/></g><path d="M280.35,322.91c.73-1.47,1.5-2.92,2.25-4.39l2.34-4.33a33.89,33.89,0,0,1,2.42-4.28,20.55,20.55,0,0,1,3.36-3.71l.17.11a20.56,20.56,0,0,1-1.83,4.65A33.84,33.84,0,0,1,286.3,315l-2.85,4c-1,1.32-1.93,2.66-2.93,4Z"/><path class="cls-10" d="M300.22,312.1l-14.35,6.54a2.91,2.91,0,0,1-4-2.46l-.52-15.76Z"/><rect class="cls-10" x="285.69" y="285.99" width="21.63" height="22.16" transform="translate(-112.24 392.41) rotate(-58.18)"/><path class="cls-17" d="M383.06,157.56"/><path class="cls-10" d="M341.3,245.72l48.93-78.88a5.44,5.44,0,0,0-1.76-7.51l-9.41-5.84a5.45,5.45,0,0,0-7.51,1.76l-49.16,79.23Z"/><path class="cls-18" d="M313.63,282.23c-2.51-2.6-5.08-5.29-6.48-8.63s-1.39-7.51,1-10.25a12,12,0,0,1,5.52-3.24,31.89,31.89,0,0,1,19.82.16l10.94-17.63L324,230l-33.17,53.47,20.39,12.65,5.88-9.47Z"/><path class="cls-19" d="M384.55,148.46h2.2a.76.76,0,0,1,.76.76v9.07a0,0,0,0,1,0,0h-3.73a0,0,0,0,1,0,0v-9.07A.76.76,0,0,1,384.55,148.46Z" transform="translate(138.8 -180.26) rotate(31.82)"/><path class="cls-19" d="M363.71,149.34h8.64a.93.93,0,0,1,.93.93v64a0,0,0,0,1,0,0h-10.5a0,0,0,0,1,0,0v-64A.93.93,0,0,1,363.71,149.34Z" transform="translate(151.13 -166.71) rotate(31.82)"/><path class="cls-20" d="M242.86,317.92a6.28,6.28,0,0,0-1.77-5.33c-1.25-1.24-3.48-2.25-5.15-1.24S233.27,315,233,316.9a9.73,9.73,0,0,0,1.61,7c.93,1.35,2.87,3.52,4.66,3.54,2.15,0,1.53-3.64,1.59-4.92a4.33,4.33,0,0,1,3-4.18c2.74-1,2.67,2.7,3.12,4.29a4.07,4.07,0,0,0,1.28,2.14,2.6,2.6,0,0,0,1.15.51c.3.07.61.08.91.15a2.62,2.62,0,0,1,.91.29l-.12,2.07c-.31.44-1.71.66-2.23.71a3.63,3.63,0,0,1-2.22-.4c-1.84-1.13-1.53-3.81-.72-5.46a12.73,12.73,0,0,1,2.65-3.41,7.28,7.28,0,0,1,.58-.54l.29-.26c1.19-.33,1.83-.07,1.92.77.32.65.41,1.48.68,2.16.78,2,2.28,3.93,4.52,4.26A4.55,4.55,0,0,0,261,323.1a7.37,7.37,0,0,0,.87-2.62c.22-1.7.3-3.84,2.6-3.83a5.09,5.09,0,0,1,3.95,2.42,8.6,8.6,0,0,1,1.29,4.53c.14,1.6,1.39,1.93,2.47.78a20.79,20.79,0,0,0,2.18-3.36c.55-.9,1.37-2,1.26-3.13-.17-1.72-2.28-2-3.46-1.08-1.9,1.51-1.22,4.87-.53,6.8a9.21,9.21,0,0,0,2,3.59c.72.65,1.34.39,2.1-.1a19.32,19.32,0,0,0,6-6.21.07.07,0,1,0-.13-.07,19.22,19.22,0,0,1-5.73,6,1.72,1.72,0,0,1-2.55-.35,10.92,10.92,0,0,1-1-1.61,11.32,11.32,0,0,1-1.22-4.53c-.06-1.47.3-3.36,1.92-3.85a1.7,1.7,0,0,1,2.37,1.55,5.11,5.11,0,0,1-1.06,2.67,20.29,20.29,0,0,1-2.28,3.53c-.49.52-1.48,1.34-2.12-.09a2.71,2.71,0,0,1-.1-.9,12,12,0,0,0-.12-1.46,6.93,6.93,0,0,0-3.18-4.72c-1.22-.69-3-1-4.05.24a3.72,3.72,0,0,0-.68,2.05,8.55,8.55,0,0,1-1,3.77c-1.76,2.88-5.23,3-7.36.4a10.43,10.43,0,0,1-1.85-4c-.16-.58-.21-1.54-.88-1.77s-1,.21-1.4.53a16.13,16.13,0,0,0-2.49,2.6,6.45,6.45,0,0,0-1.56,5.49,3.13,3.13,0,0,0,3.58,2.24c1-.1,3.28-.63,3.15-2.06a1.46,1.46,0,0,0-1-1.13c-1.43-.59-2.66-.24-3.52-1.88-.65-1.22-.59-2.65-1-3.95-.18-.58-.42-1.37-1-1.64-1.41-.61-3.61,1.07-4.23,2.22a6.25,6.25,0,0,0-.53,3.11,19.46,19.46,0,0,1,0,2c-.11,1-.13,1.28-1,1.63a1.7,1.7,0,0,1-1.86-.29,9.76,9.76,0,0,1-4.69-7.36c-.26-2.72,1-8.3,4.54-8.21,3.32.09,5.54,3.75,5.1,6.78,0,.1.13.14.15,0Z"/></svg>