<svg id="Layer_1" data-name="Layer 1" xmlns="http://www.w3.org/2000/svg" xmlns:xlink="http://www.w3.org/1999/xlink" viewBox="0 0 184.99 159.43"><defs><style>.cls-1{fill:none;}.cls-2{fill:#ff99fa;}.cls-3{fill:#df80df;}.cls-4{clip-path:url(#clip-path);}.cls-5{fill:#fae1c8;}.cls-6{fill:#515150;}.cls-7{fill:#fff;}.cls-8{opacity:0.34;}</style><clipPath id="clip-path" transform="translate(0)"><path class="cls-1" d="M127.16,23.91c4.64,2.94,8.31,7.9,12.24,11.9,15.1,15.38,30,31.27,40.86,49.91,1,1.72,2,3.79,1.22,5.63a7.88,7.88,0,0,1-2.57,2.73c-2.8,2.29-5,5.24-7.58,7.73a62.15,62.15,0,0,1-10.76,7.7l-15,9.21c-10.65,6.52-21.35,13-32.2,19.14-18.75,10.68-41.67,0-41.67,0-10.9-6.09-21.55-12.62-32.2-19.14l-15-9.21a62.15,62.15,0,0,1-10.76-7.7c-2.61-2.49-4.78-5.44-7.58-7.73a7.88,7.88,0,0,1-2.57-2.73c-.77-1.84.22-3.91,1.22-5.63C15.62,67.08,30.55,51.19,45.65,35.81A111.68,111.68,0,0,1,59.16,23.57l.7-.5S96.48,4.46,127.16,23.91Z"/></clipPath></defs><title>purpleFox</title><path class="cls-2" d="M22.58,67.22C16.64,58.13,10.64,48.88,7.35,38.39c-1.8-5.77-2.74-11.8-4.58-17.55-1-3.23-2.36-6.4-2.7-9.79S.58,3.89,3.15,1.83C5.43,0,8.52-.1,11.38.05A69.77,69.77,0,0,1,35.2,5.6a145.87,145.87,0,0,1,15.57,8.25l17.11,10Z" transform="translate(0)"/><path class="cls-3" d="M31.32,58.67c-3.49-5.35-7-10.81-9-17-1.06-3.39-1.61-7-2.7-10.34a28.38,28.38,0,0,1-1.59-5.77c-.2-2,.3-4.22,1.81-5.43C21.22,19.06,23,19,24.73,19.09a41.1,41.1,0,0,1,14,3.27,84,84,0,0,1,9.18,4.87L58,33.11Z" transform="translate(0)"/><path class="cls-2" d="M162.41,67.22c5.93-9.09,11.94-18.34,15.22-28.83,1.81-5.77,2.75-11.8,4.59-17.55,1-3.23,2.36-6.4,2.7-9.79s-.51-7.16-3.08-9.22C179.56,0,176.46-.1,173.61.05A69.77,69.77,0,0,0,149.79,5.6a144,144,0,0,0-15.57,8.25l-17.11,10Z" transform="translate(0)"/><path class="cls-3" d="M153.66,58.67c3.5-5.35,7-10.81,9-17,1.07-3.39,1.62-7,2.71-10.34a29,29,0,0,0,1.59-5.77,6.19,6.19,0,0,0-1.82-5.43c-1.34-1.08-3.17-1.14-4.85-1.05a41.21,41.21,0,0,0-14,3.27,83.87,83.87,0,0,0-9.17,4.87L127,33.11Z" transform="translate(0)"/><g class="cls-4"><path class="cls-5" d="M127.45,23.91c4.64,2.94,8.31,7.9,12.24,11.9,15.1,15.38,30,31.27,40.86,49.91,1,1.72,2,3.79,1.22,5.63a7.88,7.88,0,0,1-2.57,2.73c-2.8,2.29-5,5.24-7.58,7.73a62.15,62.15,0,0,1-10.76,7.7l-15,9.21c-10.65,6.52-21.35,13-32.2,19.14-18.75,10.68-41.67,0-41.67,0-10.9-6.09-21.55-12.62-32.2-19.14l-15-9.21A62.15,62.15,0,0,1,14,101.81c-2.61-2.49-4.78-5.44-7.58-7.73a7.88,7.88,0,0,1-2.57-2.73c-.77-1.84.22-3.91,1.22-5.63C15.91,67.08,30.84,51.19,45.94,35.81A111.68,111.68,0,0,1,59.45,23.57l.7-.5S96.77,4.46,127.45,23.91Z" transform="translate(0)"/><path class="cls-2" d="M141.39,32.17c-4.07-4.19-7.87-9.37-12.68-12.45C96.93-.64,59,18.84,59,18.84l-.72.52a115.26,115.26,0,0,0-14,12.81c-3.91,4-7.81,8.08-11.63,12.21.63,0,1.27-.06,1.91-.06,28.45,0,51.5,30.57,51.5,68.27A87,87,0,0,1,81,142.24c6.5,1.59,15.48,2.71,24.45.4a86.87,86.87,0,0,1-5.24-30c0-37.7,23.06-68.27,51.5-68.27q.66,0,1.32,0C149.18,40.23,145.29,36.18,141.39,32.17Z" transform="translate(0)"/><ellipse cx="92.81" cy="143.78" rx="20.87" ry="15.65"/></g><circle class="cls-6" cx="58" cy="83.77" r="10.44"/><circle class="cls-6" cx="126.99" cy="83.77" r="10.44"/><circle class="cls-7" cx="55.97" cy="81.16" r="3.48"/><circle class="cls-7" cx="124.38" cy="81.16" r="3.48"/><g class="cls-8"><path class="cls-7" d="M97.73,134c.19,0,.21,0,.07,0h.31l.32,0c-.14,0-.12,0,.07,0a10.8,10.8,0,0,1,1.22.39l.09,0,.31.13.45.21c.38.17.76.35,1.13.54a15.34,15.34,0,0,1,1.87,1.11c.05,0,.49.36.28.2.15.12.3.24.44.37a8.94,8.94,0,0,1,.8.83,1.51,1.51,0,0,0,2.12,0,1.53,1.53,0,0,0,0-2.12,13.12,13.12,0,0,0-4.26-3.11c-1.85-.92-3.89-2-6-1.5a1.52,1.52,0,0,0-1,1.85,1.54,1.54,0,0,0,1.84,1Z" transform="translate(0)"/></g><path class="cls-5" d="M75.59,55.86a8.59,8.59,0,0,1,.48,1l-.31-.71a8.91,8.91,0,0,1,.61,2.22l-.11-.8A8.22,8.22,0,0,1,76.33,59a3.12,3.12,0,0,0,.88,2.12,3,3,0,0,0,4.25,0A3.21,3.21,0,0,0,82.33,59a11.89,11.89,0,0,0-1.56-6.19A3.09,3.09,0,0,0,79,51.45a3,3,0,0,0-3.69,2.1,3.16,3.16,0,0,0,.3,2.31Z" transform="translate(0)"/><path class="cls-5" d="M90.45,52.46a14.42,14.42,0,0,0-1,2.92,14.64,14.64,0,0,0-.33,3.1A3.12,3.12,0,0,0,90,60.6a3,3,0,0,0,5.12-2.12,11.72,11.72,0,0,1,.1-1.57l-.11.8A11.09,11.09,0,0,1,95.83,55l-.3.72c0-.08.07-.15.1-.23A2.25,2.25,0,0,0,96,54.38a2.33,2.33,0,0,0-.06-1.2,3,3,0,0,0-3.69-2.1l-.72.31a2.89,2.89,0,0,0-1.07,1.07Z" transform="translate(0)"/><path class="cls-5" d="M103.82,55a6.41,6.41,0,0,1,.16.76l-.11-.8a6.19,6.19,0,0,1,0,1.49l.11-.8a6,6,0,0,1-.41,1.51l.31-.71a6.47,6.47,0,0,1-.61,1.09,2.21,2.21,0,0,0-.36,1.11,2.33,2.33,0,0,0,0,1.2,3,3,0,0,0,3.69,2.1l.72-.31a3,3,0,0,0,1.08-1.07,9.3,9.3,0,0,0,.91-1.81,5.69,5.69,0,0,0,.37-1.28,9.7,9.7,0,0,0,.18-2,9.09,9.09,0,0,0-.31-2.07,3,3,0,0,0-3.69-2.1,3.09,3.09,0,0,0-1.79,1.38,3.13,3.13,0,0,0-.3,2.32Z" transform="translate(0)"/><path class="cls-5" d="M84.5,69V72.8a3.12,3.12,0,0,0,.88,2.12,3.38,3.38,0,0,0,2.12.88,3.08,3.08,0,0,0,2.13-.88,3.16,3.16,0,0,0,.87-2.12V69a3.11,3.11,0,0,0-.87-2.12,2.34,2.34,0,0,0-1-.62A2.3,2.3,0,0,0,87.5,66a3.06,3.06,0,0,0-2.12.88A3.12,3.12,0,0,0,84.5,69Z" transform="translate(0)"/><path class="cls-5" d="M95.59,67.93a9.36,9.36,0,0,1-.06,1.3l.1-.79a8.68,8.68,0,0,1-.57,2.11l.3-.72c0,.13-.11.25-.17.38a2.21,2.21,0,0,0-.36,1.11,2.33,2.33,0,0,0,.06,1.2,2.2,2.2,0,0,0,.54,1,2.23,2.23,0,0,0,.84.77,3,3,0,0,0,2.31.3,2.93,2.93,0,0,0,1.79-1.38,11.55,11.55,0,0,0,.94-2.56,11.44,11.44,0,0,0,.28-2.74,3.12,3.12,0,0,0-.88-2.12,2.25,2.25,0,0,0-1-.62,2.32,2.32,0,0,0-1.16-.26,3,3,0,0,0-2.12.88,3.08,3.08,0,0,0-.88,2.12Z" transform="translate(0)"/></svg>