<svg id="Layer_1" data-name="Layer 1" xmlns="http://www.w3.org/2000/svg" viewBox="0 0 123.44 141.38"><defs><style>.cls-1{fill:#a07852;}.cls-2,.cls-6{fill:#fff;}.cls-3{fill:#543c24;}.cls-4{fill:#664d31;}.cls-5{stroke:#000;}.cls-5,.cls-6{stroke-miterlimit:10;}.cls-6{stroke:#fff;}</style></defs><title>hideSeal</title><path class="cls-1" d="M109,128.68C96.65,118,89.94,102.09,91.33,86.58c.47-5.33,1.82-10.84-.06-15.89l-54.1-4.8c1.81,9.91,2.1,20.33-1.68,29.76-1.23,3.07-2.88,6-4,9.12-4.18,11.7-.4,24.35.87,36.61Z"/><path class="cls-2" d="M82.12,62.08c2.09.92,9.4,36.38,1.6,56.78"/><path class="cls-2" d="M82.12,62.08a1.74,1.74,0,0,1,.67.65c.18.26.34.53.49.8.29.54.55,1.1.81,1.67.49,1.13.9,2.28,1.3,3.44a72.65,72.65,0,0,1,1.9,7.09,88.58,88.58,0,0,1,1.84,14.52,74.42,74.42,0,0,1-.77,14.68,40.2,40.2,0,0,1-4.64,13.93,92.57,92.57,0,0,0,1.51-14.24c.17-4.73.09-9.46-.1-14.2s-.52-9.48-.94-14.23c-.21-2.37-.41-4.75-.71-7.12-.11-1.2-.28-2.38-.45-3.57-.09-.59-.19-1.18-.31-1.76A3.86,3.86,0,0,0,82.12,62.08Z"/><path class="cls-2" d="M45.65,62.08c-2.09.92-9.39,36.38-1.59,56.78"/><path class="cls-2" d="M45.65,62.08a4,4,0,0,0-.59,1.66c-.12.58-.22,1.17-.31,1.76-.17,1.19-.34,2.37-.46,3.57-.29,2.37-.49,4.75-.7,7.12q-.63,7.13-.94,14.23c-.2,4.74-.27,9.47-.1,14.2a92.57,92.57,0,0,0,1.51,14.24,40.2,40.2,0,0,1-4.64-13.93,74.42,74.42,0,0,1-.77-14.68,87.51,87.51,0,0,1,1.84-14.52,69.93,69.93,0,0,1,1.9-7.09c.4-1.16.8-2.31,1.3-3.44.25-.57.51-1.13.81-1.67.15-.27.31-.54.49-.8A1.79,1.79,0,0,1,45.65,62.08Z"/><path class="cls-3" d="M70.77,84.47c0,3.31-3.22,6-7.2,6s-7.2-2.69-7.2-6v-1.6c0-1.76,3.23-3.2,7.2-3.2s7.2,1.44,7.2,3.2Z"/><path class="cls-1" d="M95.06,86.34q1.26-20,.81-40.06c-.2-9.15-.71-18.51-4.16-27-3.13-7.68-9.13-14.62-16.9-17.23-.8-.27-1.65-.41-2.46-.67a26.69,26.69,0,0,0-17.15,0,20.78,20.78,0,0,0-2.46.67C45,4.67,39,11.61,35.84,19.29c-3.45,8.48-4,17.84-4.16,27q-.45,20,.8,40.06Z"/><path class="cls-4" d="M63.57,86.87l-1.76,1.24a25.66,25.66,0,0,1-14.63,4.36c-12.15,0-22-7.7-22-17.2s9.84-17.19,22-17.19H80c12.15,0,22,7.7,22,17.19s-9.84,17.2-22,17.2A25.64,25.64,0,0,1,65.1,88Z"/><path class="cls-5" d="M70.77,59.68c0,3.31-3.22,6-7.2,6s-7.2-2.69-7.2-6v-1.6c0-1.76,3.23-3.2,7.2-3.2s7.2,1.44,7.2,3.2Z"/><ellipse class="cls-6" cx="48.38" cy="36.09" rx="5.6" ry="10.8"/><ellipse class="cls-5" cx="48.78" cy="38.66" rx="3.6" ry="6.17"/><ellipse class="cls-6" cx="78.76" cy="36.09" rx="5.6" ry="10.8"/><ellipse class="cls-5" cx="78.36" cy="38.66" rx="3.6" ry="6.17"/><path class="cls-3" d="M39.1,71.06l-.58,0-.25,0-.2,0-.36.15-.31.24a1.41,1.41,0,0,0-.14.18,1.24,1.24,0,0,0-.14.18s-.14.32-.15.37h0c0,.08,0,.17,0,.23s0,.16,0,.24v0a2.87,2.87,0,0,0,.05.41,2.17,2.17,0,0,0,.17.42s0,0,0,0v0a2.6,2.6,0,0,0,.25.31s0,0,0,0h0l.31.24,0,0,.19.08.21.08.05,0,.41,0h.07a2.83,2.83,0,0,0,.42-.06h0l0,0,.4-.17.11-.06.33-.26s0,0,0,0l0,0,.26-.34a.22.22,0,0,0,.05-.08,1,1,0,0,0,.09-.22,1.45,1.45,0,0,0,.09-.22l0,0,.05-.41v0a1.54,1.54,0,0,0-.06-.48v0c0-.06-.13-.32-.15-.37l0,0a3.65,3.65,0,0,0-.24-.31l0,0,0,0a3.65,3.65,0,0,0-.31-.24l-.21-.1-.22-.09h0l-.41,0h-.07l-.42,0h0l0,0A2.71,2.71,0,0,0,38,71l-.09,0a4.19,4.19,0,0,0-.33.26l0,0,0,0c-.09.1-.17.22-.26.33l-.06.1c-.06.12-.11.26-.16.39a.08.08,0,0,0,0,.05.06.06,0,0,0,0,0c0,.11-.05.31-.06.41v0a1.91,1.91,0,0,0,.06.48c0,.07.07.17.09.22a2.14,2.14,0,0,0,.1.22,3.65,3.65,0,0,0,.24.31v0l.18.13.17.14h0l.19.08.18.07c.09,0,.18,0,.26,0a1.37,1.37,0,0,0,.28,0l.41,0h.06a3.08,3.08,0,0,0,.38-.16l0,0A1.88,1.88,0,0,0,40,74s0,0,0,0l.13-.16s.09-.11.12-.17,0,0,0,0,.14-.3.16-.37h0a.09.09,0,0,0,0,0,1,1,0,0,0,0-.21,1.6,1.6,0,0,0,0-.23v0c0-.1,0-.3-.06-.4v0a.43.43,0,0,0,0,0l-.16-.37v0a.05.05,0,0,1,0,0L40,71.45l-.07-.07a4.19,4.19,0,0,0-.33-.26l-.05,0L39.34,71a1.57,1.57,0,0,0-.23-.09h0c-.14,0-.29-.05-.44-.06h0c-.15,0-.3,0-.45.06l-.1,0-.06,0-.4.17-.1.06-.33.26-.05,0-.07.08-.26.33,0,.05,0,0c-.06.12-.12.26-.17.39a.43.43,0,0,0,0,.11,3.18,3.18,0,0,0-.06.43v0c0,.07,0,.19,0,.22a1.14,1.14,0,0,0,0,.21s0,0,0,.06.12.29.16.37v0l0,0c0,.07.17.24.26.34h0l.3.23h0a1.66,1.66,0,0,0,.43.19h.06l.41.06h.08l.4-.06a.88.88,0,0,0,.27-.1,1.12,1.12,0,0,0,.25-.11h0l.32-.25,0,0,.26-.33,0,0,0,0a2.78,2.78,0,0,0,.16-.4l0-.11.06-.43v-.06a.37.37,0,0,0,0-.11,3.11,3.11,0,0,0-.06-.44L40,72a.92.92,0,0,0-.19-.33.87.87,0,0,0-.27-.27.66.66,0,0,0-.17-.12L39,71.12h0a.84.84,0,0,0-.21,0l-.21,0a1.57,1.57,0,0,0-.49.06h0l-.37.16,0,0-.15.12-.16.12,0,0h0a3.92,3.92,0,0,0-.25.32,1.12,1.12,0,0,0-.18.56,1.22,1.22,0,0,0,0,.6,1.26,1.26,0,0,0,.27.51,1.18,1.18,0,0,0,.42.38l.36.15a1.36,1.36,0,0,0,.8,0l.35-.15a1.4,1.4,0,0,0,.54-.54h0l-.23.31,0,0-.3.24,0,0-.35.15.07,0-.4,0h.06l-.4,0h0l-.35-.15h0l-.69-.9v0l-.06-.39a.67.67,0,0,1,0,.2l.06-.39a.58.58,0,0,1,0,.14l.16-.35-.06.1.23-.31a.23.23,0,0,1-.07.07l.31-.23-.09,0,.36-.15-.1,0,.4-.05h-.09l.4.05-.08,0,.36.15-.06,0,.3.24,0,0,.23.3,0-.07.15.36a.14.14,0,0,1,0-.07l.05.4v-.09l-.05.4,0-.13-.15.36a.64.64,0,0,1,.08-.14l-.23.3a.86.86,0,0,1,.14-.13l-.31.24a.51.51,0,0,1,.16-.09l-.36.15a.48.48,0,0,1,.17,0l-.4,0h.12l-.4,0,.11,0L38,73.67l.1,0-.31-.23a.24.24,0,0,1,.09.08l-.23-.3a.41.41,0,0,1,.05.09L37.55,73a.19.19,0,0,1,0,.08l0-.4v.08l0-.4a.19.19,0,0,1,0,.08l.15-.36a.09.09,0,0,1,0,.06l.24-.31,0,0,.3-.23a.2.2,0,0,1-.08,0l.36-.15-.08,0,.4-.06a.14.14,0,0,1-.09,0l.4.06-.06,0,.35.15,0,0,.31.23,0,0,.24.3,0-.05.15.36a.19.19,0,0,1,0-.07l0,.4v-.08l0,.4L40,73l-.15.36a.83.83,0,0,1,.07-.13l-.23.31a.43.43,0,0,1,.11-.12l-.3.23.14-.08-.36.15.11,0-.4.06a.09.09,0,0,1,.07,0l-.4-.06.07,0-.36-.15,0,0-.3-.23,0,0-.24-.3,0,0-.15-.35a.07.07,0,0,1,0,0l0-.4v.07l0-.4a.43.43,0,0,1,0,.11l.15-.36-.07.12.23-.3a.43.43,0,0,1-.12.11l.31-.23-.14.08.35-.15a.24.24,0,0,1-.12,0l.4-.05h-.08l.4.05-.08,0,.36.15,0,0,.31.23-.06,0,.24.3a.16.16,0,0,1,0-.07l.15.36s0,0,0-.06l.06.4a.06.06,0,0,1,0-.06l-.06.4s0,0,0,0l-.15.36,0,0-.24.3,0,0-1.06.44.63,0a1.06,1.06,0,0,0,.58-.13,1.14,1.14,0,0,0,.48-.31,1.08,1.08,0,0,0,.31-.48,1.15,1.15,0,0,0,.13-.58l-.05-.4a1.49,1.49,0,0,0-.39-.66l-.3-.23a1.48,1.48,0,0,0-.76-.21Z"/><path class="cls-3" d="M44,78.48a2,2,0,0,0-.31-.39,2.18,2.18,0,0,0-.34-.26l-.06,0a2.21,2.21,0,0,0-1-.27h-.13a3,3,0,0,0-.51.07,2.56,2.56,0,0,0-.47.19l-.11.06a2.79,2.79,0,0,0-.38.3c-.06.06-.11.14-.16.2a1.91,1.91,0,0,0-.15.21,2,2,0,0,0-.26,1v0c0,.13,0,.28.06.41s0,0,0,.08a2.18,2.18,0,0,0,.21.47.43.43,0,0,0,0,.07c.09.11.17.24.27.34a3.21,3.21,0,0,0,.41.34l.12.06a2.48,2.48,0,0,0,.5.2,2.24,2.24,0,0,0,.52.06,2.32,2.32,0,0,0,.45-.06h.08a2.38,2.38,0,0,0,.49-.22,2.09,2.09,0,0,0,.64-.65,1.26,1.26,0,0,0,.22-.5,2,2,0,0,0,0-.94,2.38,2.38,0,0,0-.19-.49,2,2,0,0,0-.32-.44,1.91,1.91,0,0,0-.42-.33,1.83,1.83,0,0,0-.52-.21,3.55,3.55,0,0,0-.47-.06h-.1l-.46.06-.11,0a2.24,2.24,0,0,0-.5.22,1.89,1.89,0,0,0-.44.35,2,2,0,0,0-.46.8,1.74,1.74,0,0,0,0,1,1.67,1.67,0,0,0,.41.72,1.47,1.47,0,0,0,.36.28,1.23,1.23,0,0,0,.42.19,1.71,1.71,0,0,0,.87,0,1.1,1.1,0,0,0,.41-.16l.16-.13a1.63,1.63,0,0,0,.18-.14,1.7,1.7,0,0,0,.47-1.16,1.62,1.62,0,0,0-1.19-1.6,1.08,1.08,0,0,0-.59,0,1.12,1.12,0,0,0-.56.18,1,1,0,0,0-.42.38,1.15,1.15,0,0,0-.27.51l0,.4a1.47,1.47,0,0,0,.2.76l.23.3a1.47,1.47,0,0,0,.67.39h0l-.36-.15,0,0-.3-.24,0,0-.24-.3,0,0L40.58,80s0,0,0,0l-.06-.4a0,0,0,0,1,0,0l.06-.4a.43.43,0,0,1,0,0l.15-.35,0,0,.24-.3,0,0,.31-.24a.05.05,0,0,1,0,0l.36-.15h0l.4,0h0l.4,0h0l.36.15,0,0,.3.24s0,0,0-.05L43,79,43,79l.15.36a.25.25,0,0,1,0-.07l.05.39v-.06l-.05.4a.19.19,0,0,1,0-.07l-.15.36a.31.31,0,0,1,0-.1l-.23.3.09-.08-.3.23.14-.08-.35.15a.61.61,0,0,1,.18,0l-.4,0h.17l-.4,0,.13,0-.35-.15a.3.3,0,0,1,.11.06l-.31-.24.09.09-.24-.31a.75.75,0,0,1,.07.12l-.15-.36a.28.28,0,0,1,0,.13l0-.4a.34.34,0,0,1,0,.1l.06-.4,0,.1.15-.36-.06.1.24-.3-.09.08.31-.23-.11.06.36-.15a.28.28,0,0,1-.13,0l.4-.05h-.13l.4.05a.42.42,0,0,1-.15,0l.36.15a.51.51,0,0,1-.16-.09l.3.23a.34.34,0,0,1-.12-.12l.23.3A.57.57,0,0,1,43,79l.15.36,0-.13,0,.4v-.13l0,.4,0-.12-.15.36a.53.53,0,0,1,.06-.1l-.24.31a.47.47,0,0,1,.1-.1l-.31.24.14-.08-.36.15.18-.05-.4.06h.18l-.4-.05.15,0-.35-.15a.41.41,0,0,1,.11.07l-.3-.24.08.08-.24-.3,0,0a1.18,1.18,0,0,0,.38.42,1.26,1.26,0,0,0,.51.27,1.73,1.73,0,0,0,1.16-.16l.3-.23a1.49,1.49,0,0,0,.39-.66l.05-.4a1.57,1.57,0,0,0-.2-.76Z"/><path class="cls-3" d="M47.7,71.69a4.13,4.13,0,0,0-.49-.07H47a2.74,2.74,0,0,0-.5.07,2.78,2.78,0,0,0-.57.21,2.43,2.43,0,0,0-.49.35l-.09.07a3.57,3.57,0,0,0-.3.38l-.06.1-.09.22c0,.07-.07.15-.1.23s0,.07,0,.1a2.73,2.73,0,0,0-.06.49,3.86,3.86,0,0,0,.06.49s0,.07,0,.11a3.43,3.43,0,0,0,.19.44.31.31,0,0,0,0,.1,2.57,2.57,0,0,0,.28.37l.07.08.33.26a.05.05,0,0,1,0,0l0,0,.41.17.09,0,.43.06h.12a3.11,3.11,0,0,0,.44-.06.28.28,0,0,0,.13,0,2.67,2.67,0,0,0,.46-.2c.14-.09.27-.2.4-.3a3.53,3.53,0,0,0,.59-.69.44.44,0,0,0,.08-.11l0-.06a3,3,0,0,0,.17-.41s0,0,0-.06a2.87,2.87,0,0,0,.05-.41v0a2.08,2.08,0,0,0,0-.22s0-.15,0-.22v0c0-.08-.12-.29-.16-.37l0,0-.24-.31,0,0a3.65,3.65,0,0,0-.31-.24h0l0,0L47.92,72a1.59,1.59,0,0,0-.3-.06c-.11,0-.21,0-.32,0l-.27,0c-.21,0-.43,0-.64.1l-.12,0a3.85,3.85,0,0,0-.47.19l-.11.06-.19.15c-.06,0-.14.1-.2.16l-.08.08L45,73l0,0c0,.07-.06.15-.09.21a2,2,0,0,0-.09.22.44.44,0,0,0,0,.1,2.63,2.63,0,0,0-.06.48,2.05,2.05,0,0,0,.06.49s0,.06,0,.09a.08.08,0,0,1,0,0c0,.13.11.26.17.39l0,.07a4.19,4.19,0,0,0,.26.33l0,0a4.08,4.08,0,0,0,.33.25l0,0L46,76h.08l.41,0h.08A3.71,3.71,0,0,0,47,76l.08,0a3.17,3.17,0,0,0,.46-.19l.12-.07a3.68,3.68,0,0,0,.39-.3l.1-.1a3.58,3.58,0,0,0,.29-.39l0-.06c.06-.13.12-.27.17-.4l0-.12c0-.14,0-.29,0-.43a.11.11,0,0,0,0-.08,3.29,3.29,0,0,0,0-.44.11.11,0,0,1,0-.05l0,0a2.71,2.71,0,0,0-.17-.39s0,0,0,0a4.19,4.19,0,0,0-.26-.33l-.07-.07-.33-.25,0,0,0,0a3.33,3.33,0,0,0-.4-.16l-.09,0-.43-.06h-.09a3,3,0,0,0-.43,0l0,0-.2.08-.2.08a.05.05,0,0,1,0,0v0a3.65,3.65,0,0,0-.31.24l0,0a4.19,4.19,0,0,0-.26.33,1.66,1.66,0,0,0-.15,1.16,1.06,1.06,0,0,0,.27.51,1,1,0,0,0,.42.38l.35.15a1.36,1.36,0,0,0,.8,0l.36-.15a1.45,1.45,0,0,0,.54-.53v0l-.24.31.05-.06-.3.24.07-.05-.35.16s.05,0,.08,0l-.4.06a.24.24,0,0,1,.12,0l-.4-.06.13,0-.36-.15a.35.35,0,0,1,.12.07l-.3-.23.08.07-.24-.3.06.09-.15-.36,0,.12-.06-.4a.33.33,0,0,1,0,.14l.05-.4a.61.61,0,0,1,0,.13l.15-.36-.09.16.23-.3a.93.93,0,0,1-.14.14l.3-.23a1.32,1.32,0,0,1-.2.12l.36-.16a.6.6,0,0,1-.19.06l.4-.06h-.1l.4,0-.09,0,.36.15-.07,0,.3.23a.34.34,0,0,1-.06-.06l.23.31a.47.47,0,0,1,0-.1l.15.35a.57.57,0,0,1,0-.14l0,.4V74l0,.4a.83.83,0,0,1,0-.15l-.15.36a.24.24,0,0,1,.06-.11l-.24.3.13-.12-.31.23.2-.11L47,75a1.59,1.59,0,0,1,.39-.1l-.4.06a1.55,1.55,0,0,1,.43,0l-.4-.06.11,0-.36-.15.06,0-.3-.24s0,0,0,0l-.24-.3,0,0-.15-.36s0,0,0,.06l-.06-.4v.06l.06-.4,0,.1.15-.36a1.28,1.28,0,0,1-.11.2l.23-.31a2.16,2.16,0,0,1-.36.38l.31-.24a.82.82,0,0,1-.2.12l.36-.15-.15,0,.39-.06a.33.33,0,0,1-.14,0l.39.06L47,73l.36.15-.12-.08.3.24a.52.52,0,0,1-.1-.11l.23.31a.51.51,0,0,1-.09-.16l.15.36a.76.76,0,0,1-.06-.2l.06.4a.49.49,0,0,1,0-.17l-.06.4a.43.43,0,0,1,0-.16l-.16.35.09-.14-.24.3a1,1,0,0,1,.15-.14l-.31.24a1.13,1.13,0,0,1,.21-.12l-.36.15a.84.84,0,0,1,.26-.07l-.4.05a1.41,1.41,0,0,1,.29,0l-.4-.05h.09a1.12,1.12,0,0,0,.6,0,1.16,1.16,0,0,0,.56-.18,1.18,1.18,0,0,0,.42-.38,1.26,1.26,0,0,0,.27-.51l0-.4a1.54,1.54,0,0,0-.2-.76l-.24-.3a1.49,1.49,0,0,0-.66-.39Z"/><path class="cls-3" d="M76.63,73.45a1.55,1.55,0,0,0,.78.21,1.56,1.56,0,0,0,1.08-.44,1.49,1.49,0,0,0,.24-.32s.14-.32.15-.36a1.56,1.56,0,0,0,0-.83,1.73,1.73,0,0,0-.42-.73,1.52,1.52,0,0,0-.75-.44,2.2,2.2,0,0,0-1.1,0l-.15,0a4.4,4.4,0,0,0-.42.18,3.58,3.58,0,0,0-.37.28,2.51,2.51,0,0,0-.33.4l0,.06a3.79,3.79,0,0,0-.18.42,2.16,2.16,0,0,0-.07.51v.07a3.54,3.54,0,0,0,.07.47,1.54,1.54,0,0,0,.19.46,1.93,1.93,0,0,0,.61.63l.07,0a2.17,2.17,0,0,0,.42.17,2.08,2.08,0,0,0,1,0l.17,0a5,5,0,0,0,.53-.23A1.72,1.72,0,0,0,79,72a1.9,1.9,0,0,0-.18-.42l0,0-.12-.16-.13-.17-.06-.06a3.18,3.18,0,0,0-.37-.27,1.86,1.86,0,0,0-.5-.22,3.35,3.35,0,0,0-.54-.08H76.9a2.18,2.18,0,0,0-.55.09,1.94,1.94,0,0,0-.49.22c-.06,0-.25.18-.35.28s-.22.28-.27.34A2.56,2.56,0,0,0,75,72a3.28,3.28,0,0,0-.08.52,2.2,2.2,0,0,0,.06.53.24.24,0,0,0,0,.08,3,3,0,0,0,.17.41,1.65,1.65,0,0,0,.33.41,1.78,1.78,0,0,0,.78.44,2,2,0,0,0,.92,0l.06,0a2.21,2.21,0,0,0,.42-.18,1.53,1.53,0,0,0,.4-.31,1.67,1.67,0,0,0,.44-.76,1.73,1.73,0,0,0,0-.93,1.26,1.26,0,0,0-.27-.51,1.18,1.18,0,0,0-.42-.38,1.12,1.12,0,0,0-.56-.18,1,1,0,0,0-.6,0l-.36.15a1.5,1.5,0,0,0-.53.53l-.15.36a1.36,1.36,0,0,0,0,.8v0l0-.4v.07l0-.4a.25.25,0,0,1,0,.07l.15-.36,0,.06.24-.3-.06.06.3-.24-.08.05.35-.15-.09,0,.4-.06h-.09l.4,0-.07,0,.35.15-.06,0,.3.24-.06-.06.24.3,0-.07.15.35,0-.11,0,.4v-.13l0,.4,0-.13-.15.36.06-.1-.23.3a.3.3,0,0,1,.08-.08l-.3.23a.34.34,0,0,1,.12-.06l-.36.15.16,0-.4.06a.67.67,0,0,1,.2,0l-.4-.06.19,0-.36-.15.12.07-.31-.24.09.09L76.19,73a.35.35,0,0,1,0,.08l-.15-.35a.07.07,0,0,1,0,0l0-.4v0l.06-.4,0,.05.15-.36a.08.08,0,0,1,0,0l.23-.3,0,0,.3-.23a1.43,1.43,0,0,1-.27.15l.36-.15-.21,0,.4,0a.24.24,0,0,1-.12,0l.4.06-.09,0,.36.15-.08,0,.3.23s0,0,0,0l.23.3a.3.3,0,0,1,0-.08l.15.36a.38.38,0,0,1,0-.1l0,.4V72.4l0,.4,0-.13-.15.36.06-.09-.24.3.09-.08-.3.23a.35.35,0,0,1,.12-.07l-.36.15a.47.47,0,0,1,.17,0l-.39,0a.81.81,0,0,1,.22,0l-.4,0H77l-.36-.15,0,0-.31-.24,0,0-.24-.31,0,0L76,72.48a.08.08,0,0,0,0,0l-.06-.4v0l.06-.4h0l.16-.36h0l.24-.31h0l.31-.24h0l.36-.16h0l.4-.06h0l.4.06h0l.36.15h0a1.09,1.09,0,0,0-.55-.18,1.22,1.22,0,0,0-.6,0,1.14,1.14,0,0,0-.51.27,1.06,1.06,0,0,0-.39.42l-.15.36a1.51,1.51,0,0,0,0,.79l.15.36a1.47,1.47,0,0,0,.54.54Z"/><path class="cls-3" d="M86.43,70.7a3,3,0,0,0-.83.15,3.24,3.24,0,0,0-.75.36,5.07,5.07,0,0,0-.45.36A4.33,4.33,0,0,0,84,72a2.85,2.85,0,0,0-.37.74,1.76,1.76,0,0,0-.1.6,1.72,1.72,0,0,0,.22.83,2.31,2.31,0,0,0,.14.19,1.39,1.39,0,0,0,.45.41,2.49,2.49,0,0,0,1.14.31,1.55,1.55,0,0,0,.43,0A2.44,2.44,0,0,0,87,74.82a2,2,0,0,0,.79-.8,2,2,0,0,0,.24-.9,1.73,1.73,0,0,0-.06-.6.24.24,0,0,0,0-.08,3.25,3.25,0,0,0-.18-.43,2.25,2.25,0,0,0-.34-.47,2,2,0,0,0-.42-.35,2.17,2.17,0,0,0-.54-.24,2.29,2.29,0,0,0-1.19,0,2.64,2.64,0,0,0-1,.57,2.73,2.73,0,0,0-.38.46l0,.08a2.26,2.26,0,0,0-.29,1,1.94,1.94,0,0,0,.06.59,1.89,1.89,0,0,0,.46.83,1.79,1.79,0,0,0,.81.49,1.85,1.85,0,0,0,1,0,1.49,1.49,0,0,0,.55-.24,1.92,1.92,0,0,0,.66-.67,2.11,2.11,0,0,0,.26-1,1.69,1.69,0,0,0-.09-.63,2.56,2.56,0,0,0-.51-.87,1.24,1.24,0,0,0-.48-.31,1.36,1.36,0,0,0-1.16,0,1.11,1.11,0,0,0-.48.31l-.24.31a1.5,1.5,0,0,0-.2.75l.05.4a1.47,1.47,0,0,0,.39.67l0,0-.24-.3a.54.54,0,0,1,.09.15l-.15-.36a.94.94,0,0,1,0,.16l0-.4v.15l0-.4,0,.13.15-.36-.05.08.23-.3-.07.08.3-.24-.11.07.36-.15-.11,0,.4-.06a.21.21,0,0,1-.11,0l.4.06-.09,0,.36.15-.08,0,.31.23a.17.17,0,0,1-.06-.06l.23.3a.25.25,0,0,1,0-.07l.15.35a.24.24,0,0,1,0-.12l0,.4a.43.43,0,0,1,0-.16l0,.39a.61.61,0,0,1,0-.18l-.15.36a.75.75,0,0,1,.1-.17l-.24.31a1.21,1.21,0,0,1,.16-.16l-.3.24a.76.76,0,0,1,.19-.12l-.36.15a1,1,0,0,1,.23-.06l-.39.05H86l-.4-.05.17,0-.36-.15.14.08-.3-.23a.74.74,0,0,1,.12.13l-.23-.31a.65.65,0,0,1,.09.16l-.15-.36a1.21,1.21,0,0,1,0,.18l-.06-.4a.43.43,0,0,1,0,.16l.06-.4a.74.74,0,0,1,0,.14l.15-.36-.06.11.23-.31a.63.63,0,0,1-.11.12l.3-.24a.6.6,0,0,1-.15.09l.35-.15a1,1,0,0,1-.25.06l.4-.05a1.7,1.7,0,0,1-.45,0l.4.06a1.65,1.65,0,0,1-.32-.07l.36.15-.07,0,.31.24,0,0,.23.3s0,0,0,0l.15.36a.15.15,0,0,1,0-.07l0,.4v-.06l0,.39a.64.64,0,0,1,.06-.18l-.15.36a1.27,1.27,0,0,1,.2-.34l-.24.3a1.85,1.85,0,0,1,.28-.28l-.3.24a1.31,1.31,0,0,1,.36-.21l-.36.15a1.64,1.64,0,0,1,.38-.1l-.4,0h.1a1.06,1.06,0,0,0,.58-.13,1.36,1.36,0,0,0,.79-.79,1.06,1.06,0,0,0,.13-.58l-.05-.4a1.49,1.49,0,0,0-.39-.66l-.3-.23a1.45,1.45,0,0,0-.76-.21Z"/><path class="cls-3" d="M84,78.37A2.79,2.79,0,0,0,83.6,78a2.32,2.32,0,0,0-.44-.31,2.89,2.89,0,0,0-.5-.2,2.6,2.6,0,0,0-.56-.07H82a3.47,3.47,0,0,0-.45.06l-.18,0a2.47,2.47,0,0,0-.93.56,2.59,2.59,0,0,0-.32.42.2.2,0,0,0,0,.08,2.21,2.21,0,0,0-.18.42,2.08,2.08,0,0,0,0,1.16,2.48,2.48,0,0,0,.57,1,3.75,3.75,0,0,0,.44.35,2.21,2.21,0,0,0,.52.24l.18,0a3,3,0,0,0,.48.06,2.63,2.63,0,0,0,.49-.06,2.06,2.06,0,0,0,.54-.2l.08-.05a2.38,2.38,0,0,0,.4-.31,1.72,1.72,0,0,0,.34-.46,1.92,1.92,0,0,0,.26-.93,1.45,1.45,0,0,0-.07-.59,2.06,2.06,0,0,0-.51-.85,2.16,2.16,0,0,0-2.12-.55A2.28,2.28,0,0,0,81,78a1.69,1.69,0,0,0-.44.36,2,2,0,0,0-.46.78,1.58,1.58,0,0,0-.08.57,2,2,0,0,0,.26.92,1.55,1.55,0,0,0,.36.45,2,2,0,0,0,.8.47,1.24,1.24,0,0,0,.57.08,1.69,1.69,0,0,0,.91-.26,1.75,1.75,0,0,0,.59-.59s0,0,0,0l.09-.2c0-.06,0-.13.08-.19a1.74,1.74,0,0,0,0-1,1.69,1.69,0,0,0-.42-.72,1.74,1.74,0,0,0-.72-.42,1.11,1.11,0,0,0-.6,0,1.18,1.18,0,0,0-.55.17,1.24,1.24,0,0,0-.43.39,1.13,1.13,0,0,0-.26.51l-.06.4a1.48,1.48,0,0,0,.21.76l.23.3a1.49,1.49,0,0,0,.66.39h0L81.42,81l0,0-.3-.23,0,0-.24-.31,0,0-.16-.36s0,0,0,0l-.06-.4a.06.06,0,0,1,0,.06l.06-.4s0,0,0,.08l.15-.36a.21.21,0,0,1,0,.06l.24-.3-.05,0,.31-.23-.07,0,.36-.15h-.07l.4,0a.17.17,0,0,1-.1,0l.4,0-.1,0,.35.15-.1-.07.3.24a.47.47,0,0,1-.1-.1l.23.3-.06-.11.15.36,0-.1.06.4a.21.21,0,0,1,0-.11L83,80l0-.09-.15.35a.41.41,0,0,1,.05-.09l-.23.3.1-.1-.31.24.13-.07-.36.15a.59.59,0,0,1,.19,0l-.4,0a.54.54,0,0,1,.18,0l-.4,0,.16,0-.36-.15.14.08-.3-.23a.57.57,0,0,1,.11.11l-.23-.31a.75.75,0,0,1,.07.12L81.24,80l0,.11-.06-.4a.2.2,0,0,1,0,.11l.05-.39a.27.27,0,0,1,0,.12l.15-.36a.57.57,0,0,1-.08.13l.24-.3-.11.11.3-.23-.15.08.36-.15-.15,0,.39,0H82l.4,0-.18,0,.35.15-.19-.11.31.23a1.21,1.21,0,0,1-.16-.16l.23.3a1,1,0,0,1-.1-.17l.15.35a.84.84,0,0,1,0-.17l.06.4a.48.48,0,0,1,0-.17l-.06.4a.83.83,0,0,1,0-.15l-.15.36a1,1,0,0,1,.08-.14l-.23.31a.34.34,0,0,1,.12-.12l-.31.23a.81.81,0,0,1,.18-.1l-.36.15a1,1,0,0,1,.23-.06l-.4,0h.23l-.4,0a.59.59,0,0,1,.19,0l-.35-.15.13.08-.3-.24a.52.52,0,0,1,.1.11l-.23-.31v0a1.12,1.12,0,0,0,.39.42,1,1,0,0,0,.51.26,1,1,0,0,0,.59,0,1.12,1.12,0,0,0,.56-.18l.3-.23a1.49,1.49,0,0,0,.39-.66l.05-.4a1.57,1.57,0,0,0-.2-.76Z"/><path d="M90.26,70.92c5.14-1.35,10.31-2.55,15.52-3.53,2.61-.48,5.23-.91,7.87-1.19,1.32-.14,2.65-.24,4-.25a10.9,10.9,0,0,1,3.93.53,10.84,10.84,0,0,0-3.92-.44c-1.33,0-2.64.18-4,.35-2.62.33-5.22.83-7.81,1.37-5.18,1.1-10.32,2.42-15.4,3.88Z"/><path d="M94.08,75.06c4.9-.65,9.81-1.15,14.74-1.44,2.47-.14,4.94-.22,7.4-.15a35.22,35.22,0,0,1,3.7.28,9.38,9.38,0,0,1,3.52,1,9.23,9.23,0,0,0-3.53-1c-1.23-.13-2.46-.17-3.69-.18-2.46,0-4.92.14-7.37.33-4.91.41-9.8,1-14.65,1.81Z"/><path d="M92.61,78.54c4.94.06,9.87.26,14.79.69,2.46.22,4.92.49,7.35.92a34.19,34.19,0,0,1,3.61.8,9.43,9.43,0,0,1,3.34,1.54A9.33,9.33,0,0,0,118.34,81c-1.19-.31-2.41-.52-3.62-.71-2.44-.36-4.89-.57-7.35-.73-4.91-.3-9.84-.38-14.75-.31Z"/><path d="M33,71.64c-5.08-1.46-10.22-2.78-15.39-3.88-2.59-.54-5.2-1-7.82-1.37-1.31-.17-2.63-.31-3.95-.35a10.79,10.79,0,0,0-3.92.44A10.81,10.81,0,0,1,5.82,66c1.33,0,2.65.11,4,.25,2.64.28,5.26.71,7.87,1.19,5.22,1,10.39,2.18,15.53,3.53Z"/><path d="M29.25,75.8C24.39,75,19.5,74.4,14.6,74c-2.46-.19-4.92-.34-7.38-.33-1.23,0-2.46,0-3.68.18a9.23,9.23,0,0,0-3.54,1,9.42,9.42,0,0,1,3.53-1,35,35,0,0,1,3.69-.28c2.47-.07,4.94,0,7.4.15,4.93.29,9.84.79,14.74,1.44Z"/><path d="M30.83,79.29c-4.92-.07-9.85,0-14.76.31-2.46.16-4.91.37-7.34.73-1.22.19-2.43.4-3.63.71a9.33,9.33,0,0,0-3.36,1.45A9.43,9.43,0,0,1,5.08,81a34.37,34.37,0,0,1,3.62-.8c2.43-.43,4.88-.7,7.34-.92,4.92-.43,9.85-.63,14.79-.69Z"/></svg>