<svg id="Layer_1" data-name="Layer 1" xmlns="http://www.w3.org/2000/svg" xmlns:xlink="http://www.w3.org/1999/xlink" viewBox="0 0 472.47 243.65"><defs><style>.cls-1{fill:none;}.cls-2{clip-path:url(#clip-path);}.cls-3{fill:#a2c76a;}.cls-4{fill:#dbca9e;}.cls-5{fill:#508b3f;}.cls-6{fill:#ab734e;}</style><clipPath id="clip-path" transform="translate(-8.04 -9.39)"><rect class="cls-1" width="468" height="256"/></clipPath></defs><title>vineImg</title><g class="cls-2"><path class="cls-3" d="M291,199.82c-5.26-3.1-3.74-10.39-.68-15.87,7.87-14.09,23.11-25.71,40.27-30.72a100.43,100.43,0,0,1-13.74,43.43s-6.77,8.57-12.49,10.08S291,199.82,291,199.82Z" transform="translate(-8.04 -9.39)"/><path class="cls-3" d="M291.7,198.52c-3.38-2.09-3-6.32-2-9.65A36.48,36.48,0,0,1,296,178a66.73,66.73,0,0,1,20.4-17.23,71.17,71.17,0,0,1,14.53-6.09l-1.9-1.45A98,98,0,0,1,318,191.4a26.81,26.81,0,0,1-2.87,5,51.84,51.84,0,0,1-3.81,4,24.66,24.66,0,0,1-5.64,4.22,6.19,6.19,0,0,1-5.39.26,22.94,22.94,0,0,1-8.27-6.11c-1.31-1.43-3.42.7-2.12,2.12a27.56,27.56,0,0,0,7.92,6.16,10.31,10.31,0,0,0,6.65,1.2,16.27,16.27,0,0,0,6.44-3.52,43.43,43.43,0,0,0,5.16-4.9,18.84,18.84,0,0,0,2.5-3.21,108.54,108.54,0,0,0,8.92-20.08,96.94,96.94,0,0,0,4.56-23.3,1.51,1.51,0,0,0-1.9-1.45,74.69,74.69,0,0,0-26.71,14.29,64.74,64.74,0,0,0-10,10.4c-2.79,3.64-5.45,7.66-6.73,12.11s-.92,9.8,3.49,12.53C291.84,202.13,293.35,199.54,291.7,198.52Z" transform="translate(-8.04 -9.39)"/><path class="cls-4" d="M298.46,205.87c.84-2.75,1.76-5.44,2.72-8.13s2-5.34,3.09-8,2.26-5.24,3.58-7.77a46.08,46.08,0,0,1,4.5-7.24,46,46,0,0,0-4.05,7.46c-1.16,2.58-2.16,5.23-3.1,7.91s-1.8,5.36-2.59,8.08-1.56,5.45-2.22,8.18Z" transform="translate(-8.04 -9.39)"/><path class="cls-3" d="M196.7,141.05c-1.14-7.9,4.11-16.38,11.34-22.49s16.27-10.27,25.13-14.33c3.81,18.28-1.48,38.75-14.39,55.71,0,0-5.74,6.32-6.95,5.06s-10.6-5.18-11.37-8.91S196.7,141.05,196.7,141.05Z" transform="translate(-8.04 -9.39)"/><path class="cls-3" d="M198.2,141.05c-.85-6.48,2.47-12.61,6.67-17.31,4.87-5.47,11.2-9.39,17.64-12.75,3.74-1.94,7.58-3.71,11.42-5.47l-2.2-.89c3.38,16.52-1,33.77-9.71,48a42,42,0,0,1-5.28,7.33c-.83.85-1.69,1.68-2.6,2.45a9.83,9.83,0,0,1-1.22.93c-.15.1-.48.27-.54.32s-.21-.1,0,.07c.93.71.07-.11-.25-.33s-.82-.52-1.24-.76c-1.22-.71-2.45-1.38-3.66-2.11-1.86-1.12-4.82-2.65-5.36-4.95q-1.77-7.47-3.74-14.88a1.5,1.5,0,0,0-2.89.8c1.26,4.76,2.56,9.53,3.62,14.34.64,2.91,2.84,4.67,5.23,6.26,1.31.87,2.67,1.65,4,2.42.54.3,1.08.6,1.61.92l.62.38a1.55,1.55,0,0,1,.33.23c2.15,1.67,4.5-.55,6.12-2a33.13,33.13,0,0,0,5.06-5.77,78,78,0,0,0,11.76-25.06,64.65,64.65,0,0,0,1-29.34,1.53,1.53,0,0,0-2.21-.9c-13.21,6.06-29,13-35.33,27.19a20.34,20.34,0,0,0-1.88,10.93,1.54,1.54,0,0,0,1.5,1.5A1.5,1.5,0,0,0,198.2,141.05Z" transform="translate(-8.04 -9.39)"/><path class="cls-4" d="M208,163.57a104.8,104.8,0,0,1-.42-10.48,46.13,46.13,0,0,1,.35-5.25,17.1,17.1,0,0,1,1.44-5.08c1.41-3.21,3-6.29,4.58-9.41.78-1.55,1.56-3.11,2.28-4.69.36-.8.71-1.59,1-2.41a6.31,6.31,0,0,0,.58-2.52,6.43,6.43,0,0,1-.52,2.55c-.29.82-.62,1.62-1,2.43-.69,1.6-1.43,3.18-2.17,4.75-1.48,3.16-3,6.28-4.35,9.49s-1.48,6.69-1.5,10.14.28,6.94.66,10.37Z" transform="translate(-8.04 -9.39)"/><path class="cls-5" d="M229,200.59c-18.58,10.73-27.95,32.31-21.06,48.5a3.69,3.69,0,0,0,1.95,2.27c1.27.47,2.85-.06,4.24-.59,18.07-6.82,38.23-15.41,45.6-30.94,1.29-2.72,2.13-5.59,4-8.13,0,0,5.65-6.77,2.75-9.45s-8.51-4.21-9.54-6.39-8.52-4.21-12.08-1.37S229,200.59,229,200.59Z" transform="translate(-8.04 -9.39)"/><path class="cls-5" d="M228.24,199.29c-11.76,6.86-21.26,18.7-23.53,32.33a32.16,32.16,0,0,0,1.93,18.22,4.76,4.76,0,0,0,4,3.19c1.91.14,3.77-.75,5.52-1.42q5.34-2,10.59-4.25c12.77-5.47,26.93-12.78,33.7-25.57,1.6-3,2.49-6.49,4.55-9.27a22,22,0,0,0,3.34-5.67,6.42,6.42,0,0,0,.34-3.75A5.81,5.81,0,0,0,266,200a42.25,42.25,0,0,0-4.35-2.46,9.65,9.65,0,0,1-3.19-2.05,7.27,7.27,0,0,0-2.29-2.26,12.61,12.61,0,0,0-4-1.36,11,11,0,0,0-8.38,1.65,29.24,29.24,0,0,1-7,3.16c-2.29.81-4.61,1.53-6.94,2.19l-1.17.32a1.5,1.5,0,0,0,.8,2.89,95,95,0,0,0,11-3.59c1.15-.47,2.31-1,3.41-1.54s1.77-1.26,2.73-1.72c2.2-1.05,5.21-.66,7.4.26a3.57,3.57,0,0,1,1.88,1.52,8.33,8.33,0,0,0,2.85,2.35c1.31.76,2.69,1.41,4,2.15.89.5,2.56,1.24,3,2.23.73,1.64-1.15,4.26-2,5.53-.4.59-.77,1.07-1,1.38a20.54,20.54,0,0,0-2.39,4.14,52,52,0,0,1-4.68,9.12,39.75,39.75,0,0,1-6.4,6.94,76.65,76.65,0,0,1-16.93,10.74c-3.21,1.56-6.48,3-9.78,4.35s-6.57,2.81-9.95,3.85a2.93,2.93,0,0,1-2.37.09,3.92,3.92,0,0,1-1.1-1.85,29.19,29.19,0,0,1-1.22-4,29.49,29.49,0,0,1-.63-8.38c.76-12.38,8.41-23.88,18.29-31q2-1.47,4.22-2.74A1.5,1.5,0,0,0,228.24,199.29Z" transform="translate(-8.04 -9.39)"/><path class="cls-4" d="M260.39,196.71a107.62,107.62,0,0,1-7.78,8.74,48.15,48.15,0,0,1-4.37,3.93,22.16,22.16,0,0,1-2.45,1.69,10.91,10.91,0,0,1-1.37.68c-.49.17-1,.35-1.43.47a25,25,0,0,0-5.19,2.31,44.22,44.22,0,0,0-4.8,3.17,36.43,36.43,0,0,0-4.32,3.82,15.24,15.24,0,0,0-3.25,4.73,15.4,15.4,0,0,1,3.07-4.9,36.36,36.36,0,0,1,4.19-4,45.57,45.57,0,0,1,4.73-3.43,26,26,0,0,1,5.28-2.62c.5-.15.89-.33,1.31-.49a10.9,10.9,0,0,0,1.2-.66,21.3,21.3,0,0,0,2.24-1.7,46.64,46.64,0,0,0,4.08-4,108.51,108.51,0,0,0,7.27-8.9Z" transform="translate(-8.04 -9.39)"/><path class="cls-3" d="M143.34,136.5c-9.18,7-21.8,8.14-27.78,17.16-7.32,11-11.59,23.76-9,35.21,25.24-3.32,49.36-20,58.9-40.76,0,0,5.94-8.43,2.56-10S147.09,133.65,143.34,136.5Z" transform="translate(-8.04 -9.39)"/><path class="cls-3" d="M142.59,135.2c-7,5.27-16,7-23,12.24-3.81,2.84-6.26,6.67-8.51,10.79a57.34,57.34,0,0,0-5.66,14.5,37.69,37.69,0,0,0-.24,16.54,1.51,1.51,0,0,0,1.45,1.1,82.57,82.57,0,0,0,49.73-25.93,65.45,65.45,0,0,0,7.95-10.76c.93-1.58,1.63-3.29,2.55-4.87.47-.8,1-1.55,1.47-2.35,1.25-2.21,3.23-5.72,1.89-8.29-1.08-2.07-4.38-2.43-6.44-2.85a75.11,75.11,0,0,0-11.87-1.5c-2.85-.12-6.84-.39-9.29,1.38-1.56,1.12-.06,3.72,1.51,2.59s4.68-1,6.8-1a66.58,66.58,0,0,1,9.86,1c1.38.24,2.76.51,4.12.84.5.13,1,.26,1.48.41l.6.19.32.12c.18.08-.21-.13,0,0s.26.14.29.38a4,4,0,0,1-.22,1.53,17.3,17.3,0,0,1-1.66,3.67c-.45.78-1,1.51-1.42,2.27-.79,1.35-1.39,2.82-2.16,4.18a60.92,60.92,0,0,1-7.07,10A77,77,0,0,1,135,177.63a79,79,0,0,1-28.37,9.74l1.44,1.1c-2.1-9.49.67-19.33,5.08-27.76,2-3.89,4.27-7.86,7.82-10.58,3.21-2.45,7-4.07,10.67-5.68,4.34-1.9,8.69-3.81,12.49-6.66C145.63,136.65,144.13,134,142.59,135.2Z" transform="translate(-8.04 -9.39)"/><path class="cls-4" d="M165,137.41c-3.85,3.84-7.83,7.53-12,11a78.17,78.17,0,0,1-6.53,4.89c-1.14.75-2.33,1.42-3.5,2.09s-2.34,1.36-3.49,2.06c-2.32,1.4-4.6,2.85-6.84,4.37a60.41,60.41,0,0,0-6.43,4.92,14.63,14.63,0,0,0-1.38,1.46,13.61,13.61,0,0,0-1,1.73c-.6,1.21-1.12,2.46-1.7,3.69a17.53,17.53,0,0,1-2,3.5,4.55,4.55,0,0,1-3.47,1.86,4.51,4.51,0,0,0,3.42-1.9,17.16,17.16,0,0,0,2-3.52c.56-1.23,1-2.49,1.65-3.71a11.68,11.68,0,0,1,1-1.78,14.12,14.12,0,0,1,1.38-1.51,59.81,59.81,0,0,1,6.39-5c2.22-1.55,4.49-3,6.78-4.49,1.15-.72,2.31-1.42,3.47-2.12s2.34-1.37,3.45-2.12a75.75,75.75,0,0,0,6.39-4.95c4.1-3.51,8-7.26,11.77-11.13Z" transform="translate(-8.04 -9.39)"/><path class="cls-5" d="M99.53,91.44c-5.65-6.36-9.73-14.23-8.82-22.75s7.83-17.57,17.67-20.32a189.81,189.81,0,0,1,14.87,17.46c5.28,7,10.13,15.64,6.34,24.28,0,0-2.24,7.66-7.44,11.52s-10.79-.89-10.79-.89Z" transform="translate(-8.04 -9.39)"/><path class="cls-5" d="M100.59,90.38c-4.65-5.28-8.42-11.83-8.51-19a22.15,22.15,0,0,1,7.26-16.13,23,23,0,0,1,9.44-5.4l-1.46-.39a152.16,152.16,0,0,1,16.79,20.19,30.22,30.22,0,0,1,5.08,11.21c.6,3.28-.07,6.14-1.15,9.22a29.17,29.17,0,0,1-2.8,5.89c-1.62,2.58-4.08,5.61-7.38,5.7a8,8,0,0,1-3.89-1c-.4-.21-.78-.44-1.16-.69l-.41-.29c-.25-.18.23.18,0,0l-2.51-2-9.33-7.33c-1.5-1.18-3.64.93-2.12,2.12l8.91,7c2.8,2.2,5.44,4.59,9.15,5,7.14.91,11.72-6.72,13.94-12.43a24.1,24.1,0,0,0,1.95-7.73,24.26,24.26,0,0,0-3.31-12.33,81.83,81.83,0,0,0-8.81-12.44q-5.16-6.39-10.86-12.31a1.49,1.49,0,0,0-1.46-.38A26.79,26.79,0,0,0,91.88,60.1a24.57,24.57,0,0,0-.75,21A41.16,41.16,0,0,0,98.47,92.5C99.75,94,101.86,91.82,100.59,90.38Z" transform="translate(-8.04 -9.39)"/><path class="cls-4" d="M114.75,102.67a35.67,35.67,0,0,0-2-10.57,8,8,0,0,0-2.95-4c-.35-.24-.87-.54-1.25-.84s-.74-.67-1.05-1-.61-.75-.88-1.15l-.77-1.2A38.05,38.05,0,0,1,102,73.37a30.08,30.08,0,0,1-.64-11.05,30.14,30.14,0,0,0,1.12,10.93,37.55,37.55,0,0,0,4.24,10.08A9.73,9.73,0,0,0,110.37,87a9.26,9.26,0,0,1,3.75,4.55,37,37,0,0,1,2.62,11Z" transform="translate(-8.04 -9.39)"/><path class="cls-3" d="M41.81,80.59c-8,2-13.33,7.25-17.61,12.72C19.36,99.5,14.47,105.78,12,112.82s-2.18,15.06,2.87,21.54c22.42-3.93,41.88-15.58,52.16-31.25,0,0,6.42-14,2.26-16S50.4,78.47,41.81,80.59Z" transform="translate(-8.04 -9.39)"/><path class="cls-3" d="M41.41,79.15a29.43,29.43,0,0,0-11.72,6.14A61.05,61.05,0,0,0,21,95.06C15.19,102.53,9.33,110.89,9,120.68a22.61,22.61,0,0,0,4.57,14.44,1.59,1.59,0,0,0,1.69.69c18-3.19,35.82-11.47,48-25.33,1.35-1.53,2.61-3.13,3.8-4.78a13.93,13.93,0,0,0,1.52-2.43,59.88,59.88,0,0,0,2.58-7c.71-2.46,1.54-5.51.74-8s-3.47-3.13-5.59-4a82.11,82.11,0,0,0-12-4.22c-4.16-1.06-8.68-1.81-12.93-.81-1.88.44-1.08,3.33.8,2.89,3.38-.79,7-.21,10.33.57A71.29,71.29,0,0,1,62.88,86c1.31.52,2.61,1.08,3.9,1.66l1.36.63c.18.09.38.16.55.26s.23.24.18.16a4.36,4.36,0,0,1,.31,2.49,19.52,19.52,0,0,1-.72,3.7,55.88,55.88,0,0,1-2.33,6.62,26,26,0,0,1-4.38,6.21,69.58,69.58,0,0,1-19,15.29,90,90,0,0,1-28.3,9.93l1.7.68c-5.41-7.08-5-16-1.3-23.81a68.74,68.74,0,0,1,7.41-11.6,75.46,75.46,0,0,1,8-9.41A27.07,27.07,0,0,1,42.21,82C44.08,81.56,43.29,78.67,41.41,79.15Z" transform="translate(-8.04 -9.39)"/><path class="cls-4" d="M59.91,83.47q-8.43,8.39-16.79,16.84l-8.32,8.5c-2.74,2.87-5.53,5.68-8.08,8.72,2.49-3.09,5.22-6,7.9-8.89L42.76,100q8.18-8.64,16.44-17.2Z" transform="translate(-8.04 -9.39)"/><path class="cls-3" d="M17.37,67.64c-10.44-14.75-9.85-35-2-52.76.88-2,2.89-4.49,5.14-3.94a3.66,3.66,0,0,1,1.95,1.51A118.16,118.16,0,0,1,45.14,58.91S43.48,70.15,37.92,73.6,19.82,71.1,17.37,67.64Z" transform="translate(-8.04 -9.39)"/><path class="cls-3" d="M18.66,66.88c-6.36-9.09-8.45-20.21-7.39-31.13a65.31,65.31,0,0,1,3.94-16.54c.79-2.12,1.68-5.55,3.92-6.65,1.12-.55,1.75.3,2.41,1.12q1.44,1.82,2.8,3.69A117.28,117.28,0,0,1,40.75,49q1.36,4.07,2.43,8.22a10.86,10.86,0,0,0,.31,1.25c.19.47.21.48.2,0,0,.07,0,.13,0,.2,0,.42-.16.85-.24,1.27a27.77,27.77,0,0,1-3.62,9.58A7.27,7.27,0,0,1,35.52,73a13.39,13.39,0,0,1-6.25-.44,29.06,29.06,0,0,1-6.6-2.66,13.74,13.74,0,0,1-4-3c-1.13-1.54-3.74,0-2.59,1.51,2.36,3.21,6.67,5.1,10.31,6.37,3.88,1.35,9.1,2.42,12.73-.16s5.34-6.94,6.5-11a38.1,38.1,0,0,0,.92-4,3.92,3.92,0,0,0-.05-1.56c-.36-1.68-.83-3.33-1.31-5A119.49,119.49,0,0,0,28.44,18q-1.36-2-2.81-3.87a21.44,21.44,0,0,0-3.08-3.75c-2.35-1.95-5.29-.69-7,1.42-1.88,2.3-2.82,5.44-3.79,8.22a68.85,68.85,0,0,0-2.52,9.26C6.59,42.63,8.11,57,16.07,68.39,17.17,70,19.77,68.46,18.66,66.88Z" transform="translate(-8.04 -9.39)"/><path class="cls-4" d="M29.64,77.34q-1.82-6.18-3.41-12.41c-1.07-4.16-2.06-8.33-2.87-12.55a57.59,57.59,0,0,1-.89-6.4c-.15-2.15-.19-4.31-.13-6.45a84.19,84.19,0,0,1,1.35-12.78,83,83,0,0,0-.85,12.78c0,2.13.14,4.26.37,6.38a55.89,55.89,0,0,0,1.13,6.26c1,4.15,2.11,8.27,3.33,12.36s2.51,8.17,3.87,12.21Z" transform="translate(-8.04 -9.39)"/><path class="cls-6" d="M477.92,133.68c-24.33,23.08-51.62,43.38-82.38,57-31,13.78-66.66,21.16-100.41,14.89-32.29-6-59.76-24.3-86.16-42.84-28.63-20.11-57-40.8-88-57.22C90.91,89.61,58.4,78,24.49,73.81c-4.26-.53-8.53-.93-12.81-1.23-1.93-.13-1.92,2.87,0,3,35,2.4,68.87,13,100.11,28.61,31.69,15.83,60.58,36.43,89.45,56.8,26.48,18.68,53.56,38,85.51,45.88,33,8.15,68.15,2.93,99.52-9.09s59.66-31.27,84.69-53.6q4.6-4.12,9.08-8.38c1.41-1.33-.72-3.45-2.12-2.12Z" transform="translate(-8.04 -9.39)"/></g></svg>